<?xml version="1.0" standalone="no"?>
<!DOCTYPE svg PUBLIC "-//W3C//DTD SVG 1.1//EN" "http://www.w3.org/Graphics/SVG/1.1/DTD/svg11.dtd" >
<svg>
<metadata>
Created by FontForge 20090622 at Tue Mar  6 08:12:37 2018
 By deploy user
Copyleft 2002, 2003 Free Software Foundation.
</metadata>
<defs>
<font id="FreeSansBold" horiz-adv-x="722" >
  <font-face 
    font-family="FreeSans"
    font-weight="700"
    font-stretch="normal"
    units-per-em="1000"
    panose-1="2 11 7 4 2 2 2 2 2 4"
    ascent="800"
    descent="-200"
    x-height="540"
    cap-height="729"
    bbox="-459 -355 1300 1159"
    underline-thickness="69"
    underline-position="-121"
    unicode-range="U+000D-U+FE9E"
  />
<missing-glyph horiz-adv-x="432" 
d="M33 0v666h333v-666h-333zM66 33h267v600h-267v-600z" />
    <glyph glyph-name="uniFB4F" unicode="&#x5d0;&#x5dc;" horiz-adv-x="714" 
d="M83 569v181h139v-150l203 -285q36 44 50 99q2 8 7 30v156h139v-167q-16 -89 -54 -146q-11 -18 -27 -37q-18 -21 -42 -38l152 -212h-163z" />
    <glyph glyph-name="uniFE9E" unicode="&#x62c;" horiz-adv-x="636" arabic-form="final" 
d="M363 -120h-113v114h113v-114zM136 -62q0 -68 47 -115q53 -51 147 -51q27 0 62 5q18 2 66 14l85 31l55 -105q-45 -24 -129 -51q-28 -8 -70 -15q-33 -6 -64 -6q-53 0 -76 4l-45 8l-18 7q-92 27 -138 100q-45 69 -45 167q0 78 65 175l26 30l32 32l34 28l42 30l50 31l54 28
l-28 1l-68 2l-24 -1l-42 -3l-9 -1l-9 -2l-42 -19l-10 -6l-58 93l8 10l12 10l13 10l18 12q34 21 75 21h6l459 -16l-11 -122h-42q-23 0 -43 -4l-21 -4l-9 -2l-14 -6l-34 -15l-25 -15q26 -40 50 -61q8 -9 49 -28q27 -10 59 -10h74v-129h-95q-102 0 -164 77l-26 41l-35 61
l-39 -28l-41 -32q-37 -30 -79 -85q-35 -49 -35 -96z" />
    <glyph glyph-name=".notdef" horiz-adv-x="432" 
d="M33 0v666h333v-666h-333zM66 33h267v600h-267v-600z" />
    <glyph glyph-name=".null" horiz-adv-x="0" 
 />
    <glyph glyph-name="nonmarkingreturn" unicode="&#xd;" horiz-adv-x="333" 
 />
    <glyph glyph-name="space" unicode=" " horiz-adv-x="278" 
 />
    <glyph glyph-name="exclam" unicode="!" horiz-adv-x="333" 
d="M262 726v-210l-42 -309h-67l-41 309v210h150zM262 146v-146h-150v146h150z" />
    <glyph glyph-name="quotedbl" unicode="&#x22;" horiz-adv-x="474" 
d="M188 729v-130l-42 -129h-56l-40 129v130h138zM424 729v-130l-42 -129h-56l-40 129v130h138z" />
    <glyph glyph-name="numbersign" unicode="#" horiz-adv-x="556" 
d="M146 -32h-106l40 204h-77v99h97l30 153h-99v99h119l34 174h105l-34 -174h103l34 174h105l-34 -174h90v-99h-109l-31 -153h100v-99h-119l-40 -204h-105l40 204h-103zM205 271h103l30 153h-103z" />
    <glyph glyph-name="dollar" unicode="$" horiz-adv-x="556" 
d="M517 498h-128l-2 34q-13 64 -71 75q-3 1 -5 1v-201q153 -42 194 -118q22 -39 22 -94q0 -104 -68 -162q-9 -7 -18 -13q-51 -32 -130 -41v-105h-68v105q-82 8 -135 46q-86 61 -86 173v9h131q5 -106 90 -121v213q-204 47 -204 213q0 121 105 171q42 21 99 26v54h68v-54
q129 -7 181 -104l14 -35q10 -33 11 -72zM243 427v181q-81 -16 -81 -92q0 -60 72 -86q4 -1 9 -3zM311 282v-196q84 21 84 97q0 73 -84 99z" />
    <glyph glyph-name="percent" unicode="%" horiz-adv-x="889" 
d="M206 701q89 0 144 -68q28 -35 36 -79q4 -18 4 -37q0 -82 -66 -137q-52 -43 -118 -43q-86 0 -141 66q-43 51 -43 116q0 85 67 140q51 42 117 42zM206 602q-48 0 -73 -41q-12 -19 -12 -42q0 -47 41 -72q20 -12 44 -12q47 0 73 41q12 19 12 42q0 49 -43 73q-19 11 -42 11z
M606 709h76l-395 -729h-77zM679 352q90 0 144 -69q40 -50 40 -116q0 -82 -66 -137q-52 -43 -118 -43q-86 0 -141 66q-43 51 -43 117q0 85 67 140q51 42 117 42zM679 253q-48 0 -73 -41q-12 -20 -12 -43q0 -47 41 -72q20 -12 44 -12q47 0 73 41q12 19 12 42q0 48 -41 73
l-23 9q-10 3 -21 3z" />
    <glyph glyph-name="ampersand" unicode="&#x26;" 
d="M526 373h113v-11v-5q-3 -107 -53 -183q-7 -11 -15 -20l123 -154h-161l-46 56q-87 -66 -151 -76q-20 -3 -44 -3q-130 0 -195 85q-42 54 -42 131q0 89 60 144q34 31 97 64q-9 12 -12 15l-28 34q-42 50 -42 106q0 82 70 131q51 36 119 36q107 0 154 -70l14 -28
q10 -26 10 -57q0 -71 -50 -122q-24 -24 -67 -54l116 -144q30 57 30 115v10zM278 319l-47 -29q-43 -29 -43 -80q0 -55 45 -93q29 -24 61 -24q48 0 120 55zM317 470q60 33 60 86q-9 53 -57 58q-43 0 -55 -32q-3 -7 -3 -16q0 -23 19 -50z" />
    <glyph glyph-name="quotesingle" unicode="'" horiz-adv-x="238" 
d="M188 729v-130l-42 -129h-56l-40 129v130h138z" />
    <glyph glyph-name="parenleft" unicode="(" horiz-adv-x="333" 
d="M203 729h100q-108 -208 -130 -341q-10 -58 -10 -123q0 -144 58 -290q29 -73 82 -175h-100q-138 208 -159 386q-4 38 -4 79q0 185 109 376q24 42 54 88z" />
    <glyph glyph-name="parenright" unicode=")" horiz-adv-x="333" 
d="M122 -200h-100q108 208 130 341q10 58 10 123q0 144 -58 290q-29 73 -82 175h100q138 -208 159 -386q4 -38 4 -79q0 -185 -109 -376q-24 -42 -54 -88z" />
    <glyph glyph-name="asterisk" unicode="*" horiz-adv-x="389" 
d="M132 544l-109 36l22 69l109 -36v116h72v-116l109 36l22 -70l-109 -35l67 -94l-58 -43l-67 94l-67 -94l-58 43z" />
    <glyph glyph-name="plus" unicode="+" horiz-adv-x="584" 
d="M533 291v-119h-182v-182h-119v182h-182v119h182v182h119v-182h182z" />
    <glyph glyph-name="comma" unicode="," horiz-adv-x="278" 
d="M64 146h150v-137q0 -90 -34 -128q-9 -9 -20 -18q-39 -30 -96 -37v56q76 16 85 92q1 11 1 23v3h-86v146z" />
    <glyph glyph-name="hyphen" unicode="-" horiz-adv-x="333" 
d="M298 342v-135h-272v135h272z" />
    <glyph glyph-name="period" unicode="." horiz-adv-x="278" 
d="M214 146v-146h-150v146h150z" />
    <glyph glyph-name="slash" unicode="/" horiz-adv-x="278" 
d="M208 714h67l-206 -728h-67z" />
    <glyph glyph-name="zero" unicode="0" horiz-adv-x="556" 
d="M273 724q125 0 190 -99l4 -6q50 -81 50 -273q0 -197 -60 -278q-67 -91 -184 -91q-121 0 -187 95q-4 5 -7 10q-50 82 -50 268q0 203 60 283q66 91 184 91zM273 611q-61 0 -86 -67q-18 -52 -18 -193q0 -152 22 -199q26 -55 82 -55q61 0 86 65q18 50 18 187q0 158 -22 205
q-26 57 -82 57z" />
    <glyph glyph-name="one" unicode="1" horiz-adv-x="556" 
d="M238 489h-170v93q184 0 217 127h93v-709h-140v489z" />
    <glyph glyph-name="two" unicode="2" horiz-adv-x="556" 
d="M512 125v-125h-482q6 116 57 182q34 44 107 94q125 89 156 131q25 35 25 89q0 84 -61 107q-18 7 -39 7q-76 0 -96 -77q-5 -22 -5 -48v-23h-134q-1 11 -1 25q0 155 111 211q52 26 122 26q140 0 205 -93q38 -55 38 -132q0 -85 -50 -144q-34 -41 -109 -96
q-104 -76 -127 -106q-9 -12 -17 -28h300z" />
    <glyph glyph-name="three" unicode="3" horiz-adv-x="556" 
d="M217 317v94h12q124 0 124 107q0 77 -64 91q-11 2 -24 2q-61 0 -84 -45q-1 -2 -2 -5q-10 -25 -11 -75h-130v12q0 95 41 146q62 80 189 80q134 0 193 -84q32 -46 32 -109q0 -84 -72 -137l-21 -14q103 -50 114 -148q2 -13 2 -28q0 -126 -96 -187l-35 -18q-52 -22 -117 -22
q-138 0 -201 95q-37 56 -38 136h136q6 -111 106 -111q62 0 91 51q14 25 14 56q0 66 -52 96q-12 6 -25 10q-28 7 -82 7z" />
    <glyph glyph-name="four" unicode="4" horiz-adv-x="556" 
d="M522 273v-116h-74v-157h-140v157h-284v118l259 434h165v-436h74zM308 273v303l-185 -303h185z" />
    <glyph glyph-name="five" unicode="5" horiz-adv-x="556" 
d="M489 709v-125h-293l-23 -148q57 43 123 43q114 0 176 -89q45 -64 45 -156q0 -132 -92 -204q-67 -53 -164 -53q-127 0 -192 83q-41 52 -42 125h138q14 -83 98 -88q76 0 103 70q11 28 11 64q0 100 -68 128l-28 8q-9 1 -18 1q-67 0 -90 -54h-126l63 395h379z" />
    <glyph glyph-name="six" unicode="6" horiz-adv-x="556" 
d="M507 548h-130q-22 54 -66 61q-9 2 -21 2q-72 0 -100 -72l-9 -30q-6 -30 -9 -105q54 57 121 62q9 1 20 1q108 0 165 -85q41 -60 41 -145q0 -136 -87 -208q-62 -52 -150 -52q-111 0 -178 77q-12 13 -21 28q-51 81 -51 255q0 169 50 261q4 8 9 16q63 104 190 110h13
q112 0 172 -72l7 -9q25 -36 34 -95zM279 357q-66 0 -95 -62q-14 -30 -14 -70q0 -79 53 -113q25 -15 55 -15q60 0 91 58q17 32 17 73q0 86 -57 117q-22 12 -50 12z" />
    <glyph glyph-name="seven" unicode="7" horiz-adv-x="556" 
d="M528 709v-110q-172 -208 -225 -407q-23 -89 -29 -192h-141q24 192 80 320l13 27q35 77 115 187q25 32 41 50h-353v125h499z" />
    <glyph glyph-name="eight" unicode="8" horiz-adv-x="556" 
d="M409 386q96 -51 112 -136q4 -21 4 -46q0 -115 -90 -179q-66 -48 -161 -48q-132 0 -202 85q-50 59 -50 142q0 102 78 159q17 12 38 23q-81 43 -91 120q-1 12 -1 25q0 96 81 151q62 42 147 42q117 0 182 -73l20 -27q22 -37 25 -81v-11q0 -73 -46 -116q-14 -13 -46 -30z
M275 611q-69 0 -96 -49q-10 -20 -10 -43q0 -58 53 -83q24 -11 53 -11q65 0 93 47q12 21 12 46q0 58 -53 82q-22 11 -52 11zM273 330q-73 0 -100 -61q-11 -25 -11 -57q0 -78 60 -105q23 -10 51 -10q73 0 101 58q11 25 11 55q0 84 -63 111q-22 9 -49 9z" />
    <glyph glyph-name="nine" unicode="9" horiz-adv-x="556" 
d="M38 165h135q4 -49 53 -64q15 -5 33 -5q117 0 117 202q-31 -35 -44 -44q-36 -26 -92 -26q-110 0 -169 90q-43 64 -43 156q0 130 88 200q62 50 151 50q131 0 200 -116q49 -81 49 -238q0 -174 -54 -275q-2 -5 -5 -9q-64 -110 -202 -110q-109 0 -172 72q-43 50 -45 117z
M263 610q-66 0 -91 -68l-9 -35q-2 -15 -2 -31q0 -93 60 -122q20 -10 44 -10q65 0 94 61q14 30 14 69q0 93 -61 125q-22 11 -49 11z" />
    <glyph glyph-name="colon" unicode=":" horiz-adv-x="333" 
d="M263 146v-146h-150v146h150zM263 520v-146h-150v146h150z" />
    <glyph glyph-name="semicolon" unicode=";" horiz-adv-x="333" 
d="M113 146h150v-137q0 -90 -34 -128q-9 -9 -20 -18q-39 -30 -96 -37v56q76 16 85 92q1 11 1 23v3h-86v146zM263 520v-146h-150v146h150z" />
    <glyph glyph-name="less" unicode="&#x3c;" horiz-adv-x="584" 
d="M529 474v-109l-382 -133l382 -131v-111l-489 182v121z" />
    <glyph glyph-name="equal" unicode="=" horiz-adv-x="584" 
d="M534 411v-119h-484v119h484zM534 171v-119h-484v119h484z" />
    <glyph glyph-name="greater" unicode="&#x3e;" horiz-adv-x="584" 
d="M40 -10v109l382 133l-382 131v111l489 -182v-121z" />
    <glyph glyph-name="question" unicode="?" horiz-adv-x="611" 
d="M369 201h-124l2 48q8 65 67 123q13 13 30 27q56 46 66 74q5 15 5 38q0 66 -49 98q-25 17 -56 17q-61 0 -92 -58q-18 -33 -18 -76v-9v-2h-136q1 108 42 166q2 4 5 8q65 89 196 89q130 0 200 -85l20 -31q29 -51 29 -114q0 -78 -43 -128l-29 -29q-20 -17 -48 -37
q-48 -34 -58 -54q-9 -19 -9 -65zM385 146v-146h-150v146h150z" />
    <glyph glyph-name="at" unicode="@" horiz-adv-x="975" 
d="M644 508h90l-78 -280q-8 -30 -8 -42q0 -41 37 -48q6 -1 12 -1q51 0 103 63l7 9q51 71 51 161q0 118 -98 206q-104 92 -249 92q-175 0 -284 -126q-92 -107 -102 -249q-1 -13 -1 -27q0 -153 118 -245q104 -81 244 -81q116 0 207 41l28 -73q-101 -46 -237 -46
q-185 0 -306 95q-118 92 -145 237q-6 35 -6 70q0 137 86 266q26 39 57 71q139 144 346 144q190 0 320 -125q111 -108 111 -265q0 -121 -82 -215q-75 -84 -168 -84q-51 0 -89 26q-25 18 -35 45q0 2 -1 4q-57 -69 -138 -75h-12q-79 0 -128 64q-36 47 -36 107q0 98 63 186
q6 7 11 14q60 75 151 89q15 2 31 2q75 0 109 -63q3 -4 5 -9zM511 447q-61 0 -110 -67q-46 -62 -46 -136q0 -62 43 -92q21 -15 46 -15q44 0 84 42q2 3 4 5q49 57 61 134q2 14 2 27q0 77 -53 97l-25 5h-6z" />
    <glyph glyph-name="A" unicode="A" 
d="M501 147h-273l-49 -147h-153l259 729h166l252 -729h-154zM460 272l-95 285l-95 -285h190z" />
    <glyph glyph-name="B" unicode="B" 
d="M82 0v729h325q110 0 172 -53q60 -52 66 -127v-12q0 -72 -63 -124l-37 -26q121 -71 121 -177q0 -79 -54 -139l-18 -18q-63 -53 -184 -53h-328zM232 604v-165h163q101 7 106 82q0 78 -95 83h-11h-163zM232 314v-189h179q108 5 111 94q0 95 -111 95h-179z" />
    <glyph glyph-name="C" unicode="C" 
d="M682 482h-143q-12 52 -33 78q-42 53 -123 53q-115 0 -163 -111q-19 -45 -24 -105q-2 -20 -2 -41q0 -171 94 -229q39 -24 90 -24q111 0 148 90q10 25 13 56h146q-8 -148 -122 -222q-78 -50 -189 -50q-172 0 -261 128q-69 100 -69 253q0 208 120 310q86 73 214 73
q161 0 248 -106l7 -9q42 -55 49 -144z" />
    <glyph glyph-name="D" unicode="D" 
d="M77 0v729h285q147 0 215 -68q8 -8 15 -16q89 -106 89 -280q0 -176 -89 -280q-66 -80 -207 -85h-23h-285zM227 125h135q169 0 169 239q0 240 -169 240h-135v-479z" />
    <glyph glyph-name="E" unicode="E" horiz-adv-x="667" 
d="M229 314v-189h395v-125h-545v729h527v-125h-377v-165h349v-125h-349z" />
    <glyph glyph-name="F" unicode="F" horiz-adv-x="611" 
d="M224 314v-314h-150v729h512v-125h-362v-165h319v-125h-319z" />
    <glyph glyph-name="G" unicode="G" horiz-adv-x="778" 
d="M711 392v-394h-90l-18 96q-68 -100 -174 -114q-22 -3 -46 -3q-149 0 -245 109q-96 108 -96 273q0 183 111 289q96 93 242 93q166 0 254 -101l24 -32q31 -50 38 -112h-141q-17 49 -45 73q-50 44 -129 44q-123 0 -175 -108q-29 -59 -29 -144q0 -133 79 -206q54 -50 129 -50
q87 0 145 65q2 2 4 5q31 36 36 92h-166v125h292z" />
    <glyph glyph-name="H" unicode="H" 
d="M507 331h-289v-331h-150v729h150v-273h288v273h151v-729h-150v331z" />
    <glyph glyph-name="I" unicode="I" horiz-adv-x="278" 
d="M213 729v-729h-150v729h150z" />
    <glyph glyph-name="J" unicode="J" horiz-adv-x="556" 
d="M336 729h150v-539q0 -146 -119 -193q-49 -20 -115 -20q-103 0 -167 58q-57 53 -61 145v18v72h150v-70q0 -80 54 -92q12 -3 27 -3q73 0 80 70q1 7 1 15v539z" />
    <glyph glyph-name="K" unicode="K" 
d="M224 244v-244h-150v729h150v-320l285 320h177l-291 -314l322 -415h-179l-239 322z" />
    <glyph glyph-name="L" unicode="L" horiz-adv-x="611" 
d="M230 729v-604h349v-125h-499v729h150z" />
    <glyph glyph-name="M" unicode="M" horiz-adv-x="833" 
d="M216 568v-568h-150v729h224l132 -580l128 580h226v-729h-150v568l-129 -568h-150z" />
    <glyph glyph-name="N" unicode="N" 
d="M511 0l-293 504v-504h-150v729h154l289 -496v496h150v-729h-150z" />
    <glyph glyph-name="O" unicode="O" horiz-adv-x="778" 
d="M390 741q156 0 250 -101q98 -105 102 -273v-13q0 -133 -71 -237q-14 -21 -31 -39q-94 -101 -249 -101t-249 101q-90 96 -101 247q-1 17 -1 34q0 157 88 265l14 16q93 101 248 101zM391 613q-108 0 -163 -94l-18 -38q-20 -54 -20 -122q0 -144 82 -213q50 -41 119 -41
q105 0 161 92q40 65 40 158q0 154 -87 221q-48 37 -114 37z" />
    <glyph glyph-name="P" unicode="P" horiz-adv-x="667" 
d="M226 260v-260h-150v729h322q177 0 222 -135l10 -42q3 -23 3 -49q0 -140 -91 -204l-31 -19q-44 -20 -98 -20h-187zM226 385h140q109 0 116 94q1 7 1 15q0 100 -96 109q-10 1 -21 1h-140v-219z" />
    <glyph glyph-name="Q" unicode="Q" horiz-adv-x="778" 
d="M665 103l80 -76l-76 -81l-86 81q-83 -50 -189 -50q-155 0 -249 101q-89 96 -101 244q-1 18 -1 37q0 151 83 259q9 11 19 22q94 101 249 101t249 -101q87 -94 100 -238q2 -20 2 -41q0 -131 -59 -228q-10 -16 -21 -30zM480 278l82 -78q33 66 33 158q0 148 -84 216
q-49 39 -117 39q-108 0 -163 -94l-18 -38q-20 -54 -20 -122q0 -144 82 -213q50 -41 118 -41q52 0 88 19l-77 73z" />
    <glyph glyph-name="R" unicode="R" 
d="M230 289v-289h-150v729h391q92 0 141 -50q55 -57 55 -147q0 -132 -123 -180q57 -25 73 -46q22 -30 26 -130l2 -89q0 -40 28 -57q2 -2 4 -3v-27h-161q-21 38 -23 93v32q0 29 1 48q1 13 1 29q0 73 -61 84q-14 3 -32 3h-172zM230 414h181q57 0 79 19q27 24 27 78
q0 51 -27 74q-28 18 -79 19h-181v-190z" />
    <glyph glyph-name="S" unicode="S" horiz-adv-x="667" 
d="M607 507h-140q-7 101 -125 113q-13 1 -28 1q-90 0 -117 -53l-8 -22q-1 -7 -1 -15q0 -46 42 -67q30 -15 96 -28l114 -22q145 -28 180 -119q13 -35 13 -82q0 -141 -123 -201q-72 -35 -176 -35q-215 0 -279 142q-20 43 -23 99h146q6 -100 117 -118q22 -3 47 -3q108 0 138 60
q9 17 9 38q0 58 -58 84q-29 13 -79 22l-102 20q-144 27 -184 100q-21 38 -21 96q0 143 125 197q63 27 151 27q160 0 235 -83q51 -57 51 -151z" />
    <glyph glyph-name="T" unicode="T" horiz-adv-x="611" 
d="M385 604v-604h-150v604h-221v125h584v-125h-213z" />
    <glyph glyph-name="U" unicode="U" 
d="M504 729h150v-494q0 -120 -71 -184q-82 -74 -218 -74t-218 74q-71 64 -71 184v494h150v-494q10 -126 139 -130q135 7 139 130v494z" />
    <glyph glyph-name="V" unicode="V" horiz-adv-x="667" 
d="M397 0h-127l-246 729h151l162 -549l159 549h151z" />
    <glyph glyph-name="W" unicode="W" horiz-adv-x="944" 
d="M730 0h-135l-122 569l-119 -569h-135l-206 729h159l113 -546l113 546h148l118 -547l109 547h159z" />
    <glyph glyph-name="X" unicode="X" horiz-adv-x="667" 
d="M419 372l234 -372h-178l-140 253l-139 -253h-174l230 367l-222 362h178l128 -240l134 240h174z" />
    <glyph glyph-name="Y" unicode="Y" horiz-adv-x="667" 
d="M419 270v-270h-150v270l-242 459h167l149 -322l139 322h168z" />
    <glyph glyph-name="Z" unicode="Z" horiz-adv-x="611" 
d="M578 729v-125l-372 -479h372v-125h-548v125l373 479h-373v125h548z" />
    <glyph glyph-name="bracketleft" unicode="[" horiz-adv-x="333" 
d="M308 729v-102h-112v-725h112v-102h-242v929h242z" />
    <glyph glyph-name="backslash" unicode="\" horiz-adv-x="278" 
d="M55 714l234 -728h-67l-234 728h67z" />
    <glyph glyph-name="bracketright" unicode="]" horiz-adv-x="333" 
d="M18 -200v102h112v725h-112v102h242v-929h-242z" />
    <glyph glyph-name="asciicircum" unicode="^" horiz-adv-x="584" 
d="M522 270h-113l-121 300l-115 -300h-112l165 425h125z" />
    <glyph glyph-name="underscore" unicode="_" horiz-adv-x="556" 
d="M578 -120v-69h-600v69h600z" />
    <glyph glyph-name="grave" unicode="`" horiz-adv-x="333" 
d="M17 757h126l70 -150h-70z" />
    <glyph glyph-name="a" unicode="a" horiz-adv-x="556" 
d="M524 17v-17h-152q-16 24 -16 54q-74 -77 -164 -77q-77 0 -126 51q-38 41 -38 111q0 143 159 170l56 10q68 11 83 18q1 1 5 3q24 13 24 42q0 54 -81 54q-68 0 -87 -32l-9 -24l-3 -18h-135q13 187 231 187q221 0 221 -166v-300q0 -34 26 -60zM355 217v38q-19 -9 -59 -17
l-48 -9q-66 -14 -77 -50l-3 -24q0 -49 49 -62q12 -3 27 -3q87 0 106 83q5 20 5 44z" />
    <glyph glyph-name="b" unicode="b" horiz-adv-x="611" 
d="M59 729h140v-259q50 79 149 79q85 0 146 -60q13 -13 23 -27q58 -84 58 -199q0 -137 -79 -221q-63 -65 -148 -65q-99 0 -149 78v-55h-140v729zM317 432q-66 0 -99 -71l-12 -35q-7 -29 -7 -61q0 -109 60 -152q25 -19 58 -19q64 0 98 69q20 43 20 99q0 102 -56 148
q-28 22 -62 22z" />
    <glyph glyph-name="c" unicode="c" horiz-adv-x="556" 
d="M522 338h-134q-17 77 -61 92l-28 6h-11q-62 0 -87 -46q-27 -51 -27 -131q0 -122 66 -157q22 -12 48 -12q60 0 86 55q8 18 14 42h134q-13 -124 -109 -179q-55 -31 -126 -31q-158 0 -220 124q-33 66 -33 158q0 187 119 257q57 33 136 33q138 0 199 -98q19 -33 28 -73
q4 -19 6 -40z" />
    <glyph glyph-name="d" unicode="d" horiz-adv-x="611" 
d="M405 0v55q-52 -78 -149 -78q-84 0 -146 59q-13 13 -23 27q-58 84 -58 199q0 137 79 221q62 66 148 66q98 0 149 -79v259h140v-729h-140zM287 432q-66 0 -98 -71q-20 -42 -20 -99q0 -103 57 -147q27 -21 61 -21q67 0 99 71q19 41 19 95q0 109 -59 153q-26 19 -59 19z" />
    <glyph glyph-name="e" unicode="e" horiz-adv-x="556" 
d="M524 226h-362q3 -68 20 -95q31 -47 92 -47q75 0 104 61q2 3 3 7h138q-29 -101 -126 -147q-56 -28 -124 -28q-142 0 -207 110q-40 69 -40 169q0 173 104 249q60 44 146 44q125 0 195 -90q21 -27 34 -60q2 -4 3 -7q21 -61 21 -142q0 -12 -1 -24zM164 319h215q-4 50 -22 78
q-32 45 -87 45q-92 0 -106 -123z" />
    <glyph glyph-name="f" unicode="f" horiz-adv-x="333" 
d="M313 529v-93h-83v-436h-140v436h-76v93h76v65q0 135 138 135q41 0 80 -3v-105q-18 3 -40 3q-38 0 -38 -42v-53h83z" />
    <glyph glyph-name="g" unicode="g" horiz-adv-x="611" 
d="M408 540h133v-558q0 -130 -122 -178q-38 -15 -86 -20q-23 -2 -49 -2q-122 0 -186 52q-52 43 -53 101h145q17 -63 99 -63q74 0 105 55q14 24 14 55v73q-56 -63 -110 -74q-19 -4 -43 -4q-115 0 -176 99q-45 74 -45 181q0 141 79 226q61 66 145 66q87 0 146 -86l4 -6v83z
M288 432q-65 0 -96 -73q-18 -43 -18 -100q0 -102 55 -145q26 -20 57 -20q70 0 104 70q20 40 20 95q0 98 -55 147q-30 26 -67 26z" />
    <glyph glyph-name="h" unicode="h" horiz-adv-x="611" 
d="M67 729h140v-267q58 87 158 87q72 0 121 -41q55 -46 55 -146v-362h-140v330q0 43 -16 67q-24 33 -70 33q-66 0 -95 -52q-13 -24 -13 -54v-324h-140v729z" />
    <glyph glyph-name="i" unicode="i" horiz-adv-x="278" 
d="M207 540v-540h-140v540h140zM207 729v-125h-140v125h140z" />
    <glyph glyph-name="j" unicode="j" horiz-adv-x="278" 
d="M210 540v-634q0 -95 -64 -116q-24 -8 -59 -8q-36 0 -83 5v112q13 -4 25 -4q36 0 40 28q1 6 1 14v603h140zM210 729v-125h-140v125h140z" />
    <glyph glyph-name="k" unicode="k" horiz-adv-x="556" 
d="M199 330l177 210h159l-184 -204l197 -336h-164l-129 238l-56 -61v-177h-140v729h140v-399z" />
    <glyph glyph-name="l" unicode="l" horiz-adv-x="278" 
d="M207 729v-729h-140v729h140z" />
    <glyph glyph-name="m" unicode="m" horiz-adv-x="889" 
d="M60 540h139v-67q54 65 116 74q15 2 32 2q96 0 140 -68q4 -6 7 -12q66 77 158 80q118 0 157 -88q15 -34 15 -79v-382h-140v360q0 53 -49 67q-12 3 -27 3q-70 0 -90 -64q-6 -19 -6 -42v-324h-140v360q0 53 -49 67q-12 3 -27 3q-70 0 -90 -64q-6 -19 -6 -42v-324h-140v540z
" />
    <glyph glyph-name="n" unicode="n" horiz-adv-x="611" 
d="M63 540h140v-78q55 82 149 87h13q127 0 167 -101q14 -38 14 -86v-362h-140v333q0 97 -90 97q-74 0 -102 -56q-11 -22 -11 -50v-324h-140v540z" />
    <glyph glyph-name="o" unicode="o" horiz-adv-x="611" 
d="M301 549q165 0 232 -125q36 -68 36 -165q0 -158 -103 -233q-67 -49 -164 -49q-156 0 -225 115q-42 70 -42 171q0 166 107 241q65 45 159 45zM302 436q-73 0 -107 -74q-20 -42 -20 -99q0 -106 61 -152q29 -21 66 -21q71 0 106 71q21 43 21 100q0 113 -64 156
q-33 17 -63 19z" />
    <glyph glyph-name="p" unicode="p" horiz-adv-x="611" 
d="M198 540v-80q50 89 150 89q81 0 143 -56q14 -14 25 -29q56 -85 58 -202q0 -139 -79 -222q-62 -64 -147 -64q-100 0 -150 88v-282h-140v758h140zM316 432q-67 0 -99 -72q-19 -42 -19 -98q0 -106 58 -149q27 -20 60 -20q65 0 98 69q20 42 20 98q0 109 -59 153
q-26 19 -59 19z" />
    <glyph glyph-name="q" unicode="q" horiz-adv-x="611" 
d="M404 540h140v-758h-140v282q-49 -88 -151 -88q-80 0 -141 55q-15 14 -26 30q-55 75 -58 191v10q0 140 80 223q61 64 146 64q100 0 150 -89v80zM286 432q-67 0 -99 -72q-19 -42 -19 -98q0 -106 58 -149q27 -20 60 -20q67 0 99 71q19 41 19 95q0 113 -61 155q-25 18 -57 18
z" />
    <glyph glyph-name="r" unicode="r" horiz-adv-x="389" 
d="M63 540h140v-106q37 90 114 110q18 5 36 5q9 0 17 -1v-142q-25 4 -44 4q-123 0 -123 -123v-287h-140v540z" />
    <glyph glyph-name="s" unicode="s" horiz-adv-x="556" 
d="M505 366h-135q-1 73 -101 73q-64 0 -78 -35l-3 -15q0 -22 24 -33q9 -4 25 -9l177 -51q106 -31 106 -136q0 -80 -60 -131l-4 -4q-60 -48 -172 -48q-232 0 -253 157q-2 11 -2 23h137q8 -36 27 -51q29 -19 83 -19q90 0 102 42q2 5 2 11q0 26 -31 38q-7 3 -16 6l-167 52
q-62 20 -85 42l-3 3q-30 33 -30 88q0 108 96 154q52 26 126 26q152 0 209 -91q25 -39 26 -92z" />
    <glyph glyph-name="t" unicode="t" horiz-adv-x="333" 
d="M301 529v-93h-78v-294q0 -46 18 -55q10 -4 28 -4q11 0 32 3v-98q-34 -11 -81 -11q-137 0 -137 127v332h-69v93h69v145h140v-145h78z" />
    <glyph glyph-name="u" unicode="u" horiz-adv-x="611" 
d="M541 0h-140v64q-55 -82 -149 -87h-13q-127 0 -167 101q-14 38 -14 86v376h140v-347q0 -97 90 -97q74 0 102 56q11 22 11 50v338h140v-540z" />
    <glyph glyph-name="v" unicode="v" horiz-adv-x="556" 
d="M350 0h-147l-189 540h148l117 -395l109 395h148z" />
    <glyph glyph-name="w" unicode="w" horiz-adv-x="778" 
d="M613 0h-145l-81 381l-86 -381h-144l-152 540h145l86 -378l82 378h140l81 -378l82 378h145z" />
    <glyph glyph-name="x" unicode="x" horiz-adv-x="556" 
d="M355 272l180 -272h-168l-91 168l-92 -168h-168l180 272l-176 268h168l88 -163l87 163h168z" />
    <glyph glyph-name="y" unicode="y" horiz-adv-x="556" 
d="M394 540h144l-222 -639q-25 -69 -55 -90q-10 -7 -24 -13q-41 -17 -101 -17q-22 0 -50 4v105q22 -6 37 -6q51 0 75 44q12 21 12 46v3v1l-201 562h154l119 -393z" />
    <glyph glyph-name="z" unicode="z" horiz-adv-x="500" 
d="M459 540v-113l-265 -314h274v-113h-447v113l267 314h-249v113h420z" />
    <glyph glyph-name="braceleft" unicode="{" horiz-adv-x="389" 
d="M317 729v-99h-37q-42 -8 -45 -57v-195q0 -68 -34 -90l-25 -11q-16 -5 -38 -8q69 -11 86 -47l8 -25q3 -16 3 -38v-195q0 -54 25 -62q8 -3 20 -3h37v-99h-76q-70 0 -104 62q-19 34 -19 78v210q0 48 -23 63l-8 4q-14 5 -46 5l-4 1v92h4h12q60 1 64 52q1 5 1 11v211
q0 83 58 121q28 19 65 19h76z" />
    <glyph glyph-name="bar" unicode="|" horiz-adv-x="280" 
d="M180 729v-929h-80v929h80z" />
    <glyph glyph-name="braceright" unicode="}" horiz-adv-x="389" 
d="M72 -200v99h37q42 8 45 57v195q0 68 34 90q21 13 63 19q-69 11 -86 47q-11 21 -11 63v195q0 54 -25 62q-8 3 -20 3h-37v99h76q70 0 104 -62q19 -34 19 -78v-210q0 -48 23 -63l8 -4q14 -5 46 -5l4 -1v-92h-4h-12q-60 -1 -64 -52q-1 -5 -1 -11v-211q0 -83 -58 -121
q-28 -19 -65 -19h-76z" />
    <glyph glyph-name="asciitilde" unicode="~" horiz-adv-x="584" 
d="M441 288h78q-9 -146 -127 -146q-45 0 -83 26l-57 42q-32 24 -61 24q-36 0 -48 -27q-4 -11 -5 -38h-78q7 145 127 145q48 0 83 -25l57 -42q34 -25 61 -25q36 0 48 27q4 11 5 39z" />
    <glyph glyph-name="exclamdown" unicode="&#xa1;" horiz-adv-x="333" 
d="M66 -186v210l42 309h67l41 -309v-210h-150zM66 394v146h150v-146h-150z" />
    <glyph glyph-name="cent" unicode="&#xa2;" horiz-adv-x="556" 
d="M303 435v-344q54 8 76 67q5 13 9 29h134q-10 -111 -96 -170q-53 -37 -123 -40v-101h-44v102q-133 9 -190 123q-33 66 -33 158q0 208 143 269q36 15 80 20v86h44v-85q114 -2 176 -87q38 -52 43 -124h-134q-16 77 -67 93q-8 3 -18 4zM259 94v339q-83 -22 -83 -173
q0 -141 83 -166z" />
    <glyph glyph-name="sterling" unicode="&#xa3;" horiz-adv-x="556" 
d="M375 371v-55h-122q15 -32 15 -59q0 -65 -66 -128q-21 -20 -50 -43q82 36 112 37q21 0 64 -11q37 -10 63 -10q47 0 105 29l41 -109q-76 -45 -145 -45q-32 0 -99 16q-64 16 -98 16q-49 0 -109 -30l-55 101q83 57 101 102q9 21 9 49q0 34 -21 85h-89v55h60q-47 82 -51 117
q-2 12 -2 28q0 80 61 138q6 6 13 12q64 49 164 49q148 0 208 -93l10 -17q21 -41 28 -121h-132l-1 11q-7 55 -29 77l-6 5q-30 27 -77 27q-61 0 -87 -47l-9 -24q-2 -10 -2 -20q0 -21 19 -61l8 -16q23 -47 30 -65h139z" />
    <glyph glyph-name="currency" unicode="&#xa4;" horiz-adv-x="556" 
d="M388 528l73 73l69 -69l-75 -75q27 -54 27 -103q0 -57 -29 -108l77 -76l-69 -68l-75 75q-52 -28 -88 -30h-12q-69 0 -111 31l-79 -78l-68 69l78 77q-30 55 -30 106q0 59 29 105l-79 79l69 68l77 -77q51 31 109 31q59 0 107 -30zM280 460q-59 0 -91 -49q-17 -26 -17 -59
q0 -58 49 -90q26 -17 58 -17q57 0 89 48q18 27 18 60q0 56 -47 89q-27 18 -59 18z" />
    <glyph glyph-name="yen" unicode="&#xa5;" horiz-adv-x="556" 
d="M497 351v-59h-142v-53h142v-59h-142v-180h-140v180h-145v59h145v53h-145v59h138l-203 353h139l139 -254l134 254h135l-192 -353h137z" />
    <glyph glyph-name="brokenbar" unicode="&#xa6;" horiz-adv-x="280" 
d="M180 729v-389h-80v389h80zM180 189v-389h-80v389h80z" />
    <glyph glyph-name="section" unicode="&#xa7;" horiz-adv-x="556" 
d="M473 544h-127q-9 72 -68 77h-10q-49 0 -61 -35q-3 -7 -3 -16q0 -28 39 -55q18 -12 51 -30l127 -70q97 -54 97 -153q0 -80 -63 -121q-13 -9 -31 -17q70 -49 70 -134q0 -103 -84 -156q-56 -35 -134 -35q-209 0 -211 201h131v-10q3 -43 19 -58q22 -22 62 -22q54 0 71 37
q5 11 5 24q0 27 -18 45q-10 10 -52 33l-171 100q-79 46 -79 132q0 60 40 102q19 20 52 45q-28 28 -34 37q-27 35 -27 86q0 88 78 137q55 35 131 35q107 0 161 -60l13 -16q23 -38 26 -103zM337 306l-143 76q-41 -25 -42 -65q0 -35 33 -58q9 -6 20 -12l147 -80q46 32 46 65
q0 35 -34 58z" />
    <glyph glyph-name="dieresis" unicode="&#xa8;" horiz-adv-x="333" 
d="M128 743v-122h-110v122h110zM314 743v-122h-110v122h110z" />
    <glyph glyph-name="copyright" unicode="&#xa9;" horiz-adv-x="737" 
d="M552 431h-90q-23 74 -93 78q-78 0 -104 -80q-7 -20 -9 -44q-1 -12 -1 -26q0 -112 70 -140q18 -8 41 -8q84 0 95 79q1 4 1 7h92q-5 -107 -93 -149q-42 -20 -97 -20q-116 0 -169 95q-32 57 -32 137q0 142 91 201q48 31 113 31q102 0 155 -70q26 -35 30 -91zM369 743
q150 0 260 -102q108 -101 121 -247q1 -17 1 -33q0 -155 -106 -265q-103 -108 -256 -117q-13 -1 -25 -1q-145 0 -255 102q-107 100 -121 244q-2 18 -2 37q0 150 103 260q102 109 248 121q16 1 32 1zM368 671q-125 0 -215 -91l-28 -33q-61 -83 -61 -186q0 -126 88 -218
q88 -91 213 -93q130 0 220 92q88 90 88 219t-91 220q-89 90 -214 90z" />
    <glyph glyph-name="ordfeminine" unicode="&#xaa;" horiz-adv-x="370" 
d="M321 340v-78h-284v78h284zM329 410v-10h-92q-9 11 -10 32q-43 -46 -98 -46q-65 0 -89 53q-9 20 -9 45q0 87 95 103l34 6q41 7 52 13q15 7 15 24q0 31 -49 31q-47 0 -56 -29l-3 -15h-78q2 112 135 112t133 -100v-179q0 -22 20 -40zM227 530v23q-11 -6 -35 -10l-29 -6
q-43 -9 -47 -35q-1 -4 -1 -9q0 -34 37 -38q4 -1 9 -1q56 0 65 58q1 9 1 18z" />
    <glyph glyph-name="guillemotleft" unicode="&#xab;" horiz-adv-x="556" 
d="M88 218v114l167 149v-117l-101 -89l101 -89v-114zM301 218v114l167 149v-117l-101 -89l101 -89v-114z" />
    <glyph glyph-name="logicalnot" unicode="&#xac;" horiz-adv-x="584" 
d="M40 375h504v-289h-77v212h-427v77z" />
    <glyph glyph-name="registered" unicode="&#xae;" horiz-adv-x="737" 
d="M288 313v-173h-96v443h238q89 0 113 -72l7 -32q1 -8 1 -17q0 -74 -70 -108q35 -16 44 -34l7 -24l5 -63l1 -38q0 -23 15 -32l4 -2v-21h-103q-14 34 -14 81q0 16 1 26v17q-4 48 -61 49h-92zM288 394h103q51 0 60 27q4 10 4 27q0 42 -31 51q-12 3 -33 3h-103v-108zM369 743
q150 0 260 -102q108 -101 121 -247q1 -17 1 -33q0 -155 -106 -265q-103 -108 -256 -117q-13 -1 -25 -1q-145 0 -255 102q-107 100 -121 244q-2 18 -2 37q0 150 103 260q102 109 248 121q16 1 32 1zM368 671q-125 0 -215 -91l-28 -33q-61 -83 -61 -186q0 -126 88 -218
q88 -91 213 -93q130 0 220 92q88 90 88 219t-91 220q-89 90 -214 90z" />
    <glyph glyph-name="macron" unicode="&#xaf;" horiz-adv-x="333" 
d="M315 719v-79h-299v79h299z" />
    <glyph glyph-name="degree" unicode="&#xb0;" horiz-adv-x="606" 
d="M303 686q74 0 119 -59q32 -41 32 -92q0 -76 -60 -121q-41 -31 -93 -31q-72 0 -118 59q-32 41 -32 93q0 74 60 120q40 31 92 31zM303 623q-50 0 -76 -42q-13 -22 -13 -47q0 -48 41 -74q22 -14 46 -14q52 0 78 44q12 20 12 45q0 48 -42 75q-21 13 -46 13z" />
    <glyph glyph-name="plusminus" unicode="&#xb1;" horiz-adv-x="584" 
d="M527 103v-119h-471v119h471zM527 432v-119h-176v-176h-119v176h-176v119h176v176h119v-176h176z" />
    <glyph glyph-name="twosuperior" unicode="&#xb2;" horiz-adv-x="351" 
d="M326 365v-81h-310q3 78 43 120q21 23 61 49q87 58 103 83q10 17 10 44q0 54 -46 63q-7 1 -15 1q-51 0 -59 -55q-1 -7 -1 -16q0 -2 2 -16h-92q-1 8 -1 18q0 111 100 137q25 6 56 6q121 0 145 -90q6 -20 6 -44q0 -56 -38 -95q-21 -21 -64 -51q-50 -35 -59 -43
q-9 -6 -28 -30h187z" />
    <glyph glyph-name="threesuperior" unicode="&#xb3;" horiz-adv-x="351" 
d="M134 471v62h11q75 0 75 58q0 43 -38 52q-7 2 -15 2q-38 0 -50 -28q-7 -14 -7 -46h-88q3 65 28 98q40 49 120 49q95 0 131 -61q14 -25 14 -56q0 -57 -52 -89q66 -32 66 -103q0 -85 -74 -120q-36 -18 -85 -18q-117 0 -147 89q-8 24 -8 54h92q4 -64 65 -66q43 0 58 37
q4 10 4 23q0 61 -84 63h-16z" />
    <glyph glyph-name="acute" unicode="&#xb4;" horiz-adv-x="333" 
d="M317 757l-126 -150h-70l70 150h126z" />
    <glyph glyph-name="mu" unicode="&#xb5;" horiz-adv-x="611" 
d="M192 -220h-134v760h140v-334q0 -51 18 -77q22 -33 66 -33q61 0 88 51q13 25 13 55v338h140v-390q0 -62 16 -70q5 -3 14 -3q7 0 20 4v-87q-33 -17 -70 -17q-54 0 -82 35q-6 8 -13 19q-49 -50 -102 -54h-14q-61 0 -100 38v-235z" />
    <glyph glyph-name="paragraph" unicode="&#xb6;" horiz-adv-x="556" 
d="M529 729v-72h-43v-848h-98v848h-63v-848h-98v458q-109 5 -168 91q-40 58 -40 137q0 87 51 155q58 79 156 79h303z" />
    <glyph glyph-name="periodcentered" unicode="&#xb7;" horiz-adv-x="278" 
d="M64 292h124v-123h-124v123z" />
    <glyph glyph-name="cedilla" unicode="&#xb8;" horiz-adv-x="333" 
d="M162 0h43l-29 -63q21 7 42 7q60 0 73 -48q3 -11 3 -23q0 -76 -90 -90q-18 -3 -39 -3q-55 0 -134 27q-2 0 -4 1l19 52q69 -30 105 -30q40 0 53 26q4 7 4 15q0 27 -34 33l-17 2q-24 0 -49 -12z" />
    <glyph glyph-name="onesuperior" unicode="&#xb9;" horiz-adv-x="351" 
d="M147 573h-107v61q117 0 138 75h64v-425h-95v289z" />
    <glyph glyph-name="ordmasculine" unicode="&#xba;" horiz-adv-x="365" 
d="M334 340v-78h-301v78h301zM183 729q112 0 147 -94q13 -35 13 -80q0 -107 -77 -149q-36 -20 -83 -20q-103 0 -142 82q-18 38 -18 89q0 113 80 154q35 18 80 18zM183 661q-48 0 -68 -52q-8 -23 -8 -51q0 -71 44 -96q15 -8 32 -8q48 0 67 52q9 22 9 50q0 75 -46 98
q-17 6 -30 7z" />
    <glyph glyph-name="guillemotright" unicode="&#xbb;" horiz-adv-x="556" 
d="M255 335v-115l-167 -148v117l101 89l-101 89v114zM462 335v-115l-167 -148v117l101 89l-101 89v114z" />
    <glyph glyph-name="onequarter" unicode="&#xbc;" horiz-adv-x="869" 
d="M147 573h-107v61q117 0 138 75h64v-425h-95v289zM593 715h87l-423 -735h-87zM850 168v-75h-46v-93h-95v93h-179v74l165 258h109v-257h46zM709 168v164l-106 -164h106z" />
    <glyph glyph-name="onehalf" unicode="&#xbd;" horiz-adv-x="869" 
d="M147 573h-107v61q117 0 138 75h64v-425h-95v289zM587 715h87l-423 -735h-87zM844 81v-81h-310q3 78 43 120q21 23 61 49q87 58 103 83q10 17 10 44q0 54 -46 63q-7 1 -15 1q-51 0 -59 -55l-1 -16q0 -2 2 -16h-92q-1 8 -1 18q0 111 100 137q25 6 56 6q121 0 145 -90
q6 -20 6 -44q0 -56 -38 -95q-21 -21 -64 -51q-46 -32 -59 -43q-9 -6 -28 -30h187z" />
    <glyph glyph-name="threequarters" unicode="&#xbe;" horiz-adv-x="869" 
d="M134 471v62h11q75 0 75 58q0 43 -38 52q-7 2 -15 2q-38 0 -50 -28q-7 -14 -7 -46h-88q3 65 28 98q40 49 120 49q95 0 131 -61q14 -25 14 -56q0 -57 -52 -89q66 -32 66 -103q0 -85 -74 -120q-36 -18 -85 -18q-117 0 -147 89q-8 24 -8 54h92q4 -64 65 -66q43 0 58 37
q4 10 4 23q0 61 -84 63h-16zM625 715h87l-423 -735h-87zM850 168v-75h-46v-93h-95v93h-179v74l165 258h109v-257h46zM709 168v164l-106 -164h106z" />
    <glyph glyph-name="questiondown" unicode="&#xbf;" horiz-adv-x="611" 
d="M239 339h124l-2 -48q-8 -65 -68 -123q-13 -13 -30 -27q-56 -46 -66 -74q-5 -15 -5 -38q0 -66 49 -98q25 -17 56 -17q62 0 94 59q17 33 17 75v9v2h136q-1 -108 -42 -166q-2 -4 -5 -8q-65 -89 -196 -89t-201 86q-49 60 -49 144q0 78 44 128q25 30 77 66q48 34 58 55
q9 19 9 64zM223 394v146h150v-146h-150z" />
    <glyph glyph-name="Agrave" unicode="&#xc0;" 
d="M221 936h126l70 -150h-70zM501 147h-273l-49 -147h-153l259 729h166l252 -729h-154zM460 272l-95 285l-95 -285h190z" />
    <glyph glyph-name="Aacute" unicode="&#xc1;" 
d="M510 935l-126 -150h-70l70 150h126zM501 147h-273l-49 -147h-153l259 729h166l252 -729h-154zM460 272l-95 285l-95 -285h190z" />
    <glyph glyph-name="Acircumflex" unicode="&#xc2;" 
d="M312 936h107l103 -150h-78l-82 100l-82 -100h-76zM501 147h-273l-49 -147h-153l259 729h166l252 -729h-154zM460 272l-95 285l-95 -285h190z" />
    <glyph glyph-name="Atilde" unicode="&#xc3;" 
d="M483 928h63q-6 -127 -95 -127q-24 0 -55 12l-71 26q-18 6 -30 6q-30 0 -38 -35l-2 -10h-63q5 98 66 119q13 5 28 5q20 0 56 -13l71 -25q14 -6 34 -6q32 0 36 48zM501 147h-273l-49 -147h-153l259 729h166l252 -729h-154zM460 272l-95 285l-95 -285h190z" />
    <glyph glyph-name="Adieresis" unicode="&#xc4;" 
d="M326 922v-122h-110v122h110zM512 922v-122h-110v122h110zM501 147h-273l-49 -147h-153l259 729h166l252 -729h-154zM460 272l-95 285l-95 -285h190z" />
    <glyph glyph-name="Aring" unicode="&#xc5;" 
d="M364 949q51 0 77 -44q12 -21 12 -47q0 -49 -42 -75q-22 -14 -48 -14q-51 0 -77 43q-13 22 -13 47q0 51 44 77q21 13 47 13zM364 901q-29 0 -40 -27q-3 -7 -3 -15q0 -28 26 -39q8 -3 17 -3q26 0 37 25q4 8 4 17q0 28 -26 39q-7 3 -15 3zM501 147h-273l-49 -147h-153
l259 729h166l252 -729h-154zM460 272l-95 285l-95 -285h190z" />
    <glyph glyph-name="AE" unicode="&#xc6;" horiz-adv-x="1000" 
d="M430 152h-223l-53 -152h-153l263 729h682v-125h-366v-165h339v-125h-339v-189h386v-125h-536v152zM430 277v327h-67l-114 -327h181z" />
    <glyph glyph-name="Ccedilla" unicode="&#xc7;" 
d="M379 -23l-19 -40q20 7 42 7q60 0 73 -48q3 -11 3 -23q0 -76 -90 -90q-18 -3 -39 -3q-55 0 -134 27q-2 0 -4 1l19 52q69 -30 105 -30q40 0 53 26q4 7 4 15q0 26 -33 33q-8 2 -18 2q-24 0 -49 -12l43 83q-100 17 -149 53q-14 10 -31 26q-111 106 -111 302q0 208 120 310
q86 73 214 73q161 0 248 -106l7 -9q42 -55 49 -144h-143q-12 52 -33 78q-42 53 -123 53q-115 0 -163 -111q-19 -45 -24 -105q-2 -20 -2 -41q0 -171 94 -229q39 -24 90 -24q111 0 148 90q10 25 13 56h146q-7 -153 -127 -225q-74 -45 -179 -47z" />
    <glyph glyph-name="Egrave" unicode="&#xc8;" horiz-adv-x="667" 
d="M207 936h126l70 -150h-70zM229 314v-189h395v-125h-545v729h527v-125h-377v-165h349v-125h-349z" />
    <glyph glyph-name="Eacute" unicode="&#xc9;" horiz-adv-x="667" 
d="M480 936l-126 -150h-70l70 150h126zM229 314v-189h395v-125h-545v729h527v-125h-377v-165h349v-125h-349z" />
    <glyph glyph-name="Ecircumflex" unicode="&#xca;" horiz-adv-x="667" 
d="M294 936h107l103 -150h-78l-82 100l-82 -100h-76zM229 314v-189h395v-125h-545v729h527v-125h-377v-165h349v-125h-349z" />
    <glyph glyph-name="Edieresis" unicode="&#xcb;" horiz-adv-x="667" 
d="M306 922v-122h-110v122h110zM492 922v-122h-110v122h110zM229 314v-189h395v-125h-545v729h527v-125h-377v-165h349v-125h-349z" />
    <glyph glyph-name="Igrave" unicode="&#xcc;" horiz-adv-x="278" 
d="M-10 936h126l70 -150h-70zM213 729v-729h-150v729h150z" />
    <glyph glyph-name="Iacute" unicode="&#xcd;" horiz-adv-x="278" 
d="M290 936l-126 -150h-70l70 150h126zM213 729v-729h-150v729h150z" />
    <glyph glyph-name="Icircumflex" unicode="&#xce;" horiz-adv-x="278" 
d="M89 936h107l103 -150h-78l-82 100l-82 -100h-76zM213 729v-729h-150v729h150z" />
    <glyph glyph-name="Idieresis" unicode="&#xcf;" horiz-adv-x="278" 
d="M101 922v-122h-110v122h110zM287 922v-122h-110v122h110zM213 729v-729h-150v729h150z" />
    <glyph glyph-name="Eth" unicode="&#xd0;" 
d="M77 339h-77v80h77v310h285q143 0 210 -62l21 -22q77 -97 87 -246q1 -17 1 -34q0 -154 -75 -262q-6 -10 -13 -18q-60 -75 -187 -84q-21 -1 -44 -1h-285v339zM227 339v-214h135q90 0 127 51q1 1 2 3q46 65 46 185q0 121 -46 186q-43 52 -129 54h-135v-185h150v-80h-150z
" />
    <glyph glyph-name="Ntilde" unicode="&#xd1;" 
d="M484 928h63q-6 -127 -95 -127q-24 0 -55 12l-71 26q-18 6 -30 6q-30 0 -38 -35l-2 -10h-63q5 98 66 119q13 5 28 5q20 0 56 -13l71 -25q14 -6 34 -6q32 0 36 48zM511 0l-293 504v-504h-150v729h154l289 -496v496h150v-729h-150z" />
    <glyph glyph-name="Ograve" unicode="&#xd2;" horiz-adv-x="778" 
d="M254 936h126l70 -150h-70zM390 741q156 0 250 -101q98 -105 102 -273v-13q0 -133 -71 -237q-14 -21 -31 -39q-94 -101 -249 -101t-249 101q-90 96 -101 247q-1 17 -1 34q0 157 88 265l14 16q93 101 248 101zM391 613q-108 0 -163 -94l-18 -38q-20 -54 -20 -122
q0 -144 82 -213q50 -41 119 -41q105 0 161 92q40 65 40 158q0 154 -87 221q-48 37 -114 37z" />
    <glyph glyph-name="Oacute" unicode="&#xd3;" horiz-adv-x="778" 
d="M530 936l-126 -150h-70l70 150h126zM390 741q156 0 250 -101q98 -105 102 -273v-13q0 -133 -71 -237q-14 -21 -31 -39q-94 -101 -249 -101t-249 101q-90 96 -101 247q-1 17 -1 34q0 157 88 265l14 16q93 101 248 101zM391 613q-108 0 -163 -94l-18 -38q-20 -54 -20 -122
q0 -144 82 -213q50 -41 119 -41q105 0 161 92q40 65 40 158q0 154 -87 221q-48 37 -114 37z" />
    <glyph glyph-name="Ocircumflex" unicode="&#xd4;" horiz-adv-x="778" 
d="M340 936h107l103 -150h-78l-82 100l-82 -100h-76zM390 741q156 0 250 -101q98 -105 102 -273v-13q0 -133 -71 -237q-14 -21 -31 -39q-94 -101 -249 -101t-249 101q-90 96 -101 247q-1 17 -1 34q0 157 88 265l14 16q93 101 248 101zM391 613q-108 0 -163 -94l-18 -38
q-20 -54 -20 -122q0 -144 82 -213q50 -41 119 -41q105 0 161 92q40 65 40 158q0 154 -87 221q-48 37 -114 37z" />
    <glyph glyph-name="Otilde" unicode="&#xd5;" horiz-adv-x="778" 
d="M512 928h63q-6 -127 -95 -127q-24 0 -55 12l-71 26q-18 6 -30 6q-30 0 -38 -35l-2 -10h-63q5 98 66 119q13 5 28 5q20 0 56 -13l71 -25q14 -6 34 -6q32 0 36 48zM390 741q156 0 250 -101q98 -105 102 -273v-13q0 -133 -71 -237q-14 -21 -31 -39q-94 -101 -249 -101
t-249 101q-90 96 -101 247q-1 17 -1 34q0 157 88 265l14 16q93 101 248 101zM391 613q-108 0 -163 -94l-18 -38q-20 -54 -20 -122q0 -144 82 -213q50 -41 119 -41q105 0 161 92q40 65 40 158q0 154 -87 221q-48 37 -114 37z" />
    <glyph glyph-name="Odieresis" unicode="&#xd6;" horiz-adv-x="778" 
d="M353 922v-122h-110v122h110zM539 922v-122h-110v122h110zM390 741q156 0 250 -101q98 -105 102 -273v-13q0 -133 -71 -237q-14 -21 -31 -39q-94 -101 -249 -101t-249 101q-90 96 -101 247q-1 17 -1 34q0 157 88 265l14 16q93 101 248 101zM391 613q-108 0 -163 -94
l-18 -38q-20 -54 -20 -122q0 -144 82 -213q50 -41 119 -41q105 0 161 92q40 65 40 158q0 154 -87 221q-48 37 -114 37z" />
    <glyph glyph-name="multiply" unicode="&#xd7;" horiz-adv-x="584" 
d="M421 444l84 -84l-129 -129l128 -129l-84 -84l-128 129l-128 -128l-84 84l128 128l-129 128l84 85l129 -129z" />
    <glyph glyph-name="Oslash" unicode="&#xd8;" horiz-adv-x="778" 
d="M165 52l-83 -91l-51 46l86 95q-82 110 -82 257q0 154 85 260l18 21q94 101 250 101q131 0 222 -76l10 -8l83 92l52 -45l-89 -99q67 -92 73 -226q1 -11 1 -22q0 -145 -79 -250q-11 -16 -24 -29q-94 -101 -249 -101q-136 0 -223 75zM567 497l-311 -344q50 -48 132 -48
q109 0 164 96q38 65 38 160q0 75 -23 136zM214 209l314 346q-55 58 -140 58q-112 0 -167 -99q-36 -65 -36 -158q0 -83 29 -147z" />
    <glyph glyph-name="Ugrave" unicode="&#xd9;" 
d="M228 936h126l70 -150h-70zM504 729h150v-494q0 -120 -71 -184q-82 -74 -218 -74t-218 74q-71 64 -71 184v494h150v-494q10 -126 139 -130q135 7 139 130v494z" />
    <glyph glyph-name="Uacute" unicode="&#xda;" 
d="M504 936l-126 -150h-70l70 150h126zM504 729h150v-494q0 -120 -71 -184q-82 -74 -218 -74t-218 74q-71 64 -71 184v494h150v-494q10 -126 139 -130q135 7 139 130v494z" />
    <glyph glyph-name="Ucircumflex" unicode="&#xdb;" 
d="M314 936h107l103 -150h-78l-82 100l-82 -100h-76zM504 729h150v-494q0 -120 -71 -184q-82 -74 -218 -74t-218 74q-71 64 -71 184v494h150v-494q10 -126 139 -130q135 7 139 130v494z" />
    <glyph glyph-name="Udieresis" unicode="&#xdc;" 
d="M327 922v-122h-110v122h110zM513 922v-122h-110v122h110zM504 729h150v-494q0 -120 -71 -184q-82 -74 -218 -74t-218 74q-71 64 -71 184v494h150v-494q10 -126 139 -130q135 7 139 130v494z" />
    <glyph glyph-name="Yacute" unicode="&#xdd;" horiz-adv-x="667" 
d="M479 936l-126 -150h-70l70 150h126zM419 270v-270h-150v270l-242 459h167l149 -322l139 322h168z" />
    <glyph glyph-name="Thorn" unicode="&#xde;" horiz-adv-x="667" 
d="M226 140v-140h-150v729h150v-120h172q114 0 173 -56q62 -61 62 -171q0 -143 -93 -206q-53 -36 -127 -36h-187zM226 265h140q109 0 116 94q1 7 1 15q0 100 -96 109q-10 1 -21 1h-140v-219z" />
    <glyph glyph-name="germandbls" unicode="&#xdf;" horiz-adv-x="611" 
d="M285 349v95h9q71 1 92 54q6 16 6 35q0 63 -62 79q-17 4 -36 4q-72 0 -85 -58l-2 -21v-537h-140v518q0 112 61 161q69 47 175 50q125 0 189 -73q40 -46 40 -109q0 -102 -87 -136q46 -9 79 -40q48 -47 51 -124v-11q0 -140 -86 -209q-55 -44 -132 -44q-23 0 -72 6v112
q6 1 13 1l20 1q70 1 101 58q16 29 16 65q0 83 -73 112q-33 10 -64 11h-13z" />
    <glyph glyph-name="agrave" unicode="&#xe0;" horiz-adv-x="556" 
d="M132 757h126l70 -150h-70zM524 17v-17h-152q-16 24 -16 54q-74 -77 -164 -77q-77 0 -126 51q-38 41 -38 111q0 143 159 170l56 10q68 11 83 18q1 1 5 3q24 13 24 42q0 54 -81 54q-68 0 -87 -32l-9 -24l-3 -18h-135q13 187 231 187q221 0 221 -166v-300q0 -34 26 -60z
M355 217v38q-19 -9 -59 -17l-48 -9q-66 -14 -77 -50l-3 -24q0 -49 49 -62q12 -3 27 -3q87 0 106 83q5 20 5 44z" />
    <glyph glyph-name="aacute" unicode="&#xe1;" horiz-adv-x="556" 
d="M411 757l-126 -150h-70l70 150h126zM524 17v-17h-152q-16 24 -16 54q-74 -77 -164 -77q-77 0 -126 51q-38 41 -38 111q0 143 159 170l56 10q68 11 83 18q1 1 5 3q24 13 24 42q0 54 -81 54q-68 0 -87 -32l-9 -24l-3 -18h-135q13 187 231 187q221 0 221 -166v-300
q0 -34 26 -60zM355 217v38q-19 -9 -59 -17l-48 -9q-66 -14 -77 -50l-3 -24q0 -49 49 -62q12 -3 27 -3q87 0 106 83q5 20 5 44z" />
    <glyph glyph-name="acircumflex" unicode="&#xe2;" horiz-adv-x="556" 
d="M221 757h107l103 -150h-78l-82 100l-82 -100h-76zM524 17v-17h-152q-16 24 -16 54q-74 -77 -164 -77q-77 0 -126 51q-38 41 -38 111q0 143 159 170l56 10q68 11 83 18q1 1 5 3q24 13 24 42q0 54 -81 54q-68 0 -87 -32l-9 -24l-3 -18h-135q13 187 231 187q221 0 221 -166
v-300q0 -34 26 -60zM355 217v38q-19 -9 -59 -17l-48 -9q-66 -14 -77 -50l-3 -24q0 -49 49 -62q12 -3 27 -3q87 0 106 83q5 20 5 44z" />
    <glyph glyph-name="atilde" unicode="&#xe3;" horiz-adv-x="556" 
d="M386 749h63q-6 -127 -95 -127q-24 0 -55 12l-71 26q-18 6 -30 6q-30 0 -38 -35l-2 -10h-63q5 98 66 119q13 5 28 5q20 0 56 -13l71 -25q14 -6 34 -6q32 0 36 48zM524 17v-17h-152q-16 24 -16 54q-74 -77 -164 -77q-77 0 -126 51q-38 41 -38 111q0 143 159 170l56 10
q68 11 83 18q1 1 5 3q24 13 24 42q0 54 -81 54q-68 0 -87 -32l-9 -24l-3 -18h-135q13 187 231 187q221 0 221 -166v-300q0 -34 26 -60zM355 217v38q-19 -9 -59 -17l-48 -9q-66 -14 -77 -50l-3 -24q0 -49 49 -62q12 -3 27 -3q87 0 106 83q5 20 5 44z" />
    <glyph glyph-name="adieresis" unicode="&#xe4;" horiz-adv-x="556" 
d="M234 743v-122h-110v122h110zM420 743v-122h-110v122h110zM524 17v-17h-152q-16 24 -16 54q-74 -77 -164 -77q-77 0 -126 51q-38 41 -38 111q0 143 159 170l56 10q68 11 83 18q1 1 5 3q24 13 24 42q0 54 -81 54q-68 0 -87 -32l-9 -24l-3 -18h-135q13 187 231 187
q221 0 221 -166v-300q0 -34 26 -60zM355 217v38q-19 -9 -59 -17l-48 -9q-66 -14 -77 -50l-3 -24q0 -49 49 -62q12 -3 27 -3q87 0 106 83q5 20 5 44z" />
    <glyph glyph-name="aring" unicode="&#xe5;" horiz-adv-x="556" 
d="M273 770q51 0 77 -44q12 -21 12 -47q0 -49 -42 -75q-22 -14 -48 -14q-51 0 -77 43q-13 22 -13 47q0 51 44 77q21 13 47 13zM273 722q-29 0 -40 -27q-3 -7 -3 -15q0 -28 26 -39q8 -3 17 -3q26 0 37 25q4 8 4 17q0 28 -26 39q-7 3 -15 3zM524 17v-17h-152q-16 24 -16 54
q-74 -77 -164 -77q-77 0 -126 51q-38 41 -38 111q0 143 159 170l56 10q68 11 83 18q1 1 5 3q24 13 24 42q0 54 -81 54q-68 0 -87 -32l-9 -24l-3 -18h-135q13 187 231 187q221 0 221 -166v-300q0 -34 26 -60zM355 217v38q-19 -9 -59 -17l-48 -9q-66 -14 -77 -50l-3 -24
q0 -49 49 -62q12 -3 27 -3q87 0 106 83q5 20 5 44z" />
    <glyph glyph-name="ae" unicode="&#xe6;" horiz-adv-x="889" 
d="M712 152h138q-30 -103 -129 -149q-55 -26 -121 -26q-136 0 -200 104q-83 -97 -185 -104q-10 -1 -20 -1q-105 0 -147 77q-21 38 -21 88q0 136 141 167l18 4l56 10q68 11 83 18q1 1 5 3q24 13 24 40q0 53 -85 53q-68 0 -86 -39q-6 -14 -9 -35h-131q3 187 228 187
q117 0 175 -50q62 50 155 50q134 0 204 -99l21 -35l10 -23q21 -60 21 -142q0 -12 -1 -24h-362q0 -62 20 -93q32 -49 94 -49q57 0 89 41q11 13 15 27zM354 216v38q-22 -13 -59 -19l-48 -7q-80 -11 -80 -73q0 -51 50 -63q12 -3 26 -3q95 0 109 96q2 15 2 31zM495 319h216
q-11 123 -109 123t-107 -123z" />
    <glyph glyph-name="ccedilla" unicode="&#xe7;" horiz-adv-x="556" 
d="M291 -23l-17 -40q18 7 41 7q61 0 74 -49q3 -10 3 -22q0 -76 -90 -90q-18 -3 -39 -3q-58 0 -138 28l19 52q67 -30 104 -30q40 0 54 26q4 7 4 15q0 26 -33 33q-8 2 -18 2q-25 0 -50 -12l43 85q-156 20 -199 167q-15 50 -15 113q0 187 119 257q57 33 136 33q138 0 199 -98
q19 -33 28 -73q4 -19 6 -40h-134q-17 77 -61 92l-28 6h-11q-62 0 -87 -46q-27 -51 -27 -130q0 -91 38 -137q26 -32 77 -33q63 0 88 63q6 15 11 34h134q-10 -112 -96 -170q-58 -40 -135 -40z" />
    <glyph glyph-name="egrave" unicode="&#xe8;" horiz-adv-x="556" 
d="M132 757h126l70 -150h-70zM524 226h-362q3 -68 20 -95q31 -47 92 -47q75 0 104 61q2 3 3 7h138q-29 -101 -126 -147q-56 -28 -124 -28q-142 0 -207 110q-40 69 -40 169q0 173 104 249q60 44 146 44q125 0 195 -90q21 -27 34 -60q2 -4 3 -7q21 -61 21 -142q0 -12 -1 -24z
M164 319h215q-4 50 -22 78q-32 45 -87 45q-92 0 -106 -123z" />
    <glyph glyph-name="eacute" unicode="&#xe9;" horiz-adv-x="556" 
d="M419 757l-126 -150h-70l70 150h126zM524 226h-362q3 -68 20 -95q31 -47 92 -47q75 0 104 61q2 3 3 7h138q-29 -101 -126 -147q-56 -28 -124 -28q-142 0 -207 110q-40 69 -40 169q0 173 104 249q60 44 146 44q125 0 195 -90q21 -27 34 -60q2 -4 3 -7q21 -61 21 -142
q0 -12 -1 -24zM164 319h215q-4 50 -22 78q-32 45 -87 45q-92 0 -106 -123z" />
    <glyph glyph-name="ecircumflex" unicode="&#xea;" horiz-adv-x="556" 
d="M229 757h107l103 -150h-78l-82 100l-82 -100h-76zM524 226h-362q3 -68 20 -95q31 -47 92 -47q75 0 104 61q2 3 3 7h138q-29 -101 -126 -147q-56 -28 -124 -28q-142 0 -207 110q-40 69 -40 169q0 173 104 249q60 44 146 44q125 0 195 -90q21 -27 34 -60q2 -4 3 -7
q21 -61 21 -142q0 -12 -1 -24zM164 319h215q-4 50 -22 78q-32 45 -87 45q-92 0 -106 -123z" />
    <glyph glyph-name="edieresis" unicode="&#xeb;" horiz-adv-x="556" 
d="M242 743v-122h-110v122h110zM428 743v-122h-110v122h110zM524 226h-362q3 -68 20 -95q31 -47 92 -47q75 0 104 61q2 3 3 7h138q-29 -101 -126 -147q-56 -28 -124 -28q-142 0 -207 110q-40 69 -40 169q0 173 104 249q60 44 146 44q125 0 195 -90q21 -27 34 -60q2 -4 3 -7
q21 -61 21 -142q0 -12 -1 -24zM164 319h215q-4 50 -22 78q-32 45 -87 45q-92 0 -106 -123z" />
    <glyph glyph-name="igrave" unicode="&#xec;" horiz-adv-x="278" 
d="M-10 757h126l70 -150h-70zM207 540v-540h-140v540h140z" />
    <glyph glyph-name="iacute" unicode="&#xed;" horiz-adv-x="278" 
d="M290 757l-126 -150h-70l70 150h126zM207 540v-540h-140v540h140z" />
    <glyph glyph-name="icircumflex" unicode="&#xee;" horiz-adv-x="278" 
d="M89 757h107l103 -150h-78l-82 100l-82 -100h-76zM207 540v-540h-140v540h140z" />
    <glyph glyph-name="idieresis" unicode="&#xef;" horiz-adv-x="278" 
d="M101 743v-122h-110v122h110zM287 743v-122h-110v122h110zM207 540v-540h-140v540h140z" />
    <glyph glyph-name="eth" unicode="&#xf0;" horiz-adv-x="611" 
d="M432 710l-84 -50q188 -127 216 -315q5 -36 5 -76q0 -181 -117 -254q-62 -38 -150 -38q-158 0 -227 118q-40 69 -40 170q0 165 113 232q60 37 126 37q36 0 85 -19q-40 64 -95 96l-77 -46l-42 37l70 44q-38 23 -90 48l67 47q35 -13 87 -42q2 -2 15 -7l87 52zM302 429
q-75 0 -108 -75q-18 -40 -18 -94q0 -109 63 -151q28 -19 63 -19q74 0 108 74q18 40 18 93q0 114 -65 155q-27 17 -61 17z" />
    <glyph glyph-name="ntilde" unicode="&#xf1;" horiz-adv-x="611" 
d="M415 749h63q-6 -127 -95 -127q-24 0 -55 12l-71 26q-18 6 -30 6q-30 0 -38 -35l-2 -10h-63q5 98 66 119q13 5 28 5q20 0 56 -13l71 -25q14 -6 34 -6q32 0 36 48zM63 540h140v-78q55 82 149 87h13q127 0 167 -101q14 -38 14 -86v-362h-140v333q0 97 -90 97q-74 0 -102 -56
q-11 -22 -11 -50v-324h-140v540z" />
    <glyph glyph-name="ograve" unicode="&#xf2;" horiz-adv-x="611" 
d="M165 757h126l70 -150h-70zM301 549q165 0 232 -125q36 -68 36 -165q0 -158 -103 -233q-67 -49 -164 -49q-156 0 -225 115q-42 70 -42 171q0 166 107 241q65 45 159 45zM302 436q-73 0 -107 -74q-20 -42 -20 -99q0 -106 61 -152q29 -21 66 -21q71 0 106 71q21 43 21 100
q0 113 -64 156q-33 17 -63 19z" />
    <glyph glyph-name="oacute" unicode="&#xf3;" horiz-adv-x="611" 
d="M441 757l-126 -150h-70l70 150h126zM301 549q165 0 232 -125q36 -68 36 -165q0 -158 -103 -233q-67 -49 -164 -49q-156 0 -225 115q-42 70 -42 171q0 166 107 241q65 45 159 45zM302 436q-73 0 -107 -74q-20 -42 -20 -99q0 -106 61 -152q29 -21 66 -21q71 0 106 71
q21 43 21 100q0 113 -64 156q-33 17 -63 19z" />
    <glyph glyph-name="ocircumflex" unicode="&#xf4;" horiz-adv-x="611" 
d="M251 757h107l103 -150h-78l-82 100l-82 -100h-76zM301 549q165 0 232 -125q36 -68 36 -165q0 -158 -103 -233q-67 -49 -164 -49q-156 0 -225 115q-42 70 -42 171q0 166 107 241q65 45 159 45zM302 436q-73 0 -107 -74q-20 -42 -20 -99q0 -106 61 -152q29 -21 66 -21
q71 0 106 71q21 43 21 100q0 113 -64 156q-33 17 -63 19z" />
    <glyph glyph-name="otilde" unicode="&#xf5;" horiz-adv-x="611" 
d="M419 749h63q-6 -127 -95 -127q-24 0 -55 12l-71 26q-18 6 -30 6q-30 0 -38 -35l-2 -10h-63q5 98 66 119q13 5 28 5q20 0 56 -13l71 -25q14 -6 34 -6q32 0 36 48zM301 549q165 0 232 -125q36 -68 36 -165q0 -158 -103 -233q-67 -49 -164 -49q-156 0 -225 115
q-42 70 -42 171q0 166 107 241q65 45 159 45zM302 436q-73 0 -107 -74q-20 -42 -20 -99q0 -106 61 -152q29 -21 66 -21q71 0 106 71q21 43 21 100q0 113 -64 156q-33 17 -63 19z" />
    <glyph glyph-name="odieresis" unicode="&#xf6;" horiz-adv-x="611" 
d="M264 743v-122h-110v122h110zM450 743v-122h-110v122h110zM301 549q165 0 232 -125q36 -68 36 -165q0 -158 -103 -233q-67 -49 -164 -49q-156 0 -225 115q-42 70 -42 171q0 166 107 241q65 45 159 45zM302 436q-73 0 -107 -74q-20 -42 -20 -99q0 -106 61 -152
q29 -21 66 -21q71 0 106 71q21 43 21 100q0 113 -64 156q-33 17 -63 19z" />
    <glyph glyph-name="divide" unicode="&#xf7;" horiz-adv-x="584" 
d="M534 291v-119h-484v119h484zM230 474h124v-123h-124v123zM230 112h124v-123h-124v123z" />
    <glyph glyph-name="oslash" unicode="&#xf8;" horiz-adv-x="611" 
d="M126 35l-72 -73l-43 40l75 77q-50 72 -50 184q0 169 111 243q65 43 158 43q107 0 182 -62l68 70l43 -41l-72 -73q47 -73 47 -180q0 -166 -108 -241q-65 -45 -159 -45q-105 0 -171 50q-5 4 -9 8zM421 336l-201 -204q36 -42 86 -42q68 0 104 69q23 43 23 101q0 40 -12 76z
M190 184l202 206q-39 47 -89 47q-70 0 -105 -71q-22 -43 -22 -100q0 -46 14 -82z" />
    <glyph glyph-name="ugrave" unicode="&#xf9;" horiz-adv-x="611" 
d="M163 757h126l70 -150h-70zM541 0h-140v64q-55 -82 -149 -87h-13q-127 0 -167 101q-14 38 -14 86v376h140v-347q0 -97 90 -97q74 0 102 56q11 22 11 50v338h140v-540z" />
    <glyph glyph-name="uacute" unicode="&#xfa;" horiz-adv-x="611" 
d="M438 757l-126 -150h-70l70 150h126zM541 0h-140v64q-55 -82 -149 -87h-13q-127 0 -167 101q-14 38 -14 86v376h140v-347q0 -97 90 -97q74 0 102 56q11 22 11 50v338h140v-540z" />
    <glyph glyph-name="ucircumflex" unicode="&#xfb;" horiz-adv-x="611" 
d="M248 757h107l103 -150h-78l-82 100l-82 -100h-76zM541 0h-140v64q-55 -82 -149 -87h-13q-127 0 -167 101q-14 38 -14 86v376h140v-347q0 -97 90 -97q74 0 102 56q11 22 11 50v338h140v-540z" />
    <glyph glyph-name="udieresis" unicode="&#xfc;" horiz-adv-x="611" 
d="M260 743v-122h-110v122h110zM446 743v-122h-110v122h110zM541 0h-140v64q-55 -82 -149 -87h-13q-127 0 -167 101q-14 38 -14 86v376h140v-347q0 -97 90 -97q74 0 102 56q11 22 11 50v338h140v-540z" />
    <glyph glyph-name="yacute" unicode="&#xfd;" horiz-adv-x="556" 
d="M411 757l-126 -150h-70l70 150h126zM394 540h144l-222 -639q-25 -69 -55 -90q-10 -7 -24 -13q-41 -17 -101 -17q-22 0 -50 4v105q22 -6 37 -6q51 0 75 44q12 21 12 46v3v1l-201 562h154l119 -393z" />
    <glyph glyph-name="thorn" unicode="&#xfe;" horiz-adv-x="611" 
d="M198 729v-269q50 89 150 89q104 0 170 -92q56 -80 56 -195q0 -139 -80 -221q-61 -64 -146 -64q-100 0 -150 87v-282h-140v947h140zM316 432q-67 0 -99 -72q-19 -42 -19 -98q0 -104 58 -148q27 -20 60 -20q65 0 98 68q20 42 20 98q0 109 -59 153q-26 19 -59 19z" />
    <glyph glyph-name="ydieresis" unicode="&#xff;" horiz-adv-x="556" 
d="M235 743v-122h-110v122h110zM421 743v-122h-110v122h110zM394 540h144l-222 -639q-25 -69 -55 -90q-10 -7 -24 -13q-41 -17 -101 -17q-22 0 -50 4v105q22 -6 37 -6q51 0 75 44q12 21 12 46v3v1l-201 562h154l119 -393z" />
    <glyph glyph-name="Amacron" unicode="&#x100;" 
d="M514 898v-79h-299v79h299zM501 147h-273l-49 -147h-153l259 729h166l252 -729h-154zM460 272l-95 285l-95 -285h190z" />
    <glyph glyph-name="amacron" unicode="&#x101;" horiz-adv-x="556" 
d="M421 719v-79h-299v79h299zM524 17v-17h-152q-16 24 -16 54q-74 -77 -164 -77q-77 0 -126 51q-38 41 -38 111q0 143 159 170l56 10q68 11 83 18q1 1 5 3q24 13 24 42q0 54 -81 54q-68 0 -87 -32l-9 -24l-3 -18h-135q13 187 231 187q221 0 221 -166v-300q0 -34 26 -60z
M355 217v38q-19 -9 -59 -17l-48 -9q-66 -14 -77 -50l-3 -24q0 -49 49 -62q12 -3 27 -3q87 0 106 83q5 20 5 44z" />
    <glyph glyph-name="Abreve" unicode="&#x102;" 
d="M492 927v-11q0 -71 -57 -110q-33 -22 -75 -22q-72 0 -110 57q-22 34 -22 76v10h56q9 -66 77 -66q61 0 74 59q0 3 1 7h56zM501 147h-273l-49 -147h-153l259 729h166l252 -729h-154zM460 272l-95 285l-95 -285h190z" />
    <glyph glyph-name="abreve" unicode="&#x103;" horiz-adv-x="556" 
d="M407 748v-11q0 -71 -57 -110q-33 -22 -75 -22q-72 0 -110 57q-22 34 -22 76v10h56q9 -66 77 -66q61 0 74 59q0 3 1 7h56zM524 17v-17h-152q-16 24 -16 54q-74 -77 -164 -77q-77 0 -126 51q-38 41 -38 111q0 143 159 170l56 10q68 11 83 18q1 1 5 3q24 13 24 42
q0 54 -81 54q-68 0 -87 -32l-9 -24l-3 -18h-135q13 187 231 187q221 0 221 -166v-300q0 -34 26 -60zM355 217v38q-19 -9 -59 -17l-48 -9q-66 -14 -77 -50l-3 -24q0 -49 49 -62q12 -3 27 -3q87 0 106 83q5 20 5 44z" />
    <glyph glyph-name="Aogonek" unicode="&#x104;" 
d="M501 147h-273l-49 -147h-153l259 729h167l251 -729q-83 -36 -107 -96q-6 -17 -6 -33q0 -53 76 -53q27 0 57 5v-47q-36 -9 -75 -9q-119 0 -143 66q-5 13 -5 29q0 75 86 121q18 10 38 17h-75zM461 272l-95 285l-96 -285h191z" />
    <glyph glyph-name="aogonek" unicode="&#x105;" horiz-adv-x="556" 
d="M524 17v-17q-109 -58 -109 -129q0 -53 76 -53q25 0 57 5v-47q-36 -9 -75 -9q-115 0 -142 62q-6 15 -6 32q0 71 77 117q21 13 47 22h-77q-16 24 -16 54q-74 -77 -164 -77q-77 0 -126 51q-38 41 -38 111q0 143 159 170l56 10q68 11 83 18q1 1 5 3q24 13 24 42q0 54 -81 54
q-68 0 -87 -32l-9 -24l-3 -18h-135q13 187 231 187q221 0 221 -166v-300q0 -34 26 -60zM355 217v38q-19 -9 -59 -17l-48 -9q-66 -14 -77 -50l-3 -24q0 -49 49 -62q12 -3 27 -3q87 0 106 83q5 20 5 44z" />
    <glyph glyph-name="Cacute" unicode="&#x106;" 
d="M510 936l-126 -150h-70l70 150h126zM682 482h-143q-12 52 -33 78q-42 53 -123 53q-115 0 -163 -111q-19 -45 -24 -105q-2 -20 -2 -41q0 -171 94 -229q39 -24 90 -24q111 0 148 90q10 25 13 56h146q-8 -148 -122 -222q-78 -50 -189 -50q-172 0 -261 128q-69 100 -69 253
q0 208 120 310q86 73 214 73q161 0 248 -106l7 -9q42 -55 49 -144z" />
    <glyph glyph-name="cacute" unicode="&#x107;" horiz-adv-x="556" 
d="M428 757l-126 -150h-70l70 150h126zM522 338h-134q-17 77 -61 92l-28 6h-11q-62 0 -87 -46q-27 -51 -27 -131q0 -122 66 -157q22 -12 48 -12q60 0 86 55q8 18 14 42h134q-13 -124 -109 -179q-55 -31 -126 -31q-158 0 -220 124q-33 66 -33 158q0 187 119 257q57 33 136 33
q138 0 199 -98q19 -33 28 -73q4 -19 6 -40z" />
    <glyph glyph-name="Ccircumflex" unicode="&#x108;" 
d="M387 979h107l103 -150h-78l-82 100l-82 -100h-76zM682 482h-143q-12 52 -33 78q-42 53 -123 53q-115 0 -163 -111q-19 -45 -24 -105q-2 -20 -2 -41q0 -171 94 -229q39 -24 90 -24q111 0 148 90q10 25 13 56h146q-8 -148 -122 -222q-78 -50 -189 -50q-172 0 -261 128
q-69 100 -69 253q0 208 120 310q86 73 214 73q161 0 248 -106l7 -9q42 -55 49 -144z" />
    <glyph glyph-name="ccircumflex" unicode="&#x109;" horiz-adv-x="556" 
d="M243 790h107l103 -150h-78l-82 100l-82 -100h-76zM522 338h-134q-17 77 -61 92l-28 6h-11q-62 0 -87 -46q-27 -51 -27 -131q0 -122 66 -157q22 -12 48 -12q60 0 86 55q8 18 14 42h134q-13 -124 -109 -179q-55 -31 -126 -31q-158 0 -220 124q-33 66 -33 158q0 187 119 257
q57 33 136 33q138 0 199 -98q19 -33 28 -73q4 -19 6 -40z" />
    <glyph glyph-name="Cdotaccent" unicode="&#x10a;" 
d="M493 951v-122h-110v122h110zM682 482h-143q-12 52 -33 78q-42 53 -123 53q-115 0 -163 -111q-19 -45 -24 -105q-2 -20 -2 -41q0 -171 94 -229q39 -24 90 -24q111 0 148 90q10 25 13 56h146q-8 -148 -122 -222q-78 -50 -189 -50q-172 0 -261 128q-69 100 -69 253
q0 208 120 310q86 73 214 73q161 0 248 -106l7 -9q42 -55 49 -144z" />
    <glyph glyph-name="cdotaccent" unicode="&#x10b;" horiz-adv-x="556" 
d="M349 762v-122h-110v122h110zM522 338h-134q-17 77 -61 92l-28 6h-11q-62 0 -87 -46q-27 -51 -27 -131q0 -122 66 -157q22 -12 48 -12q60 0 86 55q8 18 14 42h134q-13 -124 -109 -179q-55 -31 -126 -31q-158 0 -220 124q-33 66 -33 158q0 187 119 257q57 33 136 33
q138 0 199 -98q19 -33 28 -73q4 -19 6 -40z" />
    <glyph glyph-name="Ccaron" unicode="&#x10c;" 
d="M427 786h-107l-103 150h78l82 -97l82 97h76zM682 482h-143q-12 52 -33 78q-42 53 -123 53q-115 0 -163 -111q-19 -45 -24 -105q-2 -20 -2 -41q0 -171 94 -229q39 -24 90 -24q111 0 148 90q10 25 13 56h146q-8 -148 -122 -222q-78 -50 -189 -50q-172 0 -261 128
q-69 100 -69 253q0 208 120 310q86 73 214 73q161 0 248 -106l7 -9q42 -55 49 -144z" />
    <glyph glyph-name="ccaron" unicode="&#x10d;" horiz-adv-x="556" 
d="M341 607h-107l-103 150h78l82 -97l82 97h76zM522 338h-134q-17 77 -61 92l-28 6h-11q-62 0 -87 -46q-27 -51 -27 -131q0 -122 66 -157q22 -12 48 -12q60 0 86 55q8 18 14 42h134q-13 -124 -109 -179q-55 -31 -126 -31q-158 0 -220 124q-33 66 -33 158q0 187 119 257
q57 33 136 33q138 0 199 -98q19 -33 28 -73q4 -19 6 -40z" />
    <glyph glyph-name="Dcaron" unicode="&#x10e;" 
d="M390 786h-107l-103 150h78l82 -97l82 97h76zM77 0v729h285q147 0 215 -68q8 -8 15 -16q89 -106 89 -280q0 -176 -89 -280q-66 -80 -207 -85h-23h-285zM227 125h135q169 0 169 239q0 240 -169 240h-135v-479z" />
    <glyph glyph-name="dcaron" unicode="&#x10f;" horiz-adv-x="611" 
d="M598 729h122v-103q0 -82 -57 -122q-28 -21 -65 -22v46q67 13 67 89h-67v112zM405 0v55q-52 -78 -149 -78q-84 0 -146 59q-13 13 -23 27q-58 84 -58 199q0 137 79 221q62 66 148 66q98 0 149 -79v259h140v-729h-140zM287 432q-66 0 -98 -71q-20 -42 -20 -99
q0 -103 57 -147q27 -21 61 -21q67 0 99 71q19 41 19 95q0 109 -59 153q-26 19 -59 19z" />
    <glyph glyph-name="Dcroat" unicode="&#x110;" 
d="M77 339h-77v80h77v310h285q143 0 210 -62l21 -22q77 -97 87 -246q1 -17 1 -34q0 -154 -75 -262q-6 -10 -13 -18q-60 -75 -187 -84q-21 -1 -44 -1h-285v339zM227 339v-214h135q90 0 127 51q1 1 2 3q46 65 46 185q0 121 -46 186q-43 52 -129 54h-135v-185h150v-80h-150z
" />
    <glyph glyph-name="dcroat" unicode="&#x111;" horiz-adv-x="611" 
d="M405 596h-133v67h133v66h140v-66h60v-67h-60v-596h-140v55q-52 -78 -149 -78q-102 0 -168 90q-59 80 -59 195q0 137 79 221q62 66 148 66q98 0 149 -79v126zM287 432q-64 0 -98 -69q-20 -43 -20 -101q0 -103 57 -147q27 -21 61 -21q67 0 99 71q19 41 19 95q0 109 -59 153
q-26 19 -59 19z" />
    <glyph glyph-name="Emacron" unicode="&#x112;" horiz-adv-x="667" 
d="M494 898v-79h-299v79h299zM229 314v-189h395v-125h-545v729h527v-125h-377v-165h349v-125h-349z" />
    <glyph glyph-name="emacron" unicode="&#x113;" horiz-adv-x="556" 
d="M430 719v-79h-299v79h299zM524 226h-362q3 -68 20 -95q31 -47 92 -47q75 0 104 61q2 3 3 7h138q-29 -101 -126 -147q-56 -28 -124 -28q-142 0 -207 110q-40 69 -40 169q0 173 104 249q60 44 146 44q125 0 195 -90q21 -27 34 -60q2 -4 3 -7q21 -61 21 -142q0 -12 -1 -24z
M164 319h215q-4 50 -22 78q-32 45 -87 45q-92 0 -106 -123z" />
    <glyph glyph-name="Ebreve" unicode="&#x114;" horiz-adv-x="667" 
d="M474 972v-11q0 -71 -57 -110q-33 -22 -75 -22q-72 0 -110 57q-22 34 -22 76v10h56q9 -66 77 -66q61 0 74 59q0 3 1 7h56zM229 314v-189h395v-125h-545v729h527v-125h-377v-165h349v-125h-349z" />
    <glyph glyph-name="ebreve" unicode="&#x115;" horiz-adv-x="556" 
d="M392 783v-11q0 -71 -57 -110q-33 -22 -75 -22q-72 0 -110 57q-22 34 -22 76v10h56q9 -66 77 -66q61 0 74 59q0 3 1 7h56zM524 226h-362q3 -68 20 -95q31 -47 92 -47q75 0 104 61q2 3 3 7h138q-29 -101 -126 -147q-56 -28 -124 -28q-142 0 -207 110q-40 69 -40 169
q0 173 104 249q60 44 146 44q125 0 195 -90q21 -27 34 -60q2 -4 3 -7q21 -61 21 -142q0 -12 -1 -24zM164 319h215q-4 50 -22 78q-32 45 -87 45q-92 0 -106 -123z" />
    <glyph glyph-name="Edotaccent" unicode="&#x116;" horiz-adv-x="667" 
d="M399 922v-122h-110v122h110zM229 314v-189h395v-125h-545v729h527v-125h-377v-165h349v-125h-349z" />
    <glyph glyph-name="edotaccent" unicode="&#x117;" horiz-adv-x="556" 
d="M334 743v-122h-110v122h110zM524 226h-362q3 -68 20 -95q31 -47 92 -47q75 0 104 61q2 3 3 7h138q-29 -101 -126 -147q-56 -28 -124 -28q-142 0 -207 110q-40 69 -40 169q0 173 104 249q60 44 146 44q125 0 195 -90q21 -27 34 -60q2 -4 3 -7q21 -61 21 -142q0 -12 -1 -24
zM164 319h215q-4 50 -22 78q-32 45 -87 45q-92 0 -106 -123z" />
    <glyph glyph-name="Eogonek" unicode="&#x118;" horiz-adv-x="667" 
d="M229 314v-189h395v-125q-109 -58 -109 -129q0 -53 76 -53q27 0 57 5v-47q-40 -9 -74 -9q-121 0 -145 67q-4 13 -4 28q0 78 112 132q6 3 13 6h-471v729h527v-125h-377v-165h349v-125h-349z" />
    <glyph glyph-name="eogonek" unicode="&#x119;" horiz-adv-x="556" 
d="M478 -177v-47q-39 -10 -79 -10q-105 0 -135 59q-9 17 -9 38q0 49 52 93q17 15 43 33q-47 -13 -82 -13q-140 0 -205 109q-42 70 -42 171q0 173 104 249q60 44 146 44q124 0 195 -88q24 -31 38 -69q21 -60 21 -142q0 -12 -1 -24h-362q3 -68 20 -96q30 -47 92 -47
q78 0 106 69h138q-14 -49 -44 -86q-13 -16 -40 -45q-75 -82 -86 -125q-3 -13 -3 -27q0 -52 76 -52q29 0 57 6zM163 319h216q-4 51 -23 78q-31 45 -86 45q-94 0 -107 -123z" />
    <glyph glyph-name="Ecaron" unicode="&#x11a;" horiz-adv-x="667" 
d="M395 786h-107l-103 150h78l82 -97l82 97h76zM229 314v-189h395v-125h-545v729h527v-125h-377v-165h349v-125h-349z" />
    <glyph glyph-name="ecaron" unicode="&#x11b;" horiz-adv-x="556" 
d="M331 607h-107l-103 150h78l82 -97l82 97h76zM524 226h-362q3 -68 20 -95q31 -47 92 -47q75 0 104 61q2 3 3 7h138q-29 -101 -126 -147q-56 -28 -124 -28q-142 0 -207 110q-40 69 -40 169q0 173 104 249q60 44 146 44q125 0 195 -90q21 -27 34 -60q2 -4 3 -7
q21 -61 21 -142q0 -12 -1 -24zM164 319h215q-4 50 -22 78q-32 45 -87 45q-92 0 -106 -123z" />
    <glyph glyph-name="Gcircumflex" unicode="&#x11c;" horiz-adv-x="778" 
d="M330 979h107l103 -150h-78l-82 100l-82 -100h-76zM711 392v-394h-90l-18 96q-68 -100 -174 -114q-22 -3 -46 -3q-149 0 -245 109q-96 108 -96 273q0 183 111 289q96 93 242 93q166 0 254 -101l24 -32q31 -50 38 -112h-141q-17 49 -45 73q-50 44 -129 44q-123 0 -175 -108
q-29 -59 -29 -144q0 -133 79 -206q54 -50 129 -50q87 0 145 65q2 2 4 5q31 36 36 92h-166v125h292z" />
    <glyph glyph-name="gcircumflex" unicode="&#x11d;" horiz-adv-x="611" 
d="M306 790h107l103 -150h-78l-82 100l-82 -100h-76zM408 540h133v-558q0 -130 -122 -178q-38 -15 -86 -20q-23 -2 -49 -2q-122 0 -186 52q-52 43 -53 101h145q17 -63 99 -63q74 0 105 55q14 24 14 55v73q-56 -63 -110 -74q-19 -4 -43 -4q-115 0 -176 99q-45 74 -45 181
q0 141 79 226q61 66 145 66q87 0 146 -86l4 -6v83zM288 432q-65 0 -96 -73q-18 -43 -18 -100q0 -102 55 -145q26 -20 57 -20q70 0 104 70q20 40 20 95q0 98 -55 147q-30 26 -67 26z" />
    <glyph glyph-name="Gbreve" unicode="&#x11e;" horiz-adv-x="778" 
d="M530 927v-11q0 -71 -57 -110q-33 -22 -75 -22q-72 0 -110 57q-22 34 -22 76v10h56q9 -66 77 -66q61 0 74 59q0 3 1 7h56zM711 392v-394h-90l-18 96q-68 -100 -174 -114q-22 -3 -46 -3q-149 0 -245 109q-96 108 -96 273q0 183 111 289q96 93 242 93q166 0 254 -101l24 -32
q31 -50 38 -112h-141q-17 49 -45 73q-50 44 -129 44q-123 0 -175 -108q-29 -59 -29 -144q0 -133 79 -206q54 -50 129 -50q87 0 145 65q2 2 4 5q31 36 36 92h-166v125h292z" />
    <glyph glyph-name="gbreve" unicode="&#x11f;" horiz-adv-x="611" 
d="M438 748v-11q0 -71 -57 -110q-33 -22 -75 -22q-72 0 -110 57q-22 34 -22 76v10h56q9 -66 77 -66q61 0 74 59q0 3 1 7h56zM408 540h133v-558q0 -130 -122 -178q-38 -15 -86 -20q-23 -2 -49 -2q-122 0 -186 52q-52 43 -53 101h145q17 -63 99 -63q74 0 105 55q14 24 14 55
v73q-56 -63 -110 -74q-19 -4 -43 -4q-115 0 -176 99q-45 74 -45 181q0 141 79 226q61 66 145 66q87 0 146 -86l4 -6v83zM288 432q-65 0 -96 -73q-18 -43 -18 -100q0 -102 55 -145q26 -20 57 -20q70 0 104 70q20 40 20 95q0 98 -55 147q-30 26 -67 26z" />
    <glyph glyph-name="Gdotaccent" unicode="&#x120;" horiz-adv-x="778" 
d="M436 951v-122h-110v122h110zM711 392v-394h-90l-18 96q-68 -100 -174 -114q-22 -3 -46 -3q-149 0 -245 109q-96 108 -96 273q0 183 111 289q96 93 242 93q166 0 254 -101l24 -32q31 -50 38 -112h-141q-17 49 -45 73q-50 44 -129 44q-123 0 -175 -108q-29 -59 -29 -144
q0 -133 79 -206q54 -50 129 -50q87 0 145 65q2 2 4 5q31 36 36 92h-166v125h292z" />
    <glyph glyph-name="gdotaccent" unicode="&#x121;" horiz-adv-x="611" 
d="M412 762v-122h-110v122h110zM408 540h133v-558q0 -130 -122 -178q-38 -15 -86 -20q-23 -2 -49 -2q-122 0 -186 52q-52 43 -53 101h145q17 -63 99 -63q74 0 105 55q14 24 14 55v73q-56 -63 -110 -74q-19 -4 -43 -4q-115 0 -176 99q-45 74 -45 181q0 141 79 226
q61 66 145 66q87 0 146 -86l4 -6v83zM288 432q-65 0 -96 -73q-18 -43 -18 -100q0 -102 55 -145q26 -20 57 -20q70 0 104 70q20 40 20 95q0 98 -55 147q-30 26 -67 26z" />
    <glyph glyph-name="Gcommaaccent" unicode="&#x122;" horiz-adv-x="778" 
d="M332 -60h122v-103q0 -82 -57 -122q-28 -21 -65 -22v46q67 13 67 89h-67v112zM711 392v-394h-90l-18 96q-68 -100 -174 -114q-22 -3 -46 -3q-149 0 -245 109q-96 108 -96 273q0 183 111 289q96 93 242 93q166 0 254 -101l24 -32q31 -50 38 -112h-141q-17 49 -45 73
q-50 44 -129 44q-123 0 -175 -108q-29 -59 -29 -144q0 -133 79 -206q54 -50 129 -50q87 0 145 65q2 2 4 5q31 36 36 92h-166v125h292z" />
    <glyph glyph-name="gcommaaccent" unicode="&#x123;" horiz-adv-x="611" 
d="M365 606h-122v103q0 82 57 122q28 21 65 22v-46q-67 -13 -67 -89h67v-112zM408 540h133v-558q0 -130 -122 -178q-38 -15 -86 -20q-23 -2 -49 -2q-122 0 -186 52q-52 43 -53 101h145q17 -63 99 -63q74 0 105 55q14 24 14 55v73q-56 -63 -110 -74q-19 -4 -43 -4
q-115 0 -176 99q-45 74 -45 181q0 141 79 226q61 66 145 66q87 0 146 -86l4 -6v83zM288 432q-65 0 -96 -73q-18 -43 -18 -100q0 -102 55 -145q26 -20 57 -20q70 0 104 70q20 40 20 95q0 98 -55 147q-30 26 -67 26z" />
    <glyph glyph-name="Hcircumflex" unicode="&#x124;" 
d="M311 979h107l103 -150h-78l-82 100l-82 -100h-76zM507 331h-289v-331h-150v729h150v-273h288v273h151v-729h-150v331z" />
    <glyph glyph-name="hcircumflex" unicode="&#x125;" horiz-adv-x="611" 
d="M225 979h107l103 -150h-78l-82 100l-82 -100h-76zM67 729h140v-267q58 87 158 87q72 0 121 -41q55 -46 55 -146v-362h-140v330q0 43 -16 67q-24 33 -70 33q-66 0 -95 -52q-13 -24 -13 -54v-324h-140v729z" />
    <glyph glyph-name="Hbar" unicode="&#x126;" 
d="M657 599h60v-67h-60v-532h-150v331h-289v-331h-150v532h-60v67h60v130h150v-130h288v130h151v-130zM506 532h-288v-76h288v76z" />
    <glyph glyph-name="hbar" unicode="&#x127;" horiz-adv-x="611" 
d="M67 663v66h140v-66h134v-67h-134v-134q58 87 158 87q72 0 121 -41q55 -46 55 -146v-362h-140v330q0 43 -16 67q-24 33 -70 33q-66 0 -95 -52q-13 -24 -13 -54v-324h-140v596h-59v67h59z" />
    <glyph glyph-name="Itilde" unicode="&#x128;" horiz-adv-x="278" 
d="M252 957h63q-6 -127 -95 -127q-24 0 -55 12l-71 26q-18 6 -30 6q-30 0 -38 -35l-2 -10h-63q5 98 66 119q13 5 28 5q20 0 56 -13l71 -25q14 -6 34 -6q32 0 36 48zM213 729v-729h-150v729h150z" />
    <glyph glyph-name="itilde" unicode="&#x129;" horiz-adv-x="278" 
d="M251 768h63q-6 -127 -95 -127q-24 0 -55 12l-71 26q-18 6 -30 6q-30 0 -38 -35l-2 -10h-63q5 98 66 119q13 5 28 5q20 0 56 -13l71 -25q14 -6 34 -6q32 0 36 48zM207 540v-540h-140v540h140z" />
    <glyph glyph-name="Imacron" unicode="&#x12a;" horiz-adv-x="278" 
d="M274.545 898v-79h-271.99v79h271.99zM213 729v-729h-150v729h150z" />
    <glyph glyph-name="imacron" unicode="&#x12b;" horiz-adv-x="278" 
d="M266.856 719v-79h-258.997v79h258.997zM207 540v-540h-140v540h140z" />
    <glyph glyph-name="Ibreve" unicode="&#x12c;" horiz-adv-x="278" 
d="M270 972v-11q0 -71 -57 -110q-33 -22 -75 -22q-72 0 -110 57q-22 34 -22 76v10h56q9 -66 77 -66q61 0 74 59q0 3 1 7h56zM213 729v-729h-150v729h150z" />
    <glyph glyph-name="ibreve" unicode="&#x12d;" horiz-adv-x="278" 
d="M269 783v-11q0 -71 -57 -110q-33 -22 -75 -22q-72 0 -110 57q-22 34 -22 76v10h56q9 -66 77 -66q61 0 74 59q0 3 1 7h56zM207 540v-540h-140v540h140z" />
    <glyph glyph-name="Iogonek" unicode="&#x12e;" horiz-adv-x="278" 
d="M213 729v-729q-89 -64 -89 -131q0 -36 39 -48q11 -3 24 -3q23 0 50 5v-47q-39 -9 -70 -9q-96 0 -124 58q-9 18 -9 39q0 76 113 136h-84v729h150z" />
    <glyph glyph-name="iogonek" unicode="&#x12f;" horiz-adv-x="278" 
d="M207 540v-540q-83 -58 -83 -128q0 -30 22 -43q19 -11 41 -11q15 0 44 5v-47q-40 -9 -63 -9q-99 0 -126 59q-8 17 -8 38q0 71 110 136h-77v540h140zM207 729v-125h-140v125h140z" />
    <glyph glyph-name="Idotaccent" unicode="&#x130;" horiz-adv-x="278" 
d="M193 922v-122h-110v122h110zM213 729v-729h-150v729h150z" />
    <glyph glyph-name="dotlessi" unicode="&#x131;" horiz-adv-x="278" 
d="M207 540v-540h-140v540h140z" />
    <glyph glyph-name="IJ" unicode="&#x132;" horiz-adv-x="808" 
d="M590 729h150v-539q0 -146 -119 -193q-49 -20 -115 -20q-103 0 -167 58q-57 53 -61 145v18v72h150v-70q0 -80 54 -92q12 -3 27 -3q73 0 80 70q1 7 1 15v539zM213 729v-729h-150v729h150z" />
    <glyph glyph-name="ij" unicode="&#x133;" horiz-adv-x="492" 
d="M418 540v-634q0 -95 -64 -116q-24 -8 -59 -8q-36 0 -83 5v112q13 -4 25 -4q36 0 40 28q1 6 1 14v603h140zM418 729v-125h-140v125h140zM207 540v-540h-140v540h140zM207 729v-125h-140v125h140z" />
    <glyph glyph-name="Jcircumflex" unicode="&#x134;" horiz-adv-x="556" 
d="M360 979h107l103 -150h-78l-82 100l-82 -100h-76zM336 729h150v-539q0 -146 -119 -193q-49 -20 -115 -20q-103 0 -167 58q-57 53 -61 145v18v72h150v-70q0 -80 54 -92q12 -3 27 -3q73 0 80 70q1 7 1 15v539z" />
    <glyph glyph-name="jcircumflex" unicode="&#x135;" horiz-adv-x="278" 
d="M210 540v-634q0 -95 -64 -116q-24 -8 -59 -8q-36 0 -83 5v112q13 -4 25 -4q36 0 40 28q1 6 1 14v603h140zM89 783h107l103 -150h-78l-82 100l-82 -100h-76z" />
    <glyph glyph-name="Kcommaaccent" unicode="&#x136;" 
d="M315 -60h122v-103q0 -82 -57 -122q-28 -21 -65 -22v46q67 13 67 89h-67v112zM224 244v-244h-150v729h150v-320l285 320h177l-291 -314l322 -415h-179l-239 322z" />
    <glyph glyph-name="kcommaaccent" unicode="&#x137;" horiz-adv-x="556" 
d="M229 -60h122v-103q0 -82 -57 -122q-28 -21 -65 -22v46q67 13 67 89h-67v112zM199 330l177 210h159l-184 -204l197 -336h-164l-129 238l-56 -61v-177h-140v729h140v-399z" />
    <glyph glyph-name="kgreenlandic" unicode="&#x138;" horiz-adv-x="573" 
d="M200 351l162 189h148l-214 -244l253 -296h-182l-167 198v-198h-140v540h140v-189z" />
    <glyph glyph-name="Lacute" unicode="&#x139;" horiz-adv-x="611" 
d="M298 936l-126 -150h-70l70 150h126zM230 729v-604h349v-125h-499v729h150z" />
    <glyph glyph-name="lacute" unicode="&#x13a;" horiz-adv-x="278" 
d="M278 936l-126 -150h-70l70 150h126zM207 729v-729h-140v729h140z" />
    <glyph glyph-name="Lcommaaccent" unicode="&#x13b;" horiz-adv-x="611" 
d="M269 -60h122v-103q0 -82 -57 -122q-28 -21 -65 -22v46q67 13 67 89h-67v112zM230 729v-604h349v-125h-499v729h150z" />
    <glyph glyph-name="lcommaaccent" unicode="&#x13c;" horiz-adv-x="278" 
d="M78 -60h122v-103q0 -82 -57 -122q-28 -21 -65 -22v46q67 13 67 89h-67v112zM207 729v-729h-140v729h140z" />
    <glyph glyph-name="Lcaron" unicode="&#x13d;" horiz-adv-x="611" 
d="M330 729h122v-103q0 -82 -57 -122q-28 -21 -65 -22v46q67 13 67 89h-67v112zM230 729v-604h349v-125h-499v729h150z" />
    <glyph glyph-name="lcaron" unicode="&#x13e;" horiz-adv-x="278" 
d="M260 728h122v-103q0 -82 -57 -122q-28 -21 -65 -22v46q67 13 67 89h-67v112zM207 729v-729h-140v729h140z" />
    <glyph glyph-name="Ldot" unicode="&#x13f;" horiz-adv-x="611" 
d="M335 442h124v-123h-124v123zM230 729v-604h349v-125h-499v729h150z" />
    <glyph glyph-name="ldot" unicode="&#x140;" horiz-adv-x="556" 
d="M320 428h124v-123h-124v123zM207 729v-729h-140v729h140z" />
    <glyph glyph-name="Lslash" unicode="&#x141;" horiz-adv-x="611" 
d="M230 423l165 112v-88l-165 -113v-209h367v-125h-517v257l-80 -56v89l80 56v383h150v-306z" />
    <glyph glyph-name="lslash" unicode="&#x142;" horiz-adv-x="278" 
d="M196 442l56 40v-79l-56 -40v-363h-140v294l-56 -40v79l56 40v356h140v-287z" />
    <glyph glyph-name="Nacute" unicode="&#x143;" 
d="M500 936l-126 -150h-70l70 150h126zM511 0l-293 504v-504h-150v729h154l289 -496v496h150v-729h-150z" />
    <glyph glyph-name="nacute" unicode="&#x144;" horiz-adv-x="611" 
d="M440 757l-126 -150h-70l70 150h126zM63 540h140v-78q55 82 149 87h13q127 0 167 -101q14 -38 14 -86v-362h-140v333q0 97 -90 97q-74 0 -102 -56q-11 -22 -11 -50v-324h-140v540z" />
    <glyph glyph-name="Ncommaaccent" unicode="&#x145;" 
d="M300 -60h122v-103q0 -82 -57 -122q-28 -21 -65 -22v46q67 13 67 89h-67v112zM511 0l-293 504v-504h-150v729h154l289 -496v496h150v-729h-150z" />
    <glyph glyph-name="ncommaaccent" unicode="&#x146;" horiz-adv-x="611" 
d="M244 -60h122v-103q0 -82 -57 -122q-28 -21 -65 -22v46q67 13 67 89h-67v112zM63 540h140v-78q55 82 149 87h13q127 0 167 -101q14 -38 14 -86v-362h-140v333q0 97 -90 97q-74 0 -102 -56q-11 -22 -11 -50v-324h-140v540z" />
    <glyph glyph-name="Ncaron" unicode="&#x147;" 
d="M417 786h-107l-103 150h78l82 -97l82 97h76zM511 0l-293 504v-504h-150v729h154l289 -496v496h150v-729h-150z" />
    <glyph glyph-name="ncaron" unicode="&#x148;" horiz-adv-x="611" 
d="M350 607h-107l-103 150h78l82 -97l82 97h76zM63 540h140v-78q55 82 149 87h13q127 0 167 -101q14 -38 14 -86v-362h-140v333q0 97 -90 97q-74 0 -102 -56q-11 -22 -11 -50v-324h-140v540z" />
    <glyph glyph-name="napostrophe" unicode="&#x149;" horiz-adv-x="611" 
d="M63 540h140v-78q55 82 149 87h13q127 0 167 -101q14 -38 14 -86v-362h-140v333q0 97 -90 97q-74 0 -102 -56q-11 -22 -11 -50v-324h-140v540z" />
    <glyph glyph-name="Eng" unicode="&#x14a;" 
d="M511 0l-293 504v-504h-150v729h154l289 -496v496h150v-729h-150z" />
    <glyph glyph-name="eng" unicode="&#x14b;" horiz-adv-x="611" 
d="M63 540h140v-78q55 82 149 87h13q127 0 167 -101q14 -38 14 -86v-362h-140v333q0 97 -90 97q-74 0 -102 -56q-11 -22 -11 -50v-324h-140v540z" />
    <glyph glyph-name="Omacron" unicode="&#x14c;" horiz-adv-x="778" 
d="M540 898v-79h-299v79h299zM390 741q156 0 250 -101q98 -105 102 -273v-13q0 -133 -71 -237q-14 -21 -31 -39q-94 -101 -249 -101t-249 101q-90 96 -101 247q-1 17 -1 34q0 157 88 265l14 16q93 101 248 101zM391 613q-108 0 -163 -94l-18 -38q-20 -54 -20 -122
q0 -144 82 -213q50 -41 119 -41q105 0 161 92q40 65 40 158q0 154 -87 221q-48 37 -114 37z" />
    <glyph glyph-name="omacron" unicode="&#x14d;" horiz-adv-x="611" 
d="M451 719v-79h-299v79h299zM301 549q165 0 232 -125q36 -68 36 -165q0 -158 -103 -233q-67 -49 -164 -49q-156 0 -225 115q-42 70 -42 171q0 166 107 241q65 45 159 45zM302 436q-73 0 -107 -74q-20 -42 -20 -99q0 -106 61 -152q29 -21 66 -21q71 0 106 71q21 43 21 100
q0 113 -64 156q-33 17 -63 19z" />
    <glyph glyph-name="Obreve" unicode="&#x14e;" horiz-adv-x="778" 
d="M523 972v-11q0 -71 -57 -110q-33 -22 -75 -22q-72 0 -110 57q-22 34 -22 76v10h56q9 -66 77 -66q61 0 74 59q0 3 1 7h56zM390 741q156 0 250 -101q98 -105 102 -273v-13q0 -133 -71 -237q-14 -21 -31 -39q-94 -101 -249 -101t-249 101q-90 96 -101 247q-1 17 -1 34
q0 157 88 265l14 16q93 101 248 101zM391 613q-108 0 -163 -94l-18 -38q-20 -54 -20 -122q0 -144 82 -213q50 -41 119 -41q105 0 161 92q40 65 40 158q0 154 -87 221q-48 37 -114 37z" />
    <glyph glyph-name="obreve" unicode="&#x14f;" horiz-adv-x="611" 
d="M434 783v-11q0 -71 -57 -110q-33 -22 -75 -22q-72 0 -110 57q-22 34 -22 76v10h56q9 -66 77 -66q61 0 74 59q0 3 1 7h56zM301 549q165 0 232 -125q36 -68 36 -165q0 -158 -103 -233q-67 -49 -164 -49q-156 0 -225 115q-42 70 -42 171q0 166 107 241q65 45 159 45z
M302 436q-73 0 -107 -74q-20 -42 -20 -99q0 -106 61 -152q29 -21 66 -21q71 0 106 71q21 43 21 100q0 113 -64 156q-33 17 -63 19z" />
    <glyph glyph-name="Ohungarumlaut" unicode="&#x150;" horiz-adv-x="778" 
d="M461 936l-126 -147h-70l70 147h126zM649 936l-126 -147h-70l70 147h126zM390 741q156 0 250 -101q98 -105 102 -273v-13q0 -133 -71 -237q-14 -21 -31 -39q-94 -101 -249 -101t-249 101q-90 96 -101 247q-1 17 -1 34q0 157 88 265l14 16q93 101 248 101zM391 613
q-108 0 -163 -94l-18 -38q-20 -54 -20 -122q0 -144 82 -213q50 -41 119 -41q105 0 161 92q40 65 40 158q0 154 -87 221q-48 37 -114 37z" />
    <glyph glyph-name="ohungarumlaut" unicode="&#x151;" horiz-adv-x="611" 
d="M371 757l-126 -147h-70l70 147h126zM559 757l-126 -147h-70l70 147h126zM301 549q165 0 232 -125q36 -68 36 -165q0 -158 -103 -233q-67 -49 -164 -49q-156 0 -225 115q-42 70 -42 171q0 166 107 241q65 45 159 45zM302 436q-73 0 -107 -74q-20 -42 -20 -99
q0 -106 61 -152q29 -21 66 -21q71 0 106 71q21 43 21 100q0 113 -64 156q-33 17 -63 19z" />
    <glyph glyph-name="OE" unicode="&#x152;" horiz-adv-x="1000" 
d="M624 314v-189h346v-125h-490v59q-51 -64 -104 -77q-22 -5 -51 -5q-132 0 -216 111q-81 107 -81 271q0 186 99 294q82 88 202 88q75 0 128 -43q11 -9 23 -21v52h471v-125h-327v-165h299v-125h-299zM474 178v362q-39 69 -107 73h-11q-95 0 -144 -94l-17 -41
q-17 -53 -17 -119q0 -146 76 -215q43 -39 101 -39q75 0 116 68q2 2 3 5z" />
    <glyph glyph-name="oe" unicode="&#x153;" horiz-adv-x="944" 
d="M776 152h138q-31 -103 -129 -149q-47 -22 -103 -25q-9 -1 -18 -1q-113 0 -179 75q-77 -75 -195 -75q-156 0 -225 115q-42 70 -42 171q0 169 110 243q64 43 157 43q122 0 195 -76q65 76 180 76q128 0 198 -92q23 -29 36 -65q21 -61 21 -142q0 -12 -1 -24h-362
q1 -62 21 -94q28 -47 93 -48q60 0 92 44q9 11 13 24zM290 436q-73 0 -107 -74q-20 -42 -20 -99q0 -106 61 -152q29 -21 66 -21q71 0 106 71q21 43 21 100q0 113 -64 156q-33 17 -63 19zM559 319h215q-5 52 -23 78q-35 42 -85 45q-55 0 -84 -44l-6 -10q-13 -26 -17 -69z" />
    <glyph glyph-name="Racute" unicode="&#x154;" 
d="M494 936l-126 -150h-70l70 150h126zM230 289v-289h-150v729h391q92 0 141 -50q55 -57 55 -147q0 -132 -123 -180q57 -25 73 -46q22 -30 26 -130l2 -89q0 -40 28 -57q2 -2 4 -3v-27h-161q-21 38 -23 93v32q0 29 1 48q1 13 1 29q0 73 -61 84q-14 3 -32 3h-172zM230 414h181
q57 0 79 19q27 24 27 78q0 51 -27 74q-28 18 -79 19h-181v-190z" />
    <glyph glyph-name="racute" unicode="&#x155;" horiz-adv-x="389" 
d="M348 757l-126 -150h-70l70 150h126zM63 540h140v-106q37 90 114 110q18 5 36 5q9 0 17 -1v-142q-25 4 -44 4q-123 0 -123 -123v-287h-140v540z" />
    <glyph glyph-name="Rcommaaccent" unicode="&#x156;" 
d="M318 -60h122v-103q0 -82 -57 -122q-28 -21 -65 -22v46q67 13 67 89h-67v112zM230 289v-289h-150v729h391q92 0 141 -50q55 -57 55 -147q0 -132 -123 -180q57 -25 73 -46q22 -30 26 -130l2 -89q0 -40 28 -57q2 -2 4 -3v-27h-161q-21 38 -23 93v32q0 29 1 48q1 13 1 29
q0 73 -61 84q-14 3 -32 3h-172zM230 414h181q57 0 79 19q27 24 27 78q0 51 -27 74q-28 18 -79 19h-181v-190z" />
    <glyph glyph-name="rcommaaccent" unicode="&#x157;" horiz-adv-x="389" 
d="M74 -60h122v-103q0 -82 -57 -122q-28 -21 -65 -22v46q67 13 67 89h-67v112zM63 540h140v-106q37 90 114 110q18 5 36 5q9 0 17 -1v-142q-25 4 -44 4q-123 0 -123 -123v-287h-140v540z" />
    <glyph glyph-name="Rcaron" unicode="&#x158;" 
d="M410 786h-107l-103 150h78l82 -97l82 97h76zM230 289v-289h-150v729h391q92 0 141 -50q55 -57 55 -147q0 -132 -123 -180q57 -25 73 -46q22 -30 26 -130l2 -89q0 -40 28 -57q2 -2 4 -3v-27h-161q-21 38 -23 93v32q0 29 1 48q1 13 1 29q0 73 -61 84q-14 3 -32 3h-172z
M230 414h181q57 0 79 19q27 24 27 78q0 51 -27 74q-28 18 -79 19h-181v-190z" />
    <glyph glyph-name="rcaron" unicode="&#x159;" horiz-adv-x="389" 
d="M264 607h-107l-103 150h78l82 -97l82 97h76zM63 540h140v-106q37 90 114 110q18 5 36 5q9 0 17 -1v-142q-25 4 -44 4q-123 0 -123 -123v-287h-140v540z" />
    <glyph glyph-name="Sacute" unicode="&#x15a;" horiz-adv-x="667" 
d="M465 936l-126 -150h-70l70 150h126zM607 507h-140q-7 101 -125 113q-13 1 -28 1q-90 0 -117 -53l-8 -22q-1 -7 -1 -15q0 -46 42 -67q30 -15 96 -28l114 -22q145 -28 180 -119q13 -35 13 -82q0 -141 -123 -201q-72 -35 -176 -35q-215 0 -279 142q-20 43 -23 99h146
q6 -100 117 -118q22 -3 47 -3q108 0 138 60q9 17 9 38q0 58 -58 84q-29 13 -79 22l-102 20q-144 27 -184 100q-21 38 -21 96q0 143 125 197q63 27 151 27q160 0 235 -83q51 -57 51 -151z" />
    <glyph glyph-name="sacute" unicode="&#x15b;" horiz-adv-x="556" 
d="M419 757l-126 -150h-70l70 150h126zM505 366h-135q-1 73 -101 73q-64 0 -78 -35l-3 -15q0 -22 24 -33q9 -4 25 -9l177 -51q106 -31 106 -136q0 -80 -60 -131l-4 -4q-60 -48 -172 -48q-232 0 -253 157q-2 11 -2 23h137q8 -36 27 -51q29 -19 83 -19q90 0 102 42q2 5 2 11
q0 26 -31 38q-7 3 -16 6l-167 52q-62 20 -85 42l-3 3q-30 33 -30 88q0 108 96 154q52 26 126 26q152 0 209 -91q25 -39 26 -92z" />
    <glyph glyph-name="Scircumflex" unicode="&#x15c;" horiz-adv-x="667" 
d="M346 979h107l103 -150h-78l-82 100l-82 -100h-76zM607 507h-140q-7 101 -125 113q-13 1 -28 1q-90 0 -117 -53l-8 -22q-1 -7 -1 -15q0 -46 42 -67q30 -15 96 -28l114 -22q145 -28 180 -119q13 -35 13 -82q0 -141 -123 -201q-72 -35 -176 -35q-215 0 -279 142
q-20 43 -23 99h146q6 -100 117 -118q22 -3 47 -3q108 0 138 60q9 17 9 38q0 58 -58 84q-29 13 -79 22l-102 20q-144 27 -184 100q-21 38 -21 96q0 143 125 197q63 27 151 27q160 0 235 -83q51 -57 51 -151z" />
    <glyph glyph-name="scircumflex" unicode="&#x15d;" horiz-adv-x="556" 
d="M228 790h107l103 -150h-78l-82 100l-82 -100h-76zM505 366h-135q-1 73 -101 73q-64 0 -78 -35l-3 -15q0 -22 24 -33q9 -4 25 -9l177 -51q106 -31 106 -136q0 -80 -60 -131l-4 -4q-60 -48 -172 -48q-232 0 -253 157q-2 11 -2 23h137q8 -36 27 -51q29 -19 83 -19
q90 0 102 42q2 5 2 11q0 26 -31 38q-7 3 -16 6l-167 52q-62 20 -85 42l-3 3q-30 33 -30 88q0 108 96 154q52 26 126 26q152 0 209 -91q25 -39 26 -92z" />
    <glyph glyph-name="Scedilla" unicode="&#x15e;" horiz-adv-x="667" 
d="M340 -23l-17 -39q23 6 41 6q61 0 74 -49q3 -10 3 -22q0 -76 -90 -90q-18 -3 -39 -3q-57 0 -138 28l19 52q68 -30 105 -30q40 0 53 26q4 7 4 15q0 26 -33 33q-8 2 -18 2q-24 0 -49 -12l42 83q-210 22 -253 173q-9 31 -12 68h146q6 -100 117 -118q22 -3 47 -3q108 0 138 60
q9 17 9 38q0 58 -58 84q-29 13 -79 22l-102 20q-144 27 -184 100q-21 38 -21 96q0 143 125 197q63 27 151 27q160 0 235 -83q51 -57 51 -151h-140q-7 101 -125 113q-13 1 -28 1q-90 0 -117 -53l-8 -22q-1 -7 -1 -15q0 -46 42 -67q30 -15 96 -28l114 -22q145 -28 180 -119
q13 -35 13 -81q0 -223 -293 -237z" />
    <glyph glyph-name="scedilla" unicode="&#x15f;" horiz-adv-x="556" 
d="M283 -23l-19 -40q21 7 42 7q60 0 73 -48q3 -11 3 -23q0 -75 -87 -90q-19 -3 -41 -3q-55 0 -133 26l-6 2l19 52q69 -30 105 -30q40 0 53 26q4 7 4 15q0 26 -33 33q-8 2 -18 2q-24 0 -49 -12l43 84q-152 18 -192 101q-16 32 -18 78h137q8 -36 27 -51q29 -19 83 -19
q90 0 102 42q2 5 2 11q0 26 -31 38q-7 3 -16 6l-167 52q-62 20 -85 42l-3 3q-30 33 -30 88q0 108 96 154q52 26 126 26q152 0 209 -91q25 -39 26 -92h-135q-1 73 -101 73q-64 0 -78 -35l-3 -15q0 -22 24 -33q9 -4 25 -9l177 -51q106 -31 106 -136q0 -96 -82 -147
q-57 -36 -137 -36h-18z" />
    <glyph glyph-name="Scaron" unicode="&#x160;" horiz-adv-x="667" 
d="M379 786h-107l-103 150h78l82 -97l82 97h76zM607 507h-140q-7 101 -125 113q-13 1 -28 1q-90 0 -117 -53l-8 -22q-1 -7 -1 -15q0 -46 42 -67q30 -15 96 -28l114 -22q145 -28 180 -119q13 -35 13 -82q0 -141 -123 -201q-72 -35 -176 -35q-215 0 -279 142q-20 43 -23 99
h146q6 -100 117 -118q22 -3 47 -3q108 0 138 60q9 17 9 38q0 58 -58 84q-29 13 -79 22l-102 20q-144 27 -184 100q-21 38 -21 96q0 143 125 197q63 27 151 27q160 0 235 -83q51 -57 51 -151z" />
    <glyph glyph-name="scaron" unicode="&#x161;" horiz-adv-x="556" 
d="M332 607h-107l-103 150h78l82 -97l82 97h76zM505 366h-135q-1 73 -101 73q-64 0 -78 -35l-3 -15q0 -22 24 -33q9 -4 25 -9l177 -51q106 -31 106 -136q0 -80 -60 -131l-4 -4q-60 -48 -172 -48q-232 0 -253 157q-2 11 -2 23h137q8 -36 27 -51q29 -19 83 -19q90 0 102 42
q2 5 2 11q0 26 -31 38q-7 3 -16 6l-167 52q-62 20 -85 42l-3 3q-30 33 -30 88q0 108 96 154q52 26 126 26q152 0 209 -91q25 -39 26 -92z" />
    <glyph glyph-name="uni0162" unicode="&#x162;" horiz-adv-x="611" 
d="M311 0h43l-29 -63q21 7 42 7q60 0 73 -48q3 -11 3 -23q0 -76 -90 -90q-18 -3 -39 -3q-55 0 -134 27q-2 0 -4 1l19 52q69 -30 105 -30q40 0 53 26q4 7 4 15q0 27 -34 33l-17 2q-24 0 -49 -12zM385 604v-604h-150v604h-221v125h584v-125h-213z" />
    <glyph glyph-name="uni0163" unicode="&#x163;" horiz-adv-x="333" 
d="M193 -23h43l-29 -63q21 7 42 7q60 0 73 -48q3 -11 3 -23q0 -76 -90 -90q-18 -3 -39 -3q-55 0 -134 27q-2 0 -4 1l19 52q69 -30 105 -30q40 0 53 26q4 7 4 15q0 27 -34 33l-17 2q-24 0 -49 -12zM301 529v-93h-78v-294q0 -46 18 -55q10 -4 28 -4q11 0 32 3v-98
q-34 -11 -81 -11q-137 0 -137 127v332h-69v93h69v145h140v-145h78z" />
    <glyph glyph-name="Tcaron" unicode="&#x164;" horiz-adv-x="611" 
d="M361 786h-107l-103 150h78l82 -97l82 97h76zM385 604v-604h-150v604h-221v125h584v-125h-213z" />
    <glyph glyph-name="tcaron" unicode="&#x165;" horiz-adv-x="333" 
d="M276 828h122v-103q0 -82 -57 -122q-28 -21 -65 -22v46q67 13 67 89h-67v112zM301 529v-93h-78v-294q0 -46 18 -55q10 -4 28 -4q11 0 32 3v-98q-34 -11 -81 -11q-137 0 -137 127v332h-69v93h69v145h140v-145h78z" />
    <glyph glyph-name="Tbar" unicode="&#x166;" horiz-adv-x="611" 
d="M385 604v-604h-150v604h-221v125h584v-125h-213z" />
    <glyph glyph-name="tbar" unicode="&#x167;" horiz-adv-x="333" 
d="M301 529v-93h-78v-294q0 -46 18 -55q10 -4 28 -4q11 0 32 3v-98q-34 -11 -81 -11q-137 0 -137 127v332h-69v93h69v145h140v-145h78z" />
    <glyph glyph-name="Utilde" unicode="&#x168;" 
d="M479 957h63q-6 -127 -95 -127q-24 0 -55 12l-71 26q-18 6 -30 6q-30 0 -38 -35l-2 -10h-63q5 98 66 119q13 5 28 5q20 0 56 -13l71 -25q14 -6 34 -6q32 0 36 48zM504 729h150v-494q0 -120 -71 -184q-82 -74 -218 -74t-218 74q-71 64 -71 184v494h150v-494
q10 -126 139 -130q135 7 139 130v494z" />
    <glyph glyph-name="utilde" unicode="&#x169;" horiz-adv-x="611" 
d="M413 768h63q-6 -127 -95 -127q-24 0 -55 12l-71 26q-18 6 -30 6q-30 0 -38 -35l-2 -10h-63q5 98 66 119q13 5 28 5q20 0 56 -13l71 -25q14 -6 34 -6q32 0 36 48zM541 0h-140v64q-55 -82 -149 -87h-13q-127 0 -167 101q-14 38 -14 86v376h140v-347q0 -97 90 -97
q74 0 102 56q11 22 11 50v338h140v-540z" />
    <glyph glyph-name="Umacron" unicode="&#x16a;" 
d="M514 898v-79h-299v79h299zM504 729h150v-494q0 -120 -71 -184q-82 -74 -218 -74t-218 74q-71 64 -71 184v494h150v-494q10 -126 139 -130q135 7 139 130v494z" />
    <glyph glyph-name="umacron" unicode="&#x16b;" horiz-adv-x="611" 
d="M449 719v-79h-299v79h299zM541 0h-140v64q-55 -82 -149 -87h-13q-127 0 -167 101q-14 38 -14 86v376h140v-347q0 -97 90 -97q74 0 102 56q11 22 11 50v338h140v-540z" />
    <glyph glyph-name="Ubreve" unicode="&#x16c;" 
d="M497 972v-11q0 -71 -57 -110q-33 -22 -75 -22q-72 0 -110 57q-22 34 -22 76v10h56q9 -66 77 -66q61 0 74 59q0 3 1 7h56zM504 729h150v-494q0 -120 -71 -184q-82 -74 -218 -74t-218 74q-71 64 -71 184v494h150v-494q10 -126 139 -130q135 7 139 130v494z" />
    <glyph glyph-name="ubreve" unicode="&#x16d;" horiz-adv-x="611" 
d="M431 783v-11q0 -71 -57 -110q-33 -22 -75 -22q-72 0 -110 57q-22 34 -22 76v10h56q9 -66 77 -66q61 0 74 59q0 3 1 7h56zM541 0h-140v64q-55 -82 -149 -87h-13q-127 0 -167 101q-14 38 -14 86v376h140v-347q0 -97 90 -97q74 0 102 56q11 22 11 50v338h140v-540z" />
    <glyph glyph-name="Uring" unicode="&#x16e;" 
d="M366 949q51 0 77 -44q12 -21 12 -47q0 -49 -42 -75q-22 -14 -48 -14q-51 0 -77 43q-13 22 -13 47q0 51 44 77q21 13 47 13zM366 901q-29 0 -40 -27q-3 -7 -3 -15q0 -28 26 -39q8 -3 17 -3q26 0 37 25q4 8 4 17q0 28 -26 39q-7 3 -15 3zM504 729h150v-494q0 -120 -71 -184
q-82 -74 -218 -74t-218 74q-71 64 -71 184v494h150v-494q10 -126 139 -130q135 7 139 130v494z" />
    <glyph glyph-name="uring" unicode="&#x16f;" horiz-adv-x="611" 
d="M299 770q51 0 77 -44q12 -21 12 -47q0 -49 -42 -75q-22 -14 -48 -14q-51 0 -77 43q-13 22 -13 47q0 51 44 77q21 13 47 13zM299 722q-29 0 -40 -27q-3 -7 -3 -15q0 -28 26 -39q8 -3 17 -3q26 0 37 25q4 8 4 17q0 28 -26 39q-7 3 -15 3zM541 0h-140v64q-55 -82 -149 -87
h-13q-127 0 -167 101q-14 38 -14 86v376h140v-347q0 -97 90 -97q74 0 102 56q11 22 11 50v338h140v-540z" />
    <glyph glyph-name="Uhungarumlaut" unicode="&#x170;" 
d="M433 936l-126 -147h-70l70 147h126zM621 936l-126 -147h-70l70 147h126zM504 729h150v-494q0 -120 -71 -184q-82 -74 -218 -74t-218 74q-71 64 -71 184v494h150v-494q10 -126 139 -130q135 7 139 130v494z" />
    <glyph glyph-name="uhungarumlaut" unicode="&#x171;" horiz-adv-x="611" 
d="M370 757l-126 -147h-70l70 147h126zM558 757l-126 -147h-70l70 147h126zM541 0h-140v64q-55 -82 -149 -87h-13q-127 0 -167 101q-14 38 -14 86v376h140v-347q0 -97 90 -97q74 0 102 56q11 22 11 50v338h140v-540z" />
    <glyph glyph-name="Uogonek" unicode="&#x172;" 
d="M597 -177v-47q-39 -10 -80 -10q-40 0 -76 12q-68 22 -68 84q0 54 59 100q18 14 45 31q-59 -16 -109 -16q-139 0 -221 74q-71 64 -71 184v494h150v-494q10 -126 139 -130q135 7 139 130v494h150v-494q0 -98 -52 -166q-17 -21 -75 -82q-65 -71 -65 -119q0 -51 77 -51
q29 0 58 6z" />
    <glyph glyph-name="uogonek" unicode="&#x173;" horiz-adv-x="611" 
d="M465 0h-64v64q-55 -82 -149 -87h-13q-127 0 -167 101q-14 38 -14 86v376h140v-347q0 -97 90 -97q74 0 102 56q11 22 11 50v338h140v-540q-110 -56 -111 -129q0 -53 76 -53q26 0 58 5v-47q-36 -9 -75 -9q-118 0 -143 64q-6 14 -6 31q0 58 57 102q10 8 22 15q14 9 46 21z
" />
    <glyph glyph-name="Wcircumflex" unicode="&#x174;" horiz-adv-x="944" 
d="M421 979h107l103 -150h-78l-82 100l-82 -100h-76zM730 0h-135l-122 569l-119 -569h-135l-206 729h159l113 -546l113 546h148l118 -547l109 547h159z" />
    <glyph glyph-name="wcircumflex" unicode="&#x175;" horiz-adv-x="778" 
d="M334 790h107l103 -150h-78l-82 100l-82 -100h-76zM613 0h-145l-81 381l-86 -381h-144l-152 540h145l86 -378l82 378h140l81 -378l82 378h145z" />
    <glyph glyph-name="Ycircumflex" unicode="&#x176;" horiz-adv-x="667" 
d="M287 979h107l103 -150h-78l-82 100l-82 -100h-76zM419 270v-270h-150v270l-242 459h167l149 -322l139 322h168z" />
    <glyph glyph-name="ycircumflex" unicode="&#x177;" horiz-adv-x="556" 
d="M222 790h107l103 -150h-78l-82 100l-82 -100h-76zM394 540h144l-222 -639q-25 -69 -55 -90q-10 -7 -24 -13q-41 -17 -101 -17q-22 0 -50 4v105q22 -6 37 -6q51 0 75 44q12 21 12 46v3v1l-201 562h154l119 -393z" />
    <glyph glyph-name="Ydieresis" unicode="&#x178;" horiz-adv-x="667" 
d="M304 922v-122h-110v122h110zM490 922v-122h-110v122h110zM419 270v-270h-150v270l-242 459h167l149 -322l139 322h168z" />
    <glyph glyph-name="Zacute" unicode="&#x179;" horiz-adv-x="611" 
d="M441 936l-126 -150h-70l70 150h126zM578 729v-125l-372 -479h372v-125h-548v125l373 479h-373v125h548z" />
    <glyph glyph-name="zacute" unicode="&#x17a;" horiz-adv-x="500" 
d="M387 757l-126 -150h-70l70 150h126zM459 540v-113l-265 -314h274v-113h-447v113l267 314h-249v113h420z" />
    <glyph glyph-name="Zdotaccent" unicode="&#x17b;" horiz-adv-x="611" 
d="M362 922v-122h-110v122h110zM578 729v-125l-372 -479h372v-125h-548v125l373 479h-373v125h548z" />
    <glyph glyph-name="zdotaccent" unicode="&#x17c;" horiz-adv-x="500" 
d="M306 743v-122h-110v122h110zM459 540v-113l-265 -314h274v-113h-447v113l267 314h-249v113h420z" />
    <glyph glyph-name="Zcaron" unicode="&#x17d;" horiz-adv-x="611" 
d="M358 786h-107l-103 150h78l82 -97l82 97h76zM578 729v-125l-372 -479h372v-125h-548v125l373 479h-373v125h548z" />
    <glyph glyph-name="zcaron" unicode="&#x17e;" horiz-adv-x="500" 
d="M302 607h-107l-103 150h78l82 -97l82 97h76zM459 540v-113l-265 -314h274v-113h-447v113l267 314h-249v113h420z" />
    <glyph glyph-name="longs" unicode="&#x17f;" horiz-adv-x="333" 
d="M230 0h-140v436h-76v93h76v65q0 135 138 135q41 0 80 -3v-105q-18 3 -40 3q-38 0 -38 -42v-582z" />
    <glyph glyph-name="florin" unicode="&#x192;" horiz-adv-x="556" 
d="M500 480v-97h-137l-59 -382q-19 -124 -68 -173q-48 -48 -125 -48q-47 0 -90 22l24 115q35 -21 57 -21q35 0 51 48q8 23 14 63l60 376h-123v97h138l11 59q27 167 129 197q25 8 57 8q40 0 96 -17l-20 -115q-36 16 -55 16q-58 0 -76 -107l-7 -41h123z" />
    <glyph glyph-name="uni01C4" unicode="&#x1c4;" horiz-adv-x="1333" 
d="M1080 786h-107l-103 150h78l82 -97l82 97h76zM1300 729v-125l-372 -479h372v-125h-548v125l373 479h-373v125h548zM77 0v729h285q147 0 215 -68q8 -8 15 -16q89 -106 89 -280q0 -176 -89 -280q-66 -80 -207 -85h-23h-285zM227 125h135q169 0 169 239q0 240 -169 240h-135
v-479z" />
    <glyph glyph-name="uni01C5" unicode="&#x1c5;" horiz-adv-x="1222" 
d="M1024 607h-107l-103 150h78l82 -97l82 97h76zM1181 540v-113l-265 -314h274v-113h-447v113l267 314h-249v113h420zM77 0v729h285q147 0 215 -68q8 -8 15 -16q89 -106 89 -280q0 -176 -89 -280q-66 -80 -207 -85h-23h-285zM227 125h135q169 0 169 239q0 240 -169 240h-135
v-479z" />
    <glyph glyph-name="uni01C6" unicode="&#x1c6;" horiz-adv-x="1111" 
d="M913 607h-107l-103 150h78l82 -97l82 97h76zM1070 540v-113l-265 -314h274v-113h-447v113l267 314h-249v113h420zM405 0v55q-52 -78 -149 -78q-84 0 -146 59q-13 13 -23 27q-58 84 -58 199q0 137 79 221q62 66 148 66q98 0 149 -79v259h140v-729h-140zM287 432
q-66 0 -98 -71q-20 -42 -20 -99q0 -103 57 -147q27 -21 61 -21q67 0 99 71q19 41 19 95q0 109 -59 153q-26 19 -59 19z" />
    <glyph glyph-name="uni01C7" unicode="&#x1c7;" horiz-adv-x="1167" 
d="M947 729h150v-539q0 -146 -119 -193q-49 -20 -115 -20q-103 0 -167 58q-57 53 -61 145v18v72h150v-70q0 -80 54 -92q12 -3 27 -3q73 0 80 70q1 7 1 15v539zM230 729v-604h349v-125h-499v729h150z" />
    <glyph glyph-name="uni01C8" unicode="&#x1c8;" horiz-adv-x="889" 
d="M821 540v-634q0 -95 -64 -116q-24 -8 -59 -8q-36 0 -83 5v112q13 -4 25 -4q36 0 40 28q1 6 1 14v603h140zM821 729v-125h-140v125h140zM230 729v-604h349v-125h-499v729h150z" />
    <glyph glyph-name="uni01C9" unicode="&#x1c9;" horiz-adv-x="556" 
d="M488 540v-634q0 -95 -64 -116q-24 -8 -59 -8q-36 0 -83 5v112q13 -4 25 -4q36 0 40 28q1 6 1 14v603h140zM488 729v-125h-140v125h140zM207 729v-729h-140v729h140z" />
    <glyph glyph-name="uni01CA" unicode="&#x1ca;" horiz-adv-x="1278" 
d="M1058 729h150v-539q0 -146 -119 -193q-49 -20 -115 -20q-103 0 -167 58q-57 53 -61 145v18v72h150v-70q0 -80 54 -92q12 -3 27 -3q73 0 80 70q1 7 1 15v539zM511 0l-293 504v-504h-150v729h154l289 -496v496h150v-729h-150z" />
    <glyph glyph-name="uni01CB" unicode="&#x1cb;" horiz-adv-x="1000" 
d="M932 540v-634q0 -95 -64 -116q-24 -8 -59 -8q-36 0 -83 5v112q13 -4 25 -4q36 0 40 28q1 6 1 14v603h140zM932 729v-125h-140v125h140zM511 0l-293 504v-504h-150v729h154l289 -496v496h150v-729h-150z" />
    <glyph glyph-name="uni01CC" unicode="&#x1cc;" horiz-adv-x="889" 
d="M821 540v-634q0 -95 -64 -116q-24 -8 -59 -8q-36 0 -83 5v112q13 -4 25 -4q36 0 40 28q1 6 1 14v603h140zM821 729v-125h-140v125h140zM63 540h140v-78q55 82 149 87h13q127 0 167 -101q14 -38 14 -86v-362h-140v333q0 97 -90 97q-74 0 -102 -56q-11 -22 -11 -50v-324
h-140v540z" />
    <glyph glyph-name="uni01CD" unicode="&#x1cd;" 
d="M419 801h-107l-103 150h78l82 -97l82 97h76zM501 147h-273l-49 -147h-153l259 729h166l252 -729h-154zM460 272l-95 285l-95 -285h190z" />
    <glyph glyph-name="uni01CE" unicode="&#x1ce;" horiz-adv-x="556" 
d="M322 609h-107l-103 150h78l82 -97l82 97h76zM524 17v-17h-152q-16 24 -16 54q-74 -77 -164 -77q-77 0 -126 51q-38 41 -38 111q0 143 159 170l56 10q68 11 83 18q1 1 5 3q24 13 24 42q0 54 -81 54q-68 0 -87 -32l-9 -24l-3 -18h-135q13 187 231 187q221 0 221 -166v-300
q0 -34 26 -60zM355 217v38q-19 -9 -59 -17l-48 -9q-66 -14 -77 -50l-3 -24q0 -49 49 -62q12 -3 27 -3q87 0 106 83q5 20 5 44z" />
    <glyph glyph-name="uni01CF" unicode="&#x1cf;" horiz-adv-x="278" 
d="M189 801h-107l-103 150h78l82 -97l82 97h76zM213 729v-729h-150v729h150z" />
    <glyph glyph-name="uni01D0" unicode="&#x1d0;" horiz-adv-x="278" 
d="M188 609h-107l-103 150h78l82 -97l82 97h76zM207 540v-540h-140v540h140z" />
    <glyph glyph-name="uni01D1" unicode="&#x1d1;" horiz-adv-x="778" 
d="M441 801h-107l-103 150h78l82 -97l82 97h76zM390 741q156 0 250 -101q98 -105 102 -273v-13q0 -133 -71 -237q-14 -21 -31 -39q-94 -101 -249 -101t-249 101q-90 96 -101 247q-1 17 -1 34q0 157 88 265l14 16q93 101 248 101zM391 613q-108 0 -163 -94l-18 -38
q-20 -54 -20 -122q0 -144 82 -213q50 -41 119 -41q105 0 161 92q40 65 40 158q0 154 -87 221q-48 37 -114 37z" />
    <glyph glyph-name="uni01D2" unicode="&#x1d2;" horiz-adv-x="611" 
d="M352 609h-107l-103 150h78l82 -97l82 97h76zM301 549q165 0 232 -125q36 -68 36 -165q0 -158 -103 -233q-67 -49 -164 -49q-156 0 -225 115q-42 70 -42 171q0 166 107 241q65 45 159 45zM302 436q-73 0 -107 -74q-20 -42 -20 -99q0 -106 61 -152q29 -21 66 -21
q71 0 106 71q21 43 21 100q0 113 -64 156q-33 17 -63 19z" />
    <glyph glyph-name="uni01D3" unicode="&#x1d3;" 
d="M416 801h-107l-103 150h78l82 -97l82 97h76zM504 729h150v-494q0 -120 -71 -184q-82 -74 -218 -74t-218 74q-71 64 -71 184v494h150v-494q10 -126 139 -130q135 7 139 130v494z" />
    <glyph glyph-name="uni01D4" unicode="&#x1d4;" horiz-adv-x="611" 
d="M350 609h-107l-103 150h78l82 -97l82 97h76zM541 0h-140v64q-55 -82 -149 -87h-13q-127 0 -167 101q-14 38 -14 86v376h140v-347q0 -97 90 -97q74 0 102 56q11 22 11 50v338h140v-540z" />
    <glyph glyph-name="uni01D5" unicode="&#x1d5;" 
d="M514 1061v-79h-299v79h299zM327 922v-122h-110v122h110zM513 922v-122h-110v122h110zM504 729h150v-494q0 -120 -71 -184q-82 -74 -218 -74t-218 74q-71 64 -71 184v494h150v-494q10 -126 139 -130q135 7 139 130v494z" />
    <glyph glyph-name="uni01D6" unicode="&#x1d6;" horiz-adv-x="611" 
d="M448 882v-79h-299v79h299zM260 743v-122h-110v122h110zM446 743v-122h-110v122h110zM541 0h-140v64q-55 -82 -149 -87h-13q-127 0 -167 101q-14 38 -14 86v376h140v-347q0 -97 90 -97q74 0 102 56q11 22 11 50v338h140v-540z" />
    <glyph glyph-name="uni01D7" unicode="&#x1d7;" 
d="M526 1132l-126 -150h-70l70 150h126zM327 922v-122h-110v122h110zM513 922v-122h-110v122h110zM504 729h150v-494q0 -120 -71 -184q-82 -74 -218 -74t-218 74q-71 64 -71 184v494h150v-494q10 -126 139 -130q135 7 139 130v494z" />
    <glyph glyph-name="uni01D8" unicode="&#x1d8;" horiz-adv-x="611" 
d="M459 953l-126 -150h-70l70 150h126zM260 743v-122h-110v122h110zM446 743v-122h-110v122h110zM541 0h-140v64q-55 -82 -149 -87h-13q-127 0 -167 101q-14 38 -14 86v376h140v-347q0 -97 90 -97q74 0 102 56q11 22 11 50v338h140v-540z" />
    <glyph glyph-name="uni01D9" unicode="&#x1d9;" 
d="M416 982h-107l-103 150h78l82 -97l82 97h76zM327 922v-122h-110v122h110zM513 922v-122h-110v122h110zM504 729h150v-494q0 -120 -71 -184q-82 -74 -218 -74t-218 74q-71 64 -71 184v494h150v-494q10 -126 139 -130q135 7 139 130v494z" />
    <glyph glyph-name="uni01DA" unicode="&#x1da;" horiz-adv-x="611" 
d="M349 803h-107l-103 150h78l82 -97l82 97h76zM260 743v-122h-110v122h110zM446 743v-122h-110v122h110zM541 0h-140v64q-55 -82 -149 -87h-13q-127 0 -167 101q-14 38 -14 86v376h140v-347q0 -97 90 -97q74 0 102 56q11 22 11 50v338h140v-540z" />
    <glyph glyph-name="uni01DB" unicode="&#x1db;" 
d="M204 1132h126l70 -150h-70zM327 922v-122h-110v122h110zM513 922v-122h-110v122h110zM504 729h150v-494q0 -120 -71 -184q-82 -74 -218 -74t-218 74q-71 64 -71 184v494h150v-494q10 -126 139 -130q135 7 139 130v494z" />
    <glyph glyph-name="uni01DC" unicode="&#x1dc;" horiz-adv-x="611" 
d="M137 953h126l70 -150h-70zM260 743v-122h-110v122h110zM446 743v-122h-110v122h110zM541 0h-140v64q-55 -82 -149 -87h-13q-127 0 -167 101q-14 38 -14 86v376h140v-347q0 -97 90 -97q74 0 102 56q11 22 11 50v338h140v-540z" />
    <glyph glyph-name="uni01DE" unicode="&#x1de;" 
d="M514 1061v-79h-299v79h299zM326 922v-122h-110v122h110zM512 922v-122h-110v122h110zM501 147h-273l-49 -147h-153l259 729h166l252 -729h-154zM460 272l-95 285l-95 -285h190z" />
    <glyph glyph-name="uni01DF" unicode="&#x1df;" horiz-adv-x="556" 
d="M421 882v-79h-299v79h299zM234 743v-122h-110v122h110zM420 743v-122h-110v122h110zM524 17v-17h-152q-16 24 -16 54q-74 -77 -164 -77q-77 0 -126 51q-38 41 -38 111q0 143 159 170l56 10q68 11 83 18q1 1 5 3q24 13 24 42q0 54 -81 54q-68 0 -87 -32l-9 -24l-3 -18
h-135q13 187 231 187q221 0 221 -166v-300q0 -34 26 -60zM355 217v38q-19 -9 -59 -17l-48 -9q-66 -14 -77 -50l-3 -24q0 -49 49 -62q12 -3 27 -3q87 0 106 83q5 20 5 44z" />
    <glyph glyph-name="uni01E2" unicode="&#x1e2;" horiz-adv-x="1000" 
d="M754 880v-79h-299v79h299zM430 152h-223l-53 -152h-153l263 729h682v-125h-366v-165h339v-125h-339v-189h386v-125h-536v152zM430 277v327h-67l-114 -327h181z" />
    <glyph glyph-name="uni01E3" unicode="&#x1e3;" horiz-adv-x="889" 
d="M585 688v-79h-299v79h299zM712 152h138q-30 -103 -129 -149q-55 -26 -121 -26q-136 0 -200 104q-83 -97 -185 -104q-10 -1 -20 -1q-105 0 -147 77q-21 38 -21 88q0 136 141 167l18 4l56 10q68 11 83 18q1 1 5 3q24 13 24 40q0 53 -85 53q-68 0 -86 -39q-6 -14 -9 -35
h-131q3 187 228 187q117 0 175 -50q62 50 155 50q134 0 204 -99l21 -35l10 -23q21 -60 21 -142q0 -12 -1 -24h-362q0 -62 20 -93q32 -49 94 -49q57 0 89 41q11 13 15 27zM354 216v38q-22 -13 -59 -19l-48 -7q-80 -11 -80 -73q0 -51 50 -63q12 -3 26 -3q95 0 109 96
q2 15 2 31zM495 319h216q-11 123 -109 123t-107 -123z" />
    <glyph glyph-name="Gcaron" unicode="&#x1e6;" horiz-adv-x="778" 
d="M446 801h-107l-103 150h78l82 -97l82 97h76zM711 392v-394h-90l-18 96q-68 -100 -174 -114q-22 -3 -46 -3q-149 0 -245 109q-96 108 -96 273q0 183 111 289q96 93 242 93q166 0 254 -101l24 -32q31 -50 38 -112h-141q-17 49 -45 73q-50 44 -129 44q-123 0 -175 -108
q-29 -59 -29 -144q0 -133 79 -206q54 -50 129 -50q87 0 145 65q2 2 4 5q31 36 36 92h-166v125h292z" />
    <glyph glyph-name="gcaron" unicode="&#x1e7;" horiz-adv-x="611" 
d="M309 609h-107l-103 150h78l82 -97l82 97h76zM408 540h133v-558q0 -130 -122 -178q-38 -15 -86 -20q-23 -2 -49 -2q-122 0 -186 52q-52 43 -53 101h145q17 -63 99 -63q74 0 105 55q14 24 14 55v73q-56 -63 -110 -74q-19 -4 -43 -4q-115 0 -176 99q-45 74 -45 181
q0 141 79 226q61 66 145 66q87 0 146 -86l4 -6v83zM288 432q-65 0 -96 -73q-18 -43 -18 -100q0 -102 55 -145q26 -20 57 -20q70 0 104 70q20 40 20 95q0 98 -55 147q-30 26 -67 26z" />
    <glyph glyph-name="uni01E8" unicode="&#x1e8;" 
d="M431 801h-107l-103 150h78l82 -97l82 97h76zM224 244v-244h-150v729h150v-320l285 320h177l-291 -314l322 -415h-179l-239 322z" />
    <glyph glyph-name="uni01E9" unicode="&#x1e9;" horiz-adv-x="556" 
d="M180 789h-107l-103 150h78l82 -97l82 97h76zM199 330l177 210h159l-184 -204l197 -336h-164l-129 238l-56 -61v-177h-140v729h140v-399z" />
    <glyph glyph-name="uni01EA" unicode="&#x1ea;" horiz-adv-x="778" 
d="M353 -15h75q-82 -51 -100 -88q-9 -19 -9 -45q0 -50 76 -50q30 0 57 6v-47q-39 -10 -79 -10q-104 0 -135 57q-9 17 -9 38q0 73 81 119q20 12 43 20zM390 741q156 0 250 -101q98 -105 102 -273v-13q0 -133 -71 -237q-14 -21 -31 -39q-94 -101 -249 -101t-249 101
q-90 96 -101 247q-1 17 -1 34q0 157 88 265l14 16q93 101 248 101zM391 613q-108 0 -163 -94l-18 -38q-20 -54 -20 -122q0 -144 82 -213q50 -41 119 -41q105 0 161 92q40 65 40 158q0 154 -87 221q-48 37 -114 37z" />
    <glyph glyph-name="uni01EB" unicode="&#x1eb;" horiz-adv-x="611" 
d="M264 -15h75q-82 -51 -100 -88q-9 -19 -9 -45q0 -50 76 -50q30 0 57 6v-47q-39 -10 -79 -10q-104 0 -135 57q-9 17 -9 38q0 73 81 119q20 12 43 20zM301 549q165 0 232 -125q36 -68 36 -165q0 -158 -103 -233q-67 -49 -164 -49q-156 0 -225 115q-42 70 -42 171
q0 166 107 241q65 45 159 45zM302 436q-73 0 -107 -74q-20 -42 -20 -99q0 -106 61 -152q29 -21 66 -21q71 0 106 71q21 43 21 100q0 113 -64 156q-33 17 -63 19z" />
    <glyph glyph-name="uni01EC" unicode="&#x1ec;" horiz-adv-x="778" 
d="M539 880v-79h-299v79h299zM353 -15h75q-82 -51 -100 -88q-9 -19 -9 -45q0 -50 76 -50q30 0 57 6v-47q-39 -10 -79 -10q-104 0 -135 57q-9 17 -9 38q0 73 81 119q20 12 43 20zM390 741q156 0 250 -101q98 -105 102 -273v-13q0 -133 -71 -237q-14 -21 -31 -39
q-94 -101 -249 -101t-249 101q-90 96 -101 247q-1 17 -1 34q0 157 88 265l14 16q93 101 248 101zM391 613q-108 0 -163 -94l-18 -38q-20 -54 -20 -122q0 -144 82 -213q50 -41 119 -41q105 0 161 92q40 65 40 158q0 154 -87 221q-48 37 -114 37z" />
    <glyph glyph-name="uni01ED" unicode="&#x1ed;" horiz-adv-x="611" 
d="M450 688v-79h-299v79h299zM264 -15h75q-82 -51 -100 -88q-9 -19 -9 -45q0 -50 76 -50q30 0 57 6v-47q-39 -10 -79 -10q-104 0 -135 57q-9 17 -9 38q0 73 81 119q20 12 43 20zM301 549q165 0 232 -125q36 -68 36 -165q0 -158 -103 -233q-67 -49 -164 -49q-156 0 -225 115
q-42 70 -42 171q0 166 107 241q65 45 159 45zM302 436q-73 0 -107 -74q-20 -42 -20 -99q0 -106 61 -152q29 -21 66 -21q71 0 106 71q21 43 21 100q0 113 -64 156q-33 17 -63 19z" />
    <glyph glyph-name="uni01F1" unicode="&#x1f1;" horiz-adv-x="1333" 
d="M1300 729v-125l-372 -479h372v-125h-548v125l373 479h-373v125h548zM77 0v729h285q147 0 215 -68q8 -8 15 -16q89 -106 89 -280q0 -176 -89 -280q-66 -80 -207 -85h-23h-285zM227 125h135q169 0 169 239q0 240 -169 240h-135v-479z" />
    <glyph glyph-name="uni01F2" unicode="&#x1f2;" horiz-adv-x="1222" 
d="M1181 540v-113l-265 -314h274v-113h-447v113l267 314h-249v113h420zM77 0v729h285q147 0 215 -68q8 -8 15 -16q89 -106 89 -280q0 -176 -89 -280q-66 -80 -207 -85h-23h-285zM227 125h135q169 0 169 239q0 240 -169 240h-135v-479z" />
    <glyph glyph-name="uni01F3" unicode="&#x1f3;" horiz-adv-x="1111" 
d="M1070 540v-113l-265 -314h274v-113h-447v113l267 314h-249v113h420zM405 0v55q-52 -78 -149 -78q-84 0 -146 59q-13 13 -23 27q-58 84 -58 199q0 137 79 221q62 66 148 66q98 0 149 -79v259h140v-729h-140zM287 432q-66 0 -98 -71q-20 -42 -20 -99q0 -103 57 -147
q27 -21 61 -21q67 0 99 71q19 41 19 95q0 109 -59 153q-26 19 -59 19z" />
    <glyph glyph-name="uni01F8" unicode="&#x1f8;" 
d="M203 951h126l70 -150h-70zM511 0l-293 504v-504h-150v729h154l289 -496v496h150v-729h-150z" />
    <glyph glyph-name="uni01F9" unicode="&#x1f9;" horiz-adv-x="611" 
d="M143 759h126l70 -150h-70zM63 540h140v-78q55 82 149 87h13q127 0 167 -101q14 -38 14 -86v-362h-140v333q0 97 -90 97q-74 0 -102 -56q-11 -22 -11 -50v-324h-140v540z" />
    <glyph glyph-name="Aringacute" unicode="&#x1fa;" 
d="M525 1159l-126 -150h-70l70 150h126zM364 949q51 0 77 -44q12 -21 12 -47q0 -49 -42 -75q-22 -14 -48 -14q-51 0 -77 43q-13 22 -13 47q0 51 44 77q21 13 47 13zM364 901q-29 0 -40 -27q-3 -7 -3 -15q0 -28 26 -39q8 -3 17 -3q26 0 37 25q4 8 4 17q0 28 -26 39
q-7 3 -15 3zM501 147h-273l-49 -147h-153l259 729h166l252 -729h-154zM460 272l-95 285l-95 -285h190z" />
    <glyph glyph-name="aringacute" unicode="&#x1fb;" horiz-adv-x="556" 
d="M434 980l-126 -150h-70l70 150h126zM273 770q51 0 77 -44q12 -21 12 -47q0 -49 -42 -75q-22 -14 -48 -14q-51 0 -77 43q-13 22 -13 47q0 51 44 77q21 13 47 13zM273 722q-29 0 -40 -27q-3 -7 -3 -15q0 -28 26 -39q8 -3 17 -3q26 0 37 25q4 8 4 17q0 28 -26 39q-7 3 -15 3
zM524 17v-17h-152q-16 24 -16 54q-74 -77 -164 -77q-77 0 -126 51q-38 41 -38 111q0 143 159 170l56 10q68 11 83 18q1 1 5 3q24 13 24 42q0 54 -81 54q-68 0 -87 -32l-9 -24l-3 -18h-135q13 187 231 187q221 0 221 -166v-300q0 -34 26 -60zM355 217v38q-19 -9 -59 -17
l-48 -9q-66 -14 -77 -50l-3 -24q0 -49 49 -62q12 -3 27 -3q87 0 106 83q5 20 5 44z" />
    <glyph glyph-name="AEacute" unicode="&#x1fc;" horiz-adv-x="1000" 
d="M766 951l-126 -150h-70l70 150h126zM430 152h-223l-53 -152h-153l263 729h682v-125h-366v-165h339v-125h-339v-189h386v-125h-536v152zM430 277v327h-67l-114 -327h181z" />
    <glyph glyph-name="aeacute" unicode="&#x1fd;" horiz-adv-x="889" 
d="M597 759l-126 -150h-70l70 150h126zM712 152h138q-30 -103 -129 -149q-55 -26 -121 -26q-136 0 -200 104q-83 -97 -185 -104q-10 -1 -20 -1q-105 0 -147 77q-21 38 -21 88q0 136 141 167l18 4l56 10q68 11 83 18q1 1 5 3q24 13 24 40q0 53 -85 53q-68 0 -86 -39
q-6 -14 -9 -35h-131q3 187 228 187q117 0 175 -50q62 50 155 50q134 0 204 -99l21 -35l10 -23q21 -60 21 -142q0 -12 -1 -24h-362q0 -62 20 -93q32 -49 94 -49q57 0 89 41q11 13 15 27zM354 216v38q-22 -13 -59 -19l-48 -7q-80 -11 -80 -73q0 -51 50 -63q12 -3 26 -3
q95 0 109 96q2 15 2 31zM495 319h216q-11 123 -109 123t-107 -123z" />
    <glyph glyph-name="Oslashacute" unicode="&#x1fe;" horiz-adv-x="778" 
d="M552 959l-126 -150h-70l70 150h126zM165 52l-83 -91l-51 46l86 95q-82 110 -82 257q0 154 85 260l18 21q94 101 250 101q131 0 222 -76l10 -8l83 92l52 -45l-89 -99q67 -92 73 -226q1 -11 1 -22q0 -145 -79 -250q-11 -16 -24 -29q-94 -101 -249 -101q-136 0 -223 75z
M567 497l-311 -344q50 -48 132 -48q109 0 164 96q38 65 38 160q0 75 -23 136zM214 209l314 346q-55 58 -140 58q-112 0 -167 -99q-36 -65 -36 -158q0 -83 29 -147z" />
    <glyph glyph-name="oslashacute" unicode="&#x1ff;" horiz-adv-x="611" 
d="M463 767l-126 -150h-70l70 150h126zM126 35l-72 -73l-43 40l75 77q-50 72 -50 184q0 169 111 243q65 43 158 43q107 0 182 -62l68 70l43 -41l-72 -73q47 -73 47 -180q0 -166 -108 -241q-65 -45 -159 -45q-105 0 -171 50q-5 4 -9 8zM421 336l-201 -204q36 -42 86 -42
q68 0 104 69q23 43 23 101q0 40 -12 76zM190 184l202 206q-39 47 -89 47q-70 0 -105 -71q-22 -43 -22 -100q0 -46 14 -82z" />
    <glyph glyph-name="uni0202" unicode="&#x202;" 
d="M500 801v11q0 71 -57 110q-33 22 -75 22q-72 0 -110 -57q-22 -34 -22 -76v-10h56q9 66 77 66q61 0 74 -59q0 -3 1 -7h56zM501 147h-273l-49 -147h-153l259 729h166l252 -729h-154zM460 272l-95 285l-95 -285h190z" />
    <glyph glyph-name="uni0203" unicode="&#x203;" horiz-adv-x="556" 
d="M403 609v11q0 71 -57 110q-33 22 -75 22q-72 0 -110 -57q-22 -34 -22 -76v-10h56q9 66 77 66q61 0 74 -59q0 -3 1 -7h56zM524 17v-17h-152q-16 24 -16 54q-74 -77 -164 -77q-77 0 -126 51q-38 41 -38 111q0 143 159 170l56 10q68 11 83 18q1 1 5 3q24 13 24 42
q0 54 -81 54q-68 0 -87 -32l-9 -24l-3 -18h-135q13 187 231 187q221 0 221 -166v-300q0 -34 26 -60zM355 217v38q-19 -9 -59 -17l-48 -9q-66 -14 -77 -50l-3 -24q0 -49 49 -62q12 -3 27 -3q87 0 106 83q5 20 5 44z" />
    <glyph glyph-name="uni0206" unicode="&#x206;" horiz-adv-x="667" 
d="M474 801v11q0 71 -57 110q-33 22 -75 22q-72 0 -110 -57q-22 -34 -22 -76v-10h56q9 66 77 66q61 0 74 -59q0 -3 1 -7h56zM229 314v-189h395v-125h-545v729h527v-125h-377v-165h349v-125h-349z" />
    <glyph glyph-name="uni0207" unicode="&#x207;" horiz-adv-x="556" 
d="M404 609v11q0 71 -57 110q-33 22 -75 22q-72 0 -110 -57q-22 -34 -22 -76v-10h56q9 66 77 66q61 0 74 -59q0 -3 1 -7h56zM524 226h-362q3 -68 20 -95q31 -47 92 -47q75 0 104 61q2 3 3 7h138q-29 -101 -126 -147q-56 -28 -124 -28q-142 0 -207 110q-40 69 -40 169
q0 173 104 249q60 44 146 44q125 0 195 -90q21 -27 34 -60q2 -4 3 -7q21 -61 21 -142q0 -12 -1 -24zM164 319h215q-4 50 -22 78q-32 45 -87 45q-92 0 -106 -123z" />
    <glyph glyph-name="uni020A" unicode="&#x20a;" horiz-adv-x="278" 
d="M270 801v11q0 71 -57 110q-33 22 -75 22q-72 0 -110 -57q-22 -34 -22 -76v-10h56q9 66 77 66q61 0 74 -59q0 -3 1 -7h56zM213 729v-729h-150v729h150z" />
    <glyph glyph-name="uni020B" unicode="&#x20b;" horiz-adv-x="278" 
d="M269 609v11q0 71 -57 110q-33 22 -75 22q-72 0 -110 -57q-22 -34 -22 -76v-10h56q9 66 77 66q61 0 74 -59q0 -3 1 -7h56zM207 540v-540h-140v540h140z" />
    <glyph glyph-name="uni020E" unicode="&#x20e;" horiz-adv-x="778" 
d="M522 801v11q0 71 -57 110q-33 22 -75 22q-72 0 -110 -57q-22 -34 -22 -76v-10h56q9 66 77 66q61 0 74 -59q0 -3 1 -7h56zM390 741q156 0 250 -101q98 -105 102 -273v-13q0 -133 -71 -237q-14 -21 -31 -39q-94 -101 -249 -101t-249 101q-90 96 -101 247q-1 17 -1 34
q0 157 88 265l14 16q93 101 248 101zM391 613q-108 0 -163 -94l-18 -38q-20 -54 -20 -122q0 -144 82 -213q50 -41 119 -41q105 0 161 92q40 65 40 158q0 154 -87 221q-48 37 -114 37z" />
    <glyph glyph-name="uni020F" unicode="&#x20f;" horiz-adv-x="611" 
d="M433 609v11q0 71 -57 110q-33 22 -75 22q-72 0 -110 -57q-22 -34 -22 -76v-10h56q9 66 77 66q61 0 74 -59q0 -3 1 -7h56zM301 549q165 0 232 -125q36 -68 36 -165q0 -158 -103 -233q-67 -49 -164 -49q-156 0 -225 115q-42 70 -42 171q0 166 107 241q65 45 159 45z
M302 436q-73 0 -107 -74q-20 -42 -20 -99q0 -106 61 -152q29 -21 66 -21q71 0 106 71q21 43 21 100q0 113 -64 156q-33 17 -63 19z" />
    <glyph glyph-name="uni0212" unicode="&#x212;" 
d="M407 801v11q0 71 -57 110q-33 22 -75 22q-72 0 -110 -57q-22 -34 -22 -76v-10h56q9 66 77 66q61 0 74 -59q0 -3 1 -7h56zM230 289v-289h-150v729h391q92 0 141 -50q55 -57 55 -147q0 -132 -123 -180q57 -25 73 -46q22 -30 26 -130l2 -89q0 -40 28 -57q2 -2 4 -3v-27h-161
q-21 38 -23 93v32q0 29 1 48q1 13 1 29q0 73 -61 84q-14 3 -32 3h-172zM230 414h181q57 0 79 19q27 24 27 78q0 51 -27 74q-28 18 -79 19h-181v-190z" />
    <glyph glyph-name="uni0213" unicode="&#x213;" horiz-adv-x="389" 
d="M348 609v11q0 71 -57 110q-33 22 -75 22q-72 0 -110 -57q-22 -34 -22 -76v-10h56q9 66 77 66q61 0 74 -59q0 -3 1 -7h56zM63 540h140v-106q37 90 114 110q18 5 36 5q9 0 17 -1v-142q-25 4 -44 4q-123 0 -123 -123v-287h-140v540z" />
    <glyph glyph-name="uni0216" unicode="&#x216;" 
d="M497 801v11q0 71 -57 110q-33 22 -75 22q-72 0 -110 -57q-22 -34 -22 -76v-10h56q9 66 77 66q61 0 74 -59q0 -3 1 -7h56zM504 729h150v-494q0 -120 -71 -184q-82 -74 -218 -74t-218 74q-71 64 -71 184v494h150v-494q10 -126 139 -130q135 7 139 130v494z" />
    <glyph glyph-name="uni0217" unicode="&#x217;" horiz-adv-x="611" 
d="M431 609v11q0 71 -57 110q-33 22 -75 22q-72 0 -110 -57q-22 -34 -22 -76v-10h56q9 66 77 66q61 0 74 -59q0 -3 1 -7h56zM541 0h-140v64q-55 -82 -149 -87h-13q-127 0 -167 101q-14 38 -14 86v376h140v-347q0 -97 90 -97q74 0 102 56q11 22 11 50v338h140v-540z" />
    <glyph glyph-name="Scommaaccent" unicode="&#x218;" horiz-adv-x="667" 
d="M282 -60h122v-103q0 -82 -57 -122q-28 -21 -65 -22v46q67 13 67 89h-67v112zM607 507h-140q-7 101 -125 113q-13 1 -28 1q-90 0 -117 -53l-8 -22q-1 -7 -1 -15q0 -46 42 -67q30 -15 96 -28l114 -22q145 -28 180 -119q13 -35 13 -82q0 -141 -123 -201q-72 -35 -176 -35
q-215 0 -279 142q-20 43 -23 99h146q6 -100 117 -118q22 -3 47 -3q108 0 138 60q9 17 9 38q0 58 -58 84q-29 13 -79 22l-102 20q-144 27 -184 100q-21 38 -21 96q0 143 125 197q63 27 151 27q160 0 235 -83q51 -57 51 -151z" />
    <glyph glyph-name="scommaaccent" unicode="&#x219;" horiz-adv-x="556" 
d="M227 -60h122v-103q0 -82 -57 -122q-28 -21 -65 -22v46q67 13 67 89h-67v112zM505 366h-135q-1 73 -101 73q-64 0 -78 -35l-3 -15q0 -22 24 -33q9 -4 25 -9l177 -51q106 -31 106 -136q0 -80 -60 -131l-4 -4q-60 -48 -172 -48q-232 0 -253 157q-2 11 -2 23h137
q8 -36 27 -51q29 -19 83 -19q90 0 102 42q2 5 2 11q0 26 -31 38q-7 3 -16 6l-167 52q-62 20 -85 42l-3 3q-30 33 -30 88q0 108 96 154q52 26 126 26q152 0 209 -91q25 -39 26 -92z" />
    <glyph glyph-name="Tcommaaccent" unicode="&#x21a;" horiz-adv-x="611" 
d="M252 -60h122v-103q0 -82 -57 -122q-28 -21 -65 -22v46q67 13 67 89h-67v112zM385 604v-604h-150v604h-221v125h584v-125h-213z" />
    <glyph glyph-name="tcommaaccent" unicode="&#x21b;" horiz-adv-x="333" 
d="M127 -60h122v-103q0 -82 -57 -122q-28 -21 -65 -22v46q67 13 67 89h-67v112zM301 529v-93h-78v-294q0 -46 18 -55q10 -4 28 -4q11 0 32 3v-98q-34 -11 -81 -11q-137 0 -137 127v332h-69v93h69v145h140v-145h78z" />
    <glyph glyph-name="circumflex" unicode="&#x2c6;" horiz-adv-x="333" 
d="M116 757h107l103 -150h-78l-82 100l-82 -100h-76z" />
    <glyph glyph-name="caron" unicode="&#x2c7;" horiz-adv-x="333" 
d="M219 607h-107l-103 150h78l82 -97l82 97h76z" />
    <glyph glyph-name="breve" unicode="&#x2d8;" horiz-adv-x="333" 
d="M299 748v-11q0 -71 -57 -110q-33 -22 -75 -22q-72 0 -110 57q-22 34 -22 76v10h56q9 -66 77 -66q61 0 74 59q0 3 1 7h56z" />
    <glyph glyph-name="dotaccent" unicode="&#x2d9;" horiz-adv-x="333" 
d="M222 743v-122h-110v122h110z" />
    <glyph glyph-name="ring" unicode="&#x2da;" horiz-adv-x="333" 
d="M168 770q51 0 77 -44q12 -21 12 -47q0 -49 -42 -75q-22 -14 -48 -14q-51 0 -77 43q-13 22 -13 47q0 51 44 77q21 13 47 13zM168 722q-29 0 -40 -27q-3 -7 -3 -15q0 -28 26 -39q8 -3 17 -3q26 0 37 25q4 8 4 17q0 28 -26 39q-7 3 -15 3z" />
    <glyph glyph-name="ogonek" unicode="&#x2db;" horiz-adv-x="333" 
d="M169 0h75q-82 -51 -100 -88q-9 -19 -9 -45q0 -50 76 -50q30 0 57 6v-47q-39 -10 -79 -10q-104 0 -135 57q-9 17 -9 38q0 73 81 119q20 12 43 20z" />
    <glyph glyph-name="tilde" unicode="&#x2dc;" horiz-adv-x="333" 
d="M282 749h63q-6 -127 -95 -127q-24 0 -55 12l-71 26q-18 6 -30 6q-30 0 -38 -35l-2 -10h-63q5 98 66 119q13 5 28 5q20 0 56 -13l71 -25q14 -6 34 -6q32 0 36 48z" />
    <glyph glyph-name="hungarumlaut" unicode="&#x2dd;" horiz-adv-x="333" 
d="M152 757l-126 -147h-70l70 147h126zM340 757l-126 -147h-70l70 147h126z" />
    <glyph glyph-name="uni0374" unicode="&#x374;" horiz-adv-x="379" 
d="M329 789l-209 -186h-64l91 186h182z" />
    <glyph glyph-name="uni0375" unicode="&#x375;" horiz-adv-x="379" 
d="M58 -186l209 186h64l-91 -186h-182z" />
    <glyph glyph-name="uni037A" unicode="&#x37a;" horiz-adv-x="332" 
d="M316 -192q0 -46 -29 -56l-30 -4q-12 -1 -39 -1q-88 0 -88 79v99h91l1 -104q3 -36 31 -37q25 1 27 7l7 17h29z" />
    <glyph glyph-name="uni037E" unicode="&#x37e;" horiz-adv-x="333" 
d="M113 146h150v-137q0 -90 -34 -128q-9 -9 -20 -18q-39 -30 -96 -37v56q76 16 85 92q1 11 1 23v3h-86v146zM263 520v-146h-150v146h150z" />
    <glyph glyph-name="tonos" unicode="&#x384;" horiz-adv-x="325" 
d="M166 789l-34 -201h-76l-23 201h133z" />
    <glyph glyph-name="dieresistonos" unicode="&#x385;" horiz-adv-x="658" 
d="M241 945l-34 -201h-76l-23 201h133zM128 743v-122h-110v122h110zM314 743v-122h-110v122h110z" />
    <glyph glyph-name="Alphatonos" unicode="&#x386;" horiz-adv-x="761" 
d="M125 750l-34 -201h-76l-23 201h133zM501 147h-273l-49 -147h-153l259 729h166l252 -729h-154zM460 272l-95 285l-95 -285h190z" />
    <glyph glyph-name="anoteleia" unicode="&#x387;" horiz-adv-x="474" 
d="M172 287q0 49 42 68q17 7 36 7q53 0 72 -43q6 -15 6 -32q0 -47 -41 -67q-17 -7 -37 -7q-53 0 -72 43q-6 15 -6 31z" />
    <glyph glyph-name="Epsilontonos" unicode="&#x388;" horiz-adv-x="706" 
d="M-18 749l-34 -201h-76l-23 201h133zM229 314v-189h395v-125h-545v729h527v-125h-377v-165h349v-125h-349z" />
    <glyph glyph-name="Etatonos" unicode="&#x389;" horiz-adv-x="733" 
d="M-21 744l-34 -201h-76l-23 201h133zM507 331h-289v-331h-150v729h150v-273h288v273h151v-729h-150v331z" />
    <glyph glyph-name="Iotatonos" unicode="&#x38a;" horiz-adv-x="285" 
d="M-19 746l-34 -201h-76l-23 201h133zM213 729v-729h-150v729h150z" />
    <glyph glyph-name="Omicrontonos" unicode="&#x38c;" horiz-adv-x="785" 
d="M37 744l-34 -201h-76l-23 201h133zM720 361q0 -175 -93 -274q-92 -99 -240 -99q-150 0 -240 99q-93 99 -93 274q0 171 93 269q90 100 240 100t240 -100q93 -98 93 -269zM588 359q0 136 -60 194q-61 56 -141 56t-141 -56q-60 -58 -60 -194q0 -137 60 -194q61 -57 141 -57
t141 57q60 57 60 194z" />
    <glyph glyph-name="Upsilontonos" unicode="&#x38e;" horiz-adv-x="823" 
d="M-33 746l-34 -201h-76l-23 201h133zM765 732l-309 -425v-307h-144v307l-298 425h175l149 -217l52 -81l56 86l147 212h172z" />
    <glyph glyph-name="Omegatonos" unicode="&#x38f;" horiz-adv-x="819" 
d="M0 743l-34 -201h-76l-23 201h133zM733 366q0 -167 -122 -261h120v-122h-328v117q101 41 144 108q43 71 43 156q0 101 -58 174q-62 72 -164 72q-117 0 -176 -106q-5 -10 -10 -19q-25 -56 -25 -124q0 -84 40 -150q40 -70 134 -110v-118h-317v122h123q-118 99 -118 257
q0 157 103 267q26 28 56 50q81 53 188 53q119 0 203 -53q83 -54 124 -138q40 -85 40 -175z" />
    <glyph glyph-name="Alpha" unicode="&#x391;" 
d="M501 147h-273l-49 -147h-153l259 729h166l252 -729h-154zM460 272l-95 285l-95 -285h190z" />
    <glyph glyph-name="Beta" unicode="&#x392;" 
d="M82 0v729h325q110 0 172 -53q60 -52 66 -127v-12q0 -72 -63 -124l-37 -26q121 -71 121 -177q0 -79 -54 -139l-18 -18q-63 -53 -184 -53h-328zM232 604v-165h163q101 7 106 82q0 78 -95 83h-11h-163zM232 314v-189h179q108 5 111 94q0 95 -111 95h-179z" />
    <glyph glyph-name="Gamma" unicode="&#x393;" horiz-adv-x="642" 
d="M591 595h-388v-595h-146v729h534v-134z" />
    <glyph glyph-name="glyph410" unicode="&#x394;" horiz-adv-x="726" 
d="M0 0l281 729h145l298 -729h-724zM517 125l-162 424l-152 -424h314z" />
    <glyph glyph-name="Epsilon" unicode="&#x395;" horiz-adv-x="667" 
d="M229 314v-189h395v-125h-545v729h527v-125h-377v-165h349v-125h-349z" />
    <glyph glyph-name="Zeta" unicode="&#x396;" horiz-adv-x="611" 
d="M578 729v-125l-372 -479h372v-125h-548v125l373 479h-373v125h548z" />
    <glyph glyph-name="Eta" unicode="&#x397;" 
d="M507 331h-289v-331h-150v729h150v-273h288v273h151v-729h-150v331z" />
    <glyph glyph-name="Theta" unicode="&#x398;" horiz-adv-x="810" 
d="M743 364q0 -198 -147 -299l-29 -18q-81 -44 -182 -44q-88 0 -171 36q-154 70 -181 245q-6 35 -6 72q0 163 89 259q5 6 11 12q87 91 236 99h22q148 0 246 -87q106 -88 112 -257v-18zM599 364q0 152 -102 213l-24 12q-41 17 -88 17q-151 0 -198 -136q-17 -50 -17 -115
q0 -107 61 -170q54 -61 152 -61q129 0 185 101q2 4 3 7q28 53 28 132zM571 314h-376v122h376v-122z" />
    <glyph glyph-name="Iota" unicode="&#x399;" horiz-adv-x="278" 
d="M213 729v-729h-150v729h150z" />
    <glyph glyph-name="Kappa" unicode="&#x39a;" 
d="M224 244v-244h-150v729h150v-320l285 320h177l-291 -314l322 -415h-179l-239 322z" />
    <glyph glyph-name="Lambda" unicode="&#x39b;" horiz-adv-x="744" 
d="M373 539l-195 -536h-144l275 714h126l292 -714h-149z" />
    <glyph glyph-name="Mu" unicode="&#x39c;" horiz-adv-x="860" 
d="M781 -7h-145v455l-169 -455h-125l-166 461v-461h-145v732h191q20 -14 193 -520q20 58 146 397q26 68 45 123h175v-732z" />
    <glyph glyph-name="Nu" unicode="&#x39d;" horiz-adv-x="714" 
d="M645 -8h-135l-337 481v-481h-142v732h137l337 -482v482h140v-732z" />
    <glyph glyph-name="Xi" unicode="&#x39e;" horiz-adv-x="690" 
d="M613 600h-568v127h568v-127zM557 310h-450v127h450v-127zM629 1h-584v127h584v-127z" />
    <glyph glyph-name="Omicron" unicode="&#x39f;" horiz-adv-x="822" 
d="M720 361q0 -175 -93 -274q-92 -99 -240 -99q-150 0 -240 99q-93 99 -93 274q0 171 93 269q90 100 240 100t240 -100q93 -98 93 -269zM588 359q0 136 -60 194q-61 56 -141 56t-141 -56q-60 -58 -60 -194q0 -137 60 -194q61 -57 141 -57t141 57q60 57 60 194z" />
    <glyph glyph-name="Pi" unicode="&#x3a0;" horiz-adv-x="781" 
d="M665 -7h-144v603h-322v-603h-144v731h610v-731z" />
    <glyph glyph-name="Rho" unicode="&#x3a1;" horiz-adv-x="698" 
d="M649 503q0 -67 -28 -117q-29 -54 -96 -86q-66 -29 -169 -29h-159v-279h-144v732h295q82 0 120 -7q64 -12 105 -46t58 -78q18 -43 18 -90zM501 499q0 73 -64 92q-28 4 -81 4h-159v-196h161q78 0 113 25q30 22 30 75z" />
    <glyph glyph-name="Sigma" unicode="&#x3a3;" horiz-adv-x="688" 
d="M631 -10h-616v117l229 275l-195 228v113h562v-128h-368l18 -22q12 -13 18 -21l146 -170l-214 -254l-9 -10h429v-128z" />
    <glyph glyph-name="Tau" unicode="&#x3a4;" horiz-adv-x="688" 
d="M632 604h-238v-603h-144v603h-236v128h618v-128z" />
    <glyph glyph-name="Upsilon" unicode="&#x3a5;" horiz-adv-x="804" 
d="M765 732l-309 -425v-307h-144v307l-298 425h175l149 -217l52 -81l56 86l147 212h172z" />
    <glyph glyph-name="Phi" unicode="&#x3a6;" horiz-adv-x="777" 
d="M713 348q0 -128 -90 -210q-78 -73 -198 -80v-71h-133v71q-120 7 -198 80q-90 82 -90 210q0 127 90 213q80 75 199 83v79h131v-79q120 -8 198 -83q91 -86 91 -213zM572 353q0 99 -86 147q-28 16 -61 23v-348q98 21 132 103q15 34 15 75zM292 175v348q-99 -22 -133 -100
q-12 -27 -14 -58v-12q0 -77 48 -126q42 -40 99 -52z" />
    <glyph glyph-name="Chi" unicode="&#x3a7;" horiz-adv-x="783" 
d="M767 -7h-181l-180 242l-21 29q-4 -6 -190 -253q-9 -12 -14 -18h-178l300 383l-265 352h175q14 -21 111 -146q42 -55 66 -93l165 207l25 32h168l-274 -348z" />
    <glyph glyph-name="Psi" unicode="&#x3a8;" horiz-adv-x="805" 
d="M719 369q0 -95 -45 -152q-46 -58 -118 -75q-34 -10 -112 -10h1v-142h-144v142h1q-111 0 -162 27q-17 9 -34 23q-79 62 -79 187v363l140 -4v-347q0 -78 40 -102q5 -3 11 -6q30 -13 86 -13h1v469h136v-469h1q102 0 124 48q13 26 13 73v347l140 4v-363z" />
    <glyph glyph-name="Omega" unicode="&#x3a9;" horiz-adv-x="780" 
d="M733 366q0 -167 -122 -261h120v-122h-328v117q101 41 144 108q43 71 43 156q0 101 -58 174q-62 72 -164 72q-117 0 -176 -106q-5 -10 -10 -19q-25 -56 -25 -124q0 -84 40 -150q40 -70 134 -110v-118h-317v122h123q-118 99 -118 257q0 157 103 267q26 28 56 50
q81 53 188 53q119 0 203 -53q83 -54 124 -138q40 -85 40 -175z" />
    <glyph glyph-name="Iotadieresis" unicode="&#x3aa;" horiz-adv-x="278" 
d="M100 923v-122h-110v122h110zM286 923v-122h-110v122h110zM213 729v-729h-150v729h150z" />
    <glyph glyph-name="Upsilondieresis" unicode="&#x3ab;" horiz-adv-x="804" 
d="M351 923v-122h-110v122h110zM537 923v-122h-110v122h110zM765 732l-309 -425v-307h-144v307l-298 425h175l149 -217l52 -81l56 86l147 212h172z" />
    <glyph glyph-name="alphatonos" unicode="&#x3ac;" horiz-adv-x="660" 
d="M348 795l-34 -201h-76l-23 201h133zM394 267q0 71 -31 116q-28 41 -87 41q-120 0 -120 -161q0 -157 118 -157q120 0 120 161zM422 27q-60 -41 -146 -41q-251 0 -251 281q0 138 72 208q72 67 179 67q91 -2 143 -46l4 -4v41h123v-425l34 22l37 -114q-69 -31 -112 -31
q-45 0 -77 34q-4 4 -6 8z" />
    <glyph glyph-name="epsilontonos" unicode="&#x3ad;" horiz-adv-x="559" 
d="M325 783l-34 -201h-76l-23 201h133zM505 174q-20 -129 -113 -163q-4 -2 -8 -3q-51 -18 -131 -18q-239 0 -239 161q0 70 52 109q6 4 13 8q-65 40 -65 118q0 131 158 155q36 5 81 6h9q151 0 204 -76q29 -41 39 -109h-127q-6 43 -40 57q-33 15 -88 15q-102 0 -104 -54
q6 -46 52 -56q19 -5 51 -5h71v-102h-71q-72 0 -91 -27q-9 -12 -12 -34q2 -53 104 -53q55 0 88 15q34 14 40 56h127z" />
    <glyph glyph-name="etatonos" unicode="&#x3ae;" horiz-adv-x="560" 
d="M335 792l-34 -201h-76l-23 201h133zM195 488l6 10q5 8 27 20t52 20q32 9 64 9q58 0 102 -20q45 -19 71 -61q26 -40 29 -96q1 -7 1 -51v-519l-138 37v478q0 47 -9 69q-18 40 -74 40q-113 0 -113 -140v-300h-138v426q0 4 1 7l2 5l-36 -8l-23 114q56 20 90 20q41 0 67 -30
q12 -13 19 -30z" />
    <glyph glyph-name="iotatonos" unicode="&#x3af;" horiz-adv-x="356" 
d="M170 783l-34 -201h-76l-23 201h133zM302 14q-76 -31 -122 -31q-64 0 -108 40q-41 40 -41 121v400h138v-383v-13v-6l2 -7q1 -10 11 -17q2 -2 7 -2h5q16 2 60 25z" />
    <glyph glyph-name="upsilondieresistonos" unicode="&#x3b0;" horiz-adv-x="575" 
d="M334 933l-34 -201h-76l-23 201h133zM221 731v-122h-110v122h110zM407 731v-122h-110v122h110zM503 212q0 -60 -9 -93q-8 -33 -28 -64q-15 -18 -68 -48q-43 -23 -136 -23q-100 0 -143 23q-52 31 -67 48q-20 29 -28 64q-9 33 -9 93v331h138v-299q0 -61 7 -89q8 -23 17 -28
q17 -12 29 -15q18 -7 54 -7q34 0 52 7q14 4 28 15q11 8 18 28q7 28 7 89v299h138v-331z" />
    <glyph glyph-name="alpha" unicode="&#x3b1;" horiz-adv-x="656" 
d="M394 267q0 71 -31 116q-28 41 -87 41q-120 0 -120 -161q0 -157 118 -157q120 0 120 161zM422 27q-60 -41 -146 -41q-251 0 -251 281q0 138 72 208q72 67 179 67q91 -2 143 -46l4 -4v41h123v-425l34 22l37 -114q-69 -31 -112 -31q-45 0 -77 34q-4 4 -6 8z" />
    <glyph glyph-name="beta" unicode="&#x3b2;" horiz-adv-x="576" 
d="M526 204q0 -117 -85 -179q-9 -7 -20 -13q-52 -30 -123 -30q-85 0 -136 33v-205h-135v663q0 113 40 168q11 16 28 31q58 50 155 50q144 0 198 -96l14 -33l9 -39q2 -15 2 -30q-5 -90 -64 -137l-1 -1v-1q118 -46 118 -181zM388 206q0 54 -29 75q-39 28 -107 28h-74v115h66
q57 0 82 29q26 30 26 73q0 56 -51 76q-17 6 -38 6q-50 0 -81 -31q-20 -19 -20 -107l1 -315q10 -26 38 -41q26 -17 79 -17q64 0 93 46q15 24 15 63z" />
    <glyph glyph-name="gamma" unicode="&#x3b3;" horiz-adv-x="591" 
d="M556 536l-197 -494v-241h-134v240l-142 332q-13 39 -21 52q-2 2 -3 2q-8 0 -47 -16l-9 100q0 6 8 16q7 11 25 15q20 6 33 6q59 0 83 -24q26 -28 45 -78l94 -234l126 324h139z" />
    <glyph glyph-name="delta" unicode="&#x3b4;" horiz-adv-x="620" 
d="M416 269q0 41 -13 72t-43 52q-28 21 -79 21q-38 0 -66 -19q-30 -18 -45 -50q-18 -34 -18 -77q0 -148 123 -148q54 0 85 21q30 20 43 54q13 36 13 74zM207 519l-159 105v103h448v-114h-217l113 -76q53 -37 79 -61q83 -80 83 -208q0 -90 -29 -149q-28 -63 -94 -93
q-61 -29 -156 -29q-120 0 -193 68q-70 66 -70 195q0 71 23 125q24 53 61 82q36 29 81 45q15 4 30 7z" />
    <glyph glyph-name="epsilon" unicode="&#x3b5;" horiz-adv-x="570" 
d="M505 174q-20 -129 -113 -163q-4 -2 -8 -3q-51 -18 -131 -18q-239 0 -239 161q0 70 52 109q6 4 13 8q-65 40 -65 118q0 131 158 155q36 5 81 6h9q151 0 204 -76q29 -41 39 -109h-127q-6 43 -40 57q-33 15 -88 15q-102 0 -104 -54q6 -46 52 -56q19 -5 51 -5h71v-102h-71
q-72 0 -91 -27q-9 -12 -12 -34q2 -53 104 -53q55 0 88 15q34 14 40 56h127z" />
    <glyph glyph-name="zeta" unicode="&#x3b6;" horiz-adv-x="522" 
d="M487 -33q0 -61 -49 -181l-124 45q43 89 43 114q0 28 -13 32q-7 2 -28 2q-93 0 -193 64q-88 56 -88 180q0 136 68 250q52 86 121 143h-173v120h406v-98q-148 -82 -223 -206q-57 -93 -57 -193q0 -61 37 -93q43 -34 98 -39q55 -6 74 -10q40 -8 63 -31q35 -41 38 -99z" />
    <glyph glyph-name="eta" unicode="&#x3b7;" horiz-adv-x="586" 
d="M195 488l6 10q5 8 27 20t52 20q32 9 64 9q58 0 102 -20q45 -19 71 -61q26 -40 29 -96q1 -7 1 -51v-519l-138 37v478q0 47 -9 69q-18 40 -74 40q-113 0 -113 -140v-300h-138v426q0 4 1 7l2 5l-36 -8l-23 114q56 20 90 20q41 0 67 -30q12 -13 19 -30z" />
    <glyph glyph-name="theta" unicode="&#x3b8;" horiz-adv-x="586" 
d="M539 357q0 -249 -101 -327q-7 -6 -15 -10q-60 -36 -141 -36q-133 0 -193 85q-35 49 -49 118q-16 64 -16 170q0 230 107 321q58 50 151 50q142 0 208 -121q15 -28 25 -61q24 -78 24 -189zM399 420q-3 83 -28 141q-24 53 -89 53q-57 0 -84 -47q-30 -49 -33 -147h234z
M399 305h-234q4 -130 49 -180q24 -25 68 -25q84 0 106 103q8 37 11 102z" />
    <glyph glyph-name="iota" unicode="&#x3b9;" horiz-adv-x="346" 
d="M302 14q-76 -31 -122 -31q-64 0 -108 40q-41 40 -41 121v400h138v-383v-13v-6l2 -7q1 -10 11 -17q2 -2 7 -2h5q16 2 60 25z" />
    <glyph glyph-name="kappa" unicode="&#x3ba;" horiz-adv-x="576" 
d="M540 -8h-168l-161 244l-32 -30v-214h-136v551h136v-169l171 169h184l-225 -214z" />
    <glyph glyph-name="lambda" unicode="&#x3bb;" horiz-adv-x="620" 
d="M283 334l-122 -336h-144l199 517l-4 12q-16 52 -34 69q-6 5 -14 10q-8 4 -26 4q-9 0 -44 -6l-8 -2l-27 -3l15 122q48 18 76 18q60 0 97 -35l20 -20q30 -35 54 -99l20 -53l146 -389l12 -25q5 -5 6 -5q8 0 48 21l33 -112q-67 -35 -107 -35q-66 0 -87 61q-7 14 -13 28
l-84 224z" />
    <glyph glyph-name="uni03BC" unicode="&#x3bc;" horiz-adv-x="667" 
d="M398 218v325h136v-379q0 -33 9 -48q4 -6 16 -12l36 -68q-33 -22 -52 -30q-15 -6 -33 -6q-65 0 -88 46q-42 -49 -112 -55h-15q-50 0 -88 20q-2 1 -17 11v-224h-138v745h138v-325q0 -71 64 -107q14 -9 44 -9q37 0 65 23q33 28 35 81v12z" />
    <glyph glyph-name="nu" unicode="&#x3bd;" horiz-adv-x="564" 
d="M524 543l-215 -568h-116l-215 568h146l127 -355l129 355h144z" />
    <glyph glyph-name="xi" unicode="&#x3be;" horiz-adv-x="530" 
d="M496 -27q0 -63 -50 -182l-120 44q39 101 40 122q1 1 1 9q0 13 -4 14q-12 6 -65 6h-20q-158 0 -225 85q-36 47 -36 123q7 81 39 120q9 12 23 24q25 21 57 39q-18 9 -32 26q-41 42 -41 108q0 51 27 92l10 12h-61v116h426v-116h-193q-39 0 -64 -44l-4 -11q-14 -22 -14 -49
q0 -56 74 -78q17 -6 67 -6h108v-111h-136q-89 0 -132 -56q-19 -23 -19 -58q0 -34 19 -54q23 -26 53 -34q35 -11 66 -11q112 0 149 -19q20 -11 32 -28q25 -33 25 -83z" />
    <glyph glyph-name="omicron" unicode="&#x3bf;" horiz-adv-x="610" 
d="M543 262q0 -89 -34 -149q-33 -64 -95 -98q-62 -32 -138 -33q-72 0 -134 31q-62 32 -97 95q-36 63 -36 154q0 137 75 207q76 70 192 70t192 -70q75 -70 75 -207zM403 262q0 38 -9 70q-8 28 -27 52q-14 20 -39 30q-22 10 -52 10t-52 -10q-25 -10 -39 -30q-18 -24 -26 -52
q-10 -35 -10 -70q0 -84 36 -123q33 -40 91 -40q56 0 91 40q36 39 36 123z" />
    <glyph glyph-name="pi" unicode="&#x3c0;" horiz-adv-x="721" 
d="M566 95q3 0 47 32l31 -117q-72 -28 -103 -28q-86 0 -106 68q-8 28 -8 72v305h-184v-440h-142v440h-69l-1 118h596v-118h-64v-303q0 -25 3 -29z" />
    <glyph glyph-name="rho" unicode="&#x3c1;" horiz-adv-x="626" 
d="M566 277q0 -89 -26 -139q-24 -47 -47 -69q-22 -23 -70 -50q-52 -27 -126 -27q-52 0 -97 19q-11 5 -30 17v-231h-138v480q0 145 80 213q77 66 185 66q120 0 195 -76q74 -75 74 -203zM426 272q0 83 -38 125q-36 40 -91 40q-57 0 -90 -39q-37 -39 -37 -128q0 -79 37 -118
q35 -40 90 -40q54 0 91 39q38 44 38 121z" />
    <glyph glyph-name="sigma1" unicode="&#x3c2;" horiz-adv-x="595" 
d="M518 298h-136q0 75 -28 103q-31 28 -84 28q-72 0 -105 -63q-18 -33 -18 -93q0 -39 11 -68q23 -52 106 -79q8 -2 100 -11q107 -14 137 -67q16 -28 16 -71q0 -28 -11 -63q-9 -27 -45 -119l-136 48q27 59 50 129q0 4 -18 4l-119 12q-14 2 -26 5q-41 11 -97 53q-46 32 -80 96
q-30 54 -30 133q0 89 36 151q66 111 199 127q18 2 38 2q103 0 171 -62q69 -64 69 -195z" />
    <glyph glyph-name="sigma" unicode="&#x3c3;" horiz-adv-x="676" 
d="M618 421h-115q43 -68 43 -151q0 -147 -95 -224q-69 -58 -175 -58q-160 0 -231 122q-1 3 -2 5q-37 63 -37 155q0 139 76 210q76 70 194 70q31 0 52 -3h290v-126zM404 270q0 79 -36 124q-30 41 -92 41q-64 0 -92 -41q-36 -51 -36 -124q0 -122 76 -154q23 -10 52 -10
q57 0 92 40q36 40 36 124z" />
    <glyph glyph-name="tau" unicode="&#x3c4;" horiz-adv-x="592" 
d="M526 428h-206v-265q0 -29 2 -36q2 -4 7 -7q4 -2 17 -2q6 0 8 1q7 0 46 9l31 -125q-56 -11 -64 -12q-22 -3 -37 -3q-54 0 -89 18q-37 19 -49 52q-7 13 -11 38q-3 18 -3 60v272h-169v115h517v-115z" />
    <glyph glyph-name="upsilon" unicode="&#x3c5;" horiz-adv-x="575" 
d="M503 212q0 -60 -9 -93q-8 -33 -28 -64q-15 -18 -68 -48q-43 -23 -136 -23q-100 0 -143 23q-52 31 -67 48q-20 29 -28 64q-9 33 -9 93v331h138v-299q0 -61 7 -89q8 -23 17 -28q17 -12 29 -15q18 -7 54 -7q34 0 52 7q14 4 28 15q11 8 18 28q7 28 7 89v299h138v-331z" />
    <glyph glyph-name="phi" unicode="&#x3c6;" horiz-adv-x="801" 
d="M590 260q0 82 -59 124q-36 27 -85 27v-299q91 0 127 75q17 31 17 73zM178 527l81 -100q-56 -38 -80 -76q-26 -45 -26 -87q0 -84 77 -132q37 -20 82 -20v433h109q163 0 248 -113q12 -16 22 -35q34 -64 34 -138q0 -151 -124 -234q-63 -39 -147 -39h-7v-182h-140v182h3
q-135 0 -217 84q-63 60 -74 158q-2 16 -2 32q0 114 79 202q28 33 82 65z" />
    <glyph glyph-name="chi" unicode="&#x3c7;" horiz-adv-x="632" 
d="M589 -180q-43 -19 -74 -19h-7q-42 0 -79 30q-30 23 -54 67l-76 150l-162 -236h-159l243 367l-137 234q-12 19 -16 21q-3 3 -16 3q-15 -4 -51 -4v119q45 7 52 7l27 2q39 0 67 -18q27 -14 48 -51l107 -194l134 244h148l-203 -364l122 -227q8 -13 14 -19q3 -3 15 -3
q3 0 12 2q7 0 45 15v-126z" />
    <glyph glyph-name="psi" unicode="&#x3c8;" 
d="M645 221q0 -150 -123 -206l-42 -15q-37 -10 -81 -12v-193h-136v193q-166 7 -222 121q-24 48 -24 112v319h140v-292q0 -93 43 -121q4 -3 8 -5q24 -11 55 -14v415h136v-415q64 6 85 43q3 4 5 9q16 29 16 88v292h140v-319z" />
    <glyph glyph-name="omega" unicode="&#x3c9;" horiz-adv-x="800" 
d="M729 247q0 -162 -103 -230q-9 -6 -18 -11q-40 -21 -94 -21q-93 0 -144 65q-51 -65 -144 -65q-103 0 -163 79q-52 73 -52 183q0 99 55 203q3 6 6 11q30 53 72 83l129 -39q-77 -80 -103 -137q-25 -58 -25 -127q0 -61 22 -105q19 -35 61 -35q33 2 41 8q2 1 13 10
q21 19 21 44v236h134v-236q0 -35 42 -59q1 -1 32 -3q43 0 62 35q22 44 22 105q0 83 -41 159q-19 34 -86 104l129 41q77 -63 115 -190q17 -57 17 -108z" />
    <glyph glyph-name="iotadieresis" unicode="&#x3ca;" horiz-adv-x="346" 
d="M62 731v-122h-110v122h110zM248 731v-122h-110v122h110zM302 14q-76 -31 -122 -31q-64 0 -108 40q-41 40 -41 121v400h138v-383v-13v-6l2 -7q1 -10 11 -17q2 -2 7 -2h5q16 2 60 25z" />
    <glyph glyph-name="upsilondieresis" unicode="&#x3cb;" horiz-adv-x="575" 
d="M221 731v-122h-110v122h110zM407 731v-122h-110v122h110zM503 212q0 -60 -9 -93q-8 -33 -28 -64q-15 -18 -68 -48q-43 -23 -136 -23q-100 0 -143 23q-52 31 -67 48q-20 29 -28 64q-9 33 -9 93v331h138v-299q0 -61 7 -89q8 -23 17 -28q17 -12 29 -15q18 -7 54 -7
q34 0 52 7q14 4 28 15q11 8 18 28q7 28 7 89v299h138v-331z" />
    <glyph glyph-name="omicrontonos" unicode="&#x3cc;" horiz-adv-x="599" 
d="M344 789l-34 -201h-76l-23 201h133zM543 262q0 -89 -34 -149q-33 -64 -95 -98q-62 -32 -138 -33q-72 0 -134 31q-62 32 -97 95q-36 63 -36 154q0 137 75 207q76 70 192 70t192 -70q75 -70 75 -207zM403 262q0 38 -9 70q-8 28 -27 52q-14 20 -39 30q-22 10 -52 10t-52 -10
q-25 -10 -39 -30q-18 -24 -26 -52q-10 -35 -10 -70q0 -84 36 -123q33 -40 91 -40q56 0 91 40q36 39 36 123z" />
    <glyph glyph-name="upsilontonos" unicode="&#x3cd;" horiz-adv-x="567" 
d="M330 801l-34 -201h-76l-23 201h133zM503 212q0 -60 -9 -93q-8 -33 -28 -64q-15 -18 -68 -48q-43 -23 -136 -23q-100 0 -143 23q-52 31 -67 48q-20 29 -28 64q-9 33 -9 93v331h138v-299q0 -61 7 -89q8 -23 17 -28q17 -12 29 -15q18 -7 54 -7q34 0 52 7q14 4 28 15
q11 8 18 28q7 28 7 89v299h138v-331z" />
    <glyph glyph-name="omegatonos" unicode="&#x3ce;" horiz-adv-x="1125" 
d="M444 789l-34 -201h-76l-23 201h133zM729 247q0 -162 -103 -230q-9 -6 -18 -11q-40 -21 -94 -21q-93 0 -144 65q-51 -65 -144 -65q-103 0 -163 79q-52 73 -52 183q0 99 55 203q3 6 6 11q30 53 72 83l129 -39q-77 -80 -103 -137q-25 -58 -25 -127q0 -61 22 -105
q19 -35 61 -35q33 2 41 8q2 1 13 10q21 19 21 44v236h134v-236q0 -35 42 -59q1 -1 32 -3q43 0 62 35q22 44 22 105q0 83 -41 159q-19 34 -86 104l129 41q77 -63 115 -190q17 -57 17 -108z" />
    <glyph glyph-name="uni0400" unicode="&#x400;" horiz-adv-x="667" 
d="M245 979h126l70 -150h-70zM229 314v-189h395v-125h-545v729h527v-125h-377v-165h349v-125h-349z" />
    <glyph glyph-name="afii10023" unicode="&#x401;" horiz-adv-x="709" 
d="M232 314v-189h395v-125h-545v729h527v-125h-377v-165h349v-125h-349zM310 922v-122h-110v122h110zM496 922v-122h-110v122h110z" />
    <glyph glyph-name="afii10051" unicode="&#x402;" horiz-adv-x="790" 
d="M352 504h188q101 0 167 -65q51 -50 51 -115v-1v-323q-9 -67 -24 -92q-20 -35 -66 -54q-56 -13 -109 -16q-10 0 -21 -1l-70 -1v94h60q66 1 78 54q1 7 2 16v317q0 48 -55 59l-25 3h-175v-379h-151v605h-188v124h522v-124h-184v-101z" />
    <glyph glyph-name="afii10052" unicode="&#x403;" horiz-adv-x="611" 
d="M224 0h-150v729h512v-125h-362v-604zM428 979l-126 -150h-70l70 150h126z" />
    <glyph glyph-name="afii10053" unicode="&#x404;" 
d="M488 311h-292q14 -156 116 -196q30 -12 66 -12q111 0 148 90q10 25 13 56h146q-8 -148 -122 -222q-78 -50 -189 -50q-172 0 -261 128q-69 100 -69 253q0 208 120 310q86 73 214 73q161 0 248 -106l7 -9q42 -55 49 -144h-143q-12 52 -33 78q-42 53 -123 53
q-110 0 -160 -99q-18 -34 -26 -78h291v-125z" />
    <glyph glyph-name="afii10054" unicode="&#x405;" horiz-adv-x="667" 
d="M607 507h-140q-7 101 -125 113q-13 1 -28 1q-90 0 -117 -53l-8 -22q-1 -7 -1 -15q0 -46 42 -67q30 -15 96 -28l114 -22q145 -28 180 -119q13 -35 13 -82q0 -141 -123 -201q-72 -35 -176 -35q-215 0 -279 142q-20 43 -23 99h146q6 -100 117 -118q22 -3 47 -3q108 0 138 60
q9 17 9 38q0 58 -58 84q-29 13 -79 22l-102 20q-144 27 -184 100q-21 38 -21 96q0 143 125 197q63 27 151 27q160 0 235 -83q51 -57 51 -151z" />
    <glyph glyph-name="afii10055" unicode="&#x406;" horiz-adv-x="278" 
d="M213 729v-729h-150v729h150z" />
    <glyph glyph-name="afii10056" unicode="&#x407;" horiz-adv-x="278" 
d="M101 922v-122h-110v122h110zM287 922v-122h-110v122h110zM213 729v-729h-150v729h150z" />
    <glyph glyph-name="afii10057" unicode="&#x408;" horiz-adv-x="556" 
d="M336 729h150v-539q0 -146 -119 -193q-49 -20 -115 -20q-103 0 -167 58q-57 53 -61 145v18v72h150v-70q0 -80 54 -92q12 -3 27 -3q73 0 80 70q1 7 1 15v539z" />
    <glyph glyph-name="afii10058" unicode="&#x409;" horiz-adv-x="1110" 
d="M507 0v604h-222v-190q0 -328 -148 -396q-40 -18 -91 -18v145l20 3q39 14 54 92q15 71 15 220v1v268h522v-294h187q124 0 183 -96q37 -60 37 -146v-1q0 -99 -57 -141l-32 -18l-48 -19q-43 -14 -98 -14h-322zM657 310v-185h140q71 0 89 8q24 12 27 50q1 8 1 17v1
q0 101 -99 108h-1l-1 1h-16h-140z" />
    <glyph glyph-name="afii10059" unicode="&#x40a;" horiz-adv-x="1113" 
d="M657 729v-260h187q124 0 183 -96q37 -61 37 -147q0 -167 -135 -212q-44 -14 -100 -14h-322v311h-289v-311h-150v729h150v-293h288v293h151zM657 344v-219h140q108 0 116 92q1 8 1 18q0 101 -99 108l-18 1h-140z" />
    <glyph glyph-name="afii10060" unicode="&#x40b;" horiz-adv-x="790" 
d="M352 504h188q101 0 167 -65q51 -50 51 -115v-1v-323h-150v317q0 48 -55 59l-25 3h-175v-379h-151v605h-188v124h522v-124h-184v-101z" />
    <glyph glyph-name="afii10061" unicode="&#x40c;" 
d="M224 0h-150v729h150v-279l285 279h177l-366 -351l397 -378h-179l-314 285v-285zM478 929l-126 -150h-70l70 150h126z" />
    <glyph glyph-name="uni040D" unicode="&#x40d;" horiz-adv-x="726" 
d="M218 0h-150v729h150v-496l289 496h154v-729h-150v504zM266 929h126l70 -150h-70z" />
    <glyph glyph-name="afii10062" unicode="&#x40e;" horiz-adv-x="718" 
d="M328 0h-174l114 226l-253 503h163l172 -345l172 345h174zM488 922v-11q0 -71 -57 -110q-33 -22 -75 -22q-72 0 -110 57q-22 34 -22 76v10h56q9 -66 77 -66q61 0 74 59q0 3 1 7h56z" />
    <glyph glyph-name="afii10145" unicode="&#x40f;" 
d="M428 0v-150h-130v150h-230v729h150v-604h290v604h150v-729h-230z" />
    <glyph glyph-name="afii10017" unicode="&#x410;" 
d="M501 147h-273l-49 -147h-153l259 729h166l252 -729h-154zM460 272l-95 285l-95 -285h190z" />
    <glyph glyph-name="afii10018" unicode="&#x411;" 
d="M395 463q174 0 242 -129q29 -55 29 -112q0 -74 -44 -137q-13 -19 -28 -32q-63 -53 -184 -53h-328v729h512v-125h-362v-141h163zM232 338v-213h179q80 0 104 63q7 20 7 43q0 74 -61 98q-22 9 -50 9h-179z" />
    <glyph glyph-name="afii10019" unicode="&#x412;" 
d="M82 0v729h325q110 0 172 -53q60 -52 66 -127v-12q0 -72 -63 -124l-37 -26q121 -71 121 -177q0 -79 -54 -139l-18 -18q-63 -53 -184 -53h-328zM232 604v-165h163q101 7 106 82q0 78 -95 83h-11h-163zM232 314v-189h179q108 5 111 94q0 95 -111 95h-179z" />
    <glyph glyph-name="afii10020" unicode="&#x413;" horiz-adv-x="611" 
d="M232 0h-150v729h512v-125h-362v-604z" />
    <glyph glyph-name="afii10021" unicode="&#x414;" horiz-adv-x="900" 
d="M139 108q46 0 72 128q19 94 19 225v268h520v-621h115v-258h-130v150h-570v-150h-130v258h104zM333 125h267v479h-220v-190q0 -190 -47 -289z" />
    <glyph glyph-name="afii10022" unicode="&#x415;" horiz-adv-x="709" 
d="M232 314v-189h395v-125h-545v729h527v-125h-377v-165h349v-125h-349z" />
    <glyph glyph-name="afii10024" unicode="&#x416;" horiz-adv-x="1093" 
d="M475 285l-269 -285h-184l357 378l-313 351h164l245 -279v279h150v-279l245 279h164l-313 -351l357 -378h-184l-269 285v-285h-150v285z" />
    <glyph glyph-name="afii10025" unicode="&#x417;" horiz-adv-x="672" 
d="M250 428h76q138 0 138 103q0 60 -66 81q-26 9 -60 9q-135 0 -151 -100l-2 -14h-140q0 94 51 151q75 83 235 83q185 0 249 -112q27 -48 27 -112q0 -93 -63 -140q82 -45 88 -143q1 -10 1 -21q0 -141 -123 -201q-72 -35 -176 -35q-215 0 -279 142q-20 43 -23 99h146
q6 -100 117 -118q22 -3 47 -3q108 0 138 60q9 17 9 38q0 83 -79 106q-18 5 -39 6q-9 1 -19 1h-102v120z" />
    <glyph glyph-name="afii10026" unicode="&#x418;" horiz-adv-x="757" 
d="M232 0h-150v729h150v-496l289 496h154v-729h-150v504z" />
    <glyph glyph-name="afii10027" unicode="&#x419;" horiz-adv-x="757" 
d="M507 927v-11q0 -71 -57 -110q-33 -22 -75 -22q-72 0 -110 57q-22 34 -22 76v10h56q9 -66 77 -66q57 0 72 54q2 6 3 12h56zM232 0h-150v729h150v-496l289 496h154v-729h-150v504z" />
    <glyph glyph-name="afii10028" unicode="&#x41a;" horiz-adv-x="750" 
d="M232 0h-150v729h150v-279l285 279h177l-366 -351l397 -378h-200l-293 285v-285z" />
    <glyph glyph-name="afii10029" unicode="&#x41b;" horiz-adv-x="729" 
d="M497 604h-222v-204q0 -318 -140 -390q-43 -22 -99 -22v145l22 3q50 18 62 153q5 60 5 158v282h522v-729h-150v604z" />
    <glyph glyph-name="afii10030" unicode="&#x41c;" horiz-adv-x="874" 
d="M232 568v-568h-150v729h224l132 -580l128 580h226v-729h-150v568l-129 -568h-150z" />
    <glyph glyph-name="afii10031" unicode="&#x41d;" horiz-adv-x="753" 
d="M521 331h-289v-331h-150v729h150v-273h288v273h151v-729h-150v331z" />
    <glyph glyph-name="afii10032" unicode="&#x41e;" horiz-adv-x="778" 
d="M390 741q156 0 250 -101q98 -105 102 -273v-13q0 -133 -71 -237q-14 -21 -31 -39q-94 -101 -249 -101t-249 101q-90 96 -101 247q-1 17 -1 34q0 157 88 265l14 16q93 101 248 101zM391 613q-108 0 -163 -94l-18 -38q-20 -54 -20 -122q0 -144 82 -213q50 -41 119 -41
q105 0 161 92q40 65 40 158q0 154 -87 221q-48 37 -114 37z" />
    <glyph glyph-name="afii10033" unicode="&#x41f;" horiz-adv-x="753" 
d="M521 604h-289v-604h-150v729h589v-729h-150v604z" />
    <glyph glyph-name="afii10034" unicode="&#x420;" horiz-adv-x="671" 
d="M232 260v-260h-150v729h322q177 0 222 -135l10 -42q3 -23 3 -49q0 -140 -91 -204l-31 -19q-44 -20 -98 -20h-187zM232 385h140q109 0 116 94q1 7 1 15q0 100 -96 109q-10 1 -21 1h-140v-219z" />
    <glyph glyph-name="afii10035" unicode="&#x421;" 
d="M682 482h-143q-12 52 -33 78q-42 53 -123 53q-115 0 -163 -111q-19 -45 -24 -105q-2 -20 -2 -41q0 -171 94 -229q39 -24 90 -24q111 0 148 90q10 25 13 56h146q-8 -148 -122 -222q-78 -50 -189 -50q-172 0 -261 128q-69 100 -69 253q0 208 120 310q86 73 214 73
q161 0 248 -106l7 -9q42 -55 49 -144z" />
    <glyph glyph-name="afii10036" unicode="&#x422;" horiz-adv-x="611" 
d="M385 604v-604h-150v604h-221v125h584v-125h-213z" />
    <glyph glyph-name="afii10037" unicode="&#x423;" horiz-adv-x="718" 
d="M328 0h-174l114 226l-253 503h163l172 -345l172 345h174z" />
    <glyph glyph-name="afii10038" unicode="&#x424;" horiz-adv-x="892" 
d="M371 0v94q-91 0 -133 8q-208 41 -208 272q0 257 289 264h52v91h150v-91q110 0 163 -14q138 -36 169 -168q9 -37 9 -82q0 -237 -219 -274q-37 -6 -122 -6v-94h-150zM371 188v352q-85 0 -126 -19q-81 -37 -81 -151q0 -166 136 -181q13 -1 71 -1zM521 188q71 0 95 5
q112 25 112 177q0 166 -176 170h-31v-352z" />
    <glyph glyph-name="afii10039" unicode="&#x425;" horiz-adv-x="667" 
d="M419 372l234 -372h-178l-140 253l-139 -253h-174l230 367l-222 362h178l128 -240l134 240h174z" />
    <glyph glyph-name="afii10040" unicode="&#x426;" horiz-adv-x="816" 
d="M521 125v604h150v-621h110v-258h-130v150h-569v729h150v-604h289z" />
    <glyph glyph-name="afii10041" unicode="&#x427;" horiz-adv-x="685" 
d="M474 225h-188q-101 0 -167 65q-51 51 -51 116v323h150v-317q0 -48 55 -59q12 -3 25 -3h175v379h151v-729h-150v225z" />
    <glyph glyph-name="afii10042" unicode="&#x428;" horiz-adv-x="1057" 
d="M967 0h-899v729h150v-604h219v604h150v-604h230v604h150v-729z" />
    <glyph glyph-name="afii10043" unicode="&#x429;" horiz-adv-x="1183" 
d="M962 0h-894v729h150v-604h229v604h150v-604h230v604h150v-621h120v-258h-135v150z" />
    <glyph glyph-name="afii10044" unicode="&#x42a;" horiz-adv-x="928" 
d="M394 469h187q124 0 183 -96q37 -61 37 -147q0 -167 -135 -212q-44 -14 -100 -14h-322v604l-230 1v124h380v-260zM394 344v-219h140q108 0 116 92q1 8 1 18q0 101 -99 108l-18 1h-140z" />
    <glyph glyph-name="afii10045" unicode="&#x42b;" horiz-adv-x="949" 
d="M884 729v-729h-150v729h150zM218 469h187q124 0 183 -96q37 -61 37 -147q0 -168 -137 -212q-43 -14 -98 -14h-322v729h150v-260zM218 344v-219h140q108 0 116 92q1 8 1 18q0 101 -99 108q-9 1 -18 1h-140z" />
    <glyph glyph-name="afii10046" unicode="&#x42c;" horiz-adv-x="687" 
d="M226 469h187q124 0 183 -96q37 -61 37 -147q0 -168 -137 -212q-43 -14 -98 -14h-322v729h150v-260zM226 344v-219h140q108 0 116 92q1 8 1 18q0 101 -99 108q-9 1 -18 1h-140z" />
    <glyph glyph-name="afii10047" unicode="&#x42d;" 
d="M241 311v125h291q-22 126 -116 164q-32 13 -70 13q-81 0 -123 -53q-21 -26 -33 -78h-143q7 88 49 144q83 110 241 115h14q176 0 266 -131q68 -99 68 -252q0 -205 -118 -308q-85 -73 -212 -73q-165 0 -250 105q-56 68 -61 167h146q10 -108 101 -137q27 -9 60 -9
q119 0 163 118q14 40 19 90h-292z" />
    <glyph glyph-name="afii10048" unicode="&#x42e;" horiz-adv-x="1109" 
d="M367 436q20 122 96 204q93 101 238 101q133 0 220 -81q10 -9 20 -20q98 -105 102 -273v-13q0 -133 -71 -237q-14 -21 -31 -39q-87 -94 -217 -100l-22 -1q-138 0 -228 89q-5 6 -11 12q-85 91 -99 233h-146v-311h-150v729h150v-293h149zM702 613q-113 0 -163 -107
q-28 -61 -28 -147q0 -156 85 -220q45 -34 106 -34q110 0 160 101q31 62 31 149q0 170 -94 231q-41 27 -97 27z" />
    <glyph glyph-name="afii10049" unicode="&#x42f;" horiz-adv-x="698" 
d="M422 260l-221 -260h-179l220 265q-88 17 -134 100q-32 59 -32 138q0 168 137 212q43 14 98 14h322v-729h-150v260h-61zM483 385v219h-140q-108 0 -116 -92q-1 -8 -1 -18q0 -101 99 -108q9 -1 18 -1h140z" />
    <glyph glyph-name="afii10065" unicode="&#x430;" horiz-adv-x="556" 
d="M524 17v-17h-152q-16 24 -16 54q-74 -77 -164 -77q-77 0 -126 51q-38 41 -38 111q0 143 159 170l56 10q68 11 83 18q1 1 5 3q24 13 24 42q0 54 -81 54q-68 0 -87 -32l-9 -24l-3 -18h-135q13 187 231 187q221 0 221 -166v-300q0 -34 26 -60zM355 217v38q-19 -9 -59 -17
l-48 -9q-66 -14 -77 -50l-3 -24q0 -49 49 -62q12 -3 27 -3q87 0 106 83q5 20 5 44z" />
    <glyph glyph-name="afii10066" unicode="&#x431;" horiz-adv-x="606" 
d="M438 776l104 1q0 -71 -19 -97q-5 -7 -14 -14q-43 -31 -126 -40l-68 -10q-35 -8 -62 -24q-80 -49 -84 -125v-5q43 87 169 87q85 0 146 -60q13 -13 23 -27q58 -84 58 -199q0 -155 -95 -233q-66 -53 -165 -53q-156 0 -213 102q-42 74 -42 213q0 275 122 375q11 9 24 17
q37 23 154 36q25 3 36 4q42 5 51 47zM307 432q-66 0 -99 -71l-12 -35q-7 -29 -7 -61q0 -109 60 -152q25 -19 58 -19q64 0 98 69q20 43 20 99q0 102 -56 148q-28 22 -62 22z" />
    <glyph glyph-name="afii10067" unicode="&#x432;" horiz-adv-x="572" 
d="M60 0v540h266q83 0 128 -39q46 -45 49 -103q0 -55 -40 -92q-15 -14 -34 -20q63 -19 83 -88q6 -21 6 -43q0 -65 -45 -109l-8 -7q-46 -39 -136 -39h-269zM200 430v-97h94q58 0 69 23q5 9 5 24q0 39 -37 47l-37 3h-94zM200 223v-113h100q67 0 77 39q2 9 2 21q0 41 -34 49
q-15 4 -45 4h-100z" />
    <glyph glyph-name="afii10068" unicode="&#x433;" horiz-adv-x="454" 
d="M408 540v-113h-208v-427h-140v540h348z" />
    <glyph glyph-name="afii10069" unicode="&#x434;" horiz-adv-x="685" 
d="M580 101h82v-226h-110v125h-419v-125h-110v226h62q49 1 69 152q8 63 8 135v152h418v-439zM263 113h177v314h-138v-51q0 -175 -39 -263z" />
    <glyph glyph-name="afii10070" unicode="&#x435;" horiz-adv-x="556" 
d="M524 226h-362q3 -68 20 -95q31 -47 92 -47q75 0 104 61q2 3 3 7h138q-29 -101 -126 -147q-56 -28 -124 -28q-142 0 -207 110q-40 69 -40 169q0 173 104 249q60 44 146 44q125 0 195 -90q21 -27 34 -60q2 -4 3 -7q21 -61 21 -142q0 -12 -1 -24zM164 319h215q-4 50 -22 78
q-32 45 -87 45q-92 0 -106 -123z" />
    <glyph glyph-name="afii10072" unicode="&#x436;" horiz-adv-x="809" 
d="M332 198l-137 -198h-179l213 296l-177 244h148l132 -189v189h140v-189l132 189h148l-177 -244l213 -296h-179l-137 198v-198h-140v198z" />
    <glyph glyph-name="afii10073" unicode="&#x437;" horiz-adv-x="546" 
d="M206 208v110h94q63 0 65 53v18q0 34 -45 46q-16 4 -36 4q-100 0 -101 -73h-135q2 113 105 159q55 24 130 24q139 0 195 -84q21 -32 26 -73q1 -11 1 -23q0 -55 -30 -88l-14 -10q59 -37 59 -111q0 -80 -60 -131l-4 -4q-60 -48 -172 -48q-232 0 -253 157q-2 11 -2 23h137
q8 -36 27 -51q29 -19 83 -19q90 0 102 42q2 5 2 11q0 42 -25 56l-23 9q-14 3 -34 3h-92z" />
    <glyph glyph-name="afii10074" unicode="&#x438;" horiz-adv-x="615" 
d="M60 540h140v-338l195 338h160v-540h-140v338l-195 -338h-160v540z" />
    <glyph glyph-name="afii10075" unicode="&#x439;" horiz-adv-x="615" 
d="M60 540h140v-338l195 338h160v-540h-140v338l-195 -338h-160v540zM440 723v-11q0 -71 -57 -110q-33 -22 -75 -22q-72 0 -110 57q-22 34 -22 76v10h56q9 -66 77 -66q61 0 74 59q0 3 1 7h56z" />
    <glyph glyph-name="afii10076" unicode="&#x43a;" horiz-adv-x="573" 
d="M200 351l162 189h148l-214 -244l253 -296h-182l-167 198v-198h-140v540h140v-189z" />
    <glyph glyph-name="afii10077" unicode="&#x43b;" horiz-adv-x="577" 
d="M104 540h413v-540h-140v427h-133v-61q0 -259 -89 -335q-43 -37 -110 -41h-16v135q57 1 70 107q5 44 5 146v162z" />
    <glyph glyph-name="afii10078" unicode="&#x43c;" horiz-adv-x="666" 
d="M369 0h-72l-97 297v-297h-140v540h175l98 -327l98 327h175v-540h-140v297z" />
    <glyph glyph-name="afii10079" unicode="&#x43d;" horiz-adv-x="603" 
d="M60 540h140v-220h203v220h140v-540h-140v207h-203v-207h-140v540z" />
    <glyph glyph-name="afii10080" unicode="&#x43e;" horiz-adv-x="611" 
d="M301 549q165 0 232 -125q36 -68 36 -165q0 -158 -103 -233q-67 -49 -164 -49q-156 0 -225 115q-42 70 -42 171q0 166 107 241q65 45 159 45zM302 436q-73 0 -107 -74q-20 -42 -20 -99q0 -106 61 -152q29 -21 66 -21q71 0 106 71q21 43 21 100q0 113 -64 156
q-33 17 -63 19z" />
    <glyph glyph-name="afii10081" unicode="&#x43f;" horiz-adv-x="603" 
d="M60 540h483v-540h-140v427h-203v-427h-140v540z" />
    <glyph glyph-name="afii10082" unicode="&#x440;" horiz-adv-x="611" 
d="M200 540v-80q50 89 150 89q81 0 143 -56q14 -14 25 -29q56 -85 58 -202q0 -139 -79 -222q-62 -64 -147 -64q-100 0 -150 88v-282h-140v758h140zM318 432q-67 0 -99 -72q-19 -42 -19 -98q0 -106 58 -149q27 -20 60 -20q65 0 98 69q20 42 20 98q0 109 -59 153
q-26 19 -59 19z" />
    <glyph glyph-name="afii10083" unicode="&#x441;" horiz-adv-x="556" 
d="M522 338h-134q-17 77 -61 92l-28 6h-11q-62 0 -87 -46q-27 -51 -27 -131q0 -122 66 -157q22 -12 48 -12q60 0 86 55q8 18 14 42h134q-13 -124 -109 -179q-55 -31 -126 -31q-158 0 -220 124q-33 66 -33 158q0 187 119 257q57 33 136 33q138 0 199 -98q19 -33 28 -73
q4 -19 6 -40z" />
    <glyph glyph-name="afii10084" unicode="&#x442;" horiz-adv-x="454" 
d="M431 540v-113h-135v-427h-140v427h-135v113h410z" />
    <glyph glyph-name="afii10085" unicode="&#x443;" horiz-adv-x="556" 
d="M394 540h144l-222 -639q-25 -69 -55 -90q-10 -7 -24 -13q-41 -17 -101 -17q-22 0 -50 4v105q22 -6 37 -6q51 0 75 44q12 21 12 46v3v1l-201 562h154l119 -393z" />
    <glyph glyph-name="afii10086" unicode="&#x444;" horiz-adv-x="957" 
d="M404 64q-50 -88 -150 -88q-104 0 -169 91q-57 80 -57 195q0 117 55 197q1 3 3 5q44 62 124 80q22 5 44 5q100 0 150 -89v259h140v-259q50 89 150 89q81 0 143 -56q14 -14 25 -29q56 -85 58 -202q0 -139 -79 -222q-62 -64 -147 -64q-100 0 -150 88v-282h-140v282zM286 432
q-69 0 -100 -74q-18 -42 -18 -98q0 -100 56 -145q28 -22 62 -22q67 0 99 72q19 41 19 97q0 105 -58 150l-22 13q-18 7 -38 7zM662 432q-67 0 -99 -72q-19 -42 -19 -98q0 -106 58 -149q27 -20 60 -20q65 0 98 69q20 42 20 98q0 109 -59 153l-22 12q-17 7 -37 7z" />
    <glyph glyph-name="afii10087" unicode="&#x445;" horiz-adv-x="556" 
d="M355 272l180 -272h-168l-91 168l-92 -168h-168l180 272l-176 268h168l88 -163l87 163h168z" />
    <glyph glyph-name="afii10088" unicode="&#x446;" horiz-adv-x="652" 
d="M60 0v540h140v-427h203v427h140v-439h86v-226h-110v125h-459z" />
    <glyph glyph-name="afii10089" unicode="&#x447;" horiz-adv-x="578" 
d="M60 540h140v-214q0 -39 29 -46q10 -2 29 -2h120v262h140v-540h-140v165h-118q-155 0 -191 100q-9 27 -9 60v215z" />
    <glyph glyph-name="afii10090" unicode="&#x448;" horiz-adv-x="886" 
d="M826 0h-766v540h140v-427h171v427h140v-427h175v427h140v-540z" />
    <glyph glyph-name="afii10091" unicode="&#x449;" horiz-adv-x="968" 
d="M835 0h-775v540h140v-427h171v427h140v-427h174v427h140v-439h120v-226h-110v125z" />
    <glyph glyph-name="afii10092" unicode="&#x44a;" horiz-adv-x="693" 
d="M191 0v427h-171v113h311v-181h108q143 0 198 -92q26 -43 26 -99q0 -60 -34 -108q-9 -13 -19 -21q-46 -39 -136 -39h-283zM331 249v-139h109q78 9 84 70q0 58 -67 68q-10 1 -22 1h-104z" />
    <glyph glyph-name="afii10093" unicode="&#x44b;" horiz-adv-x="811" 
d="M308 359q143 0 198 -92q26 -43 26 -99q0 -60 -34 -108q-9 -13 -19 -21q-46 -39 -136 -39h-283v540h140v-181h108zM200 249v-139h109q78 9 84 70q0 58 -67 68q-10 1 -22 1h-104zM718 540v-540h-140v540h140z" />
    <glyph glyph-name="afii10094" unicode="&#x44c;" horiz-adv-x="562" 
d="M308 359q143 0 198 -92q26 -43 26 -99q0 -60 -34 -108q-9 -13 -19 -21q-46 -39 -136 -39h-283v540h140v-181h108zM200 249v-139h109q78 9 84 70q0 58 -67 68q-10 1 -22 1h-104z" />
    <glyph glyph-name="afii10095" unicode="&#x44d;" horiz-adv-x="564" 
d="M203 207v113h174q-8 44 -22 70q-25 46 -87 46q-61 0 -85 -51q-9 -19 -15 -47h-134q10 132 113 185q52 26 120 26q159 0 222 -127q33 -67 33 -163q0 -180 -116 -248q-57 -34 -137 -34q-128 0 -193 92q-35 49 -42 118h134q20 -78 67 -93q14 -4 33 -4q74 0 101 82q6 16 9 35
h-175z" />
    <glyph glyph-name="afii10096" unicode="&#x44e;" horiz-adv-x="908" 
d="M302 207h-102v-207h-140v540h140v-220h102q23 167 154 213q44 16 98 16q179 0 235 -149q23 -60 23 -141q0 -171 -109 -242q-61 -40 -148 -40q-170 0 -230 142q-17 39 -23 88zM555 436q-78 0 -106 -89q-11 -36 -11 -84q0 -122 66 -160q22 -13 51 -13q76 0 104 84
q13 38 13 87q0 132 -72 166q-20 9 -45 9z" />
    <glyph glyph-name="afii10097" unicode="&#x44f;" horiz-adv-x="596" 
d="M347 207l-143 -207h-179l155 218q-92 25 -120 107q-9 27 -9 60q0 65 45 109q4 4 8 7q46 39 136 39h291v-540h-140v207h-44zM391 317v113h-122q-67 0 -77 -39q-2 -9 -2 -21q0 -41 34 -49q15 -4 45 -4h122z" />
    <glyph glyph-name="uni0450" unicode="&#x450;" horiz-adv-x="556" 
d="M162 790h126l70 -150h-70zM524 226h-362q3 -68 20 -95q31 -47 92 -47q75 0 104 61q2 3 3 7h138q-29 -101 -126 -147q-56 -28 -124 -28q-142 0 -207 110q-40 69 -40 169q0 173 104 249q60 44 146 44q125 0 195 -90q21 -27 34 -60q2 -4 3 -7q21 -61 21 -142q0 -12 -1 -24z
M164 319h215q-4 50 -22 78q-32 45 -87 45q-92 0 -106 -123z" />
    <glyph glyph-name="afii10071" unicode="&#x451;" horiz-adv-x="556" 
d="M242 743v-122h-110v122h110zM428 743v-122h-110v122h110zM524 226h-362q3 -68 20 -95q31 -47 92 -47q75 0 104 61q2 3 3 7h138q-29 -101 -126 -147q-56 -28 -124 -28q-142 0 -207 110q-40 69 -40 169q0 173 104 249q60 44 146 44q125 0 195 -90q21 -27 34 -60q2 -4 3 -7
q21 -61 21 -142q0 -12 -1 -24zM164 319h215q-4 50 -22 78q-32 45 -87 45q-92 0 -106 -123z" />
    <glyph glyph-name="afii10099" unicode="&#x452;" horiz-adv-x="606" 
d="M568 132l-1 221v1q0 99 -55 145q-49 41 -121 41q-101 0 -159 -87v114h170v104h-170v58h-140v-58h-70v-104h70v-567h140v315v0q0 28 14 54q29 52 95 52q46 0 70 -33q16 -24 16 -67l1 -209q-4 -111 -80 -181q-42 -40 -80 -41v-62h22q63 8 142 71q117 93 134 212z" />
    <glyph glyph-name="afii10100" unicode="&#x453;" horiz-adv-x="454" 
d="M408 540v-113h-208v-427h-140v540h348zM332 790l-126 -150h-70l70 150h126z" />
    <glyph glyph-name="afii10101" unicode="&#x454;" horiz-adv-x="556" 
d="M353 207h-175q16 -96 83 -114q13 -3 27 -3q60 0 86 55q8 18 14 42h134q-13 -124 -109 -179q-55 -31 -126 -31q-158 0 -220 124q-33 66 -33 158q0 187 119 257q57 33 136 33q138 0 199 -98q19 -33 28 -73q4 -19 6 -40h-134q-17 77 -61 92l-28 6h-11q-62 0 -87 -46
q-14 -26 -22 -70h174v-113z" />
    <glyph glyph-name="afii10102" unicode="&#x455;" horiz-adv-x="556" 
d="M505 366h-135q-1 73 -101 73q-64 0 -78 -35l-3 -15q0 -22 24 -33q9 -4 25 -9l177 -51q106 -31 106 -136q0 -80 -60 -131l-4 -4q-60 -48 -172 -48q-232 0 -253 157q-2 11 -2 23h137q8 -36 27 -51q29 -19 83 -19q90 0 102 42q2 5 2 11q0 26 -31 38q-7 3 -16 6l-167 52
q-62 20 -85 42l-3 3q-30 33 -30 88q0 108 96 154q52 26 126 26q152 0 209 -91q25 -39 26 -92z" />
    <glyph glyph-name="afii10103" unicode="&#x456;" horiz-adv-x="278" 
d="M207 540v-540h-140v540h140zM207 729v-125h-140v125h140z" />
    <glyph glyph-name="afii10104" unicode="&#x457;" horiz-adv-x="278" 
d="M101 743v-122h-110v122h110zM287 743v-122h-110v122h110zM207 540v-540h-140v540h140z" />
    <glyph glyph-name="afii10105" unicode="&#x458;" horiz-adv-x="278" 
d="M210 540v-634q0 -95 -64 -116q-24 -8 -59 -8q-36 0 -83 5v112q13 -4 25 -4q36 0 40 28q1 6 1 14v603h140zM210 729v-125h-140v125h140z" />
    <glyph glyph-name="afii10106" unicode="&#x459;" horiz-adv-x="900" 
d="M403 0v427h-159v-51q0 -258 -89 -335q-43 -37 -110 -41h-16v135q57 1 70 107q5 44 5 145v1v152h439v-221h108q143 0 198 -92q14 -22 13 -49v-30v-1q0 -43 -24 -79q-4 -5 -8 -11q-9 -13 -19 -21q-42 -36 -125 -36h-283zM543 209v-99h109q59 0 74 12q11 10 13 29v9
q0 32 -30 41q-10 2 -40 7q-10 1 -22 1h-104z" />
    <glyph glyph-name="afii10107" unicode="&#x45a;" horiz-adv-x="611" 
d="M546 540v-221h108q143 0 198 -92q14 -22 13 -49v-30v-1q0 -43 -24 -79q-4 -5 -8 -11q-9 -13 -19 -21q-42 -36 -125 -36h-283v207h-203v-207h-140v540h140v-220h203v220h140zM546 209v-99h109q59 0 74 12q11 10 13 29v9q0 32 -30 41q-10 2 -40 7q-10 1 -22 1h-104z" />
    <glyph glyph-name="afii10108" unicode="&#x45b;" horiz-adv-x="606" 
d="M92 729h140v-58h170v-104h-170v-114q58 87 159 87q72 0 121 -41q55 -46 55 -145v-1l-1 -353h-140l1 321q0 43 -16 67q-24 33 -70 33q-66 0 -95 -52q-14 -26 -14 -54v0v-315h-140v567h-70v104h70v58z" />
    <glyph glyph-name="afii10109" unicode="&#x45c;" horiz-adv-x="573" 
d="M199 351l162 189h148l-214 -244l253 -296h-182l-167 198v-198h-140v540h140v-189zM382 790l-126 -150h-70l70 150h126z" />
    <glyph glyph-name="uni045D" unicode="&#x45d;" horiz-adv-x="608" 
d="M60 540h140v-343l188 343h155v-540h-140v343l-188 -343h-155v540zM204 790h126l70 -150h-70z" />
    <glyph glyph-name="afii10110" unicode="&#x45e;" horiz-adv-x="556" 
d="M405 783v-11q0 -71 -57 -110q-33 -22 -75 -22q-72 0 -110 57q-22 34 -22 76v10h56q9 -66 77 -66q61 0 74 59q0 3 1 7h56zM394 540h144l-222 -639q-25 -69 -55 -90q-10 -7 -24 -13q-41 -17 -101 -17q-22 0 -50 4v105q22 -6 37 -6q51 0 75 44q12 21 12 46v3v1l-201 562h154
l119 -393z" />
    <glyph glyph-name="afii10193" unicode="&#x45f;" horiz-adv-x="608" 
d="M357 0v-125h-110v125h-187v540h140v-427h204v427h140v-540h-187z" />
    <glyph glyph-name="uni048C" unicode="&#x48c;" horiz-adv-x="687" 
d="M226 469h187q124 0 183 -96q37 -61 37 -147q0 -168 -137 -212q-43 -14 -98 -14h-322v729h150v-260zM226 344v-219h140q108 0 116 92q1 8 1 18q0 101 -99 108q-9 1 -18 1h-140z" />
    <glyph glyph-name="uni048D" unicode="&#x48d;" horiz-adv-x="562" 
d="M316 333q183 0 217 -128q6 -23 7 -50q0 -65 -45 -109l-8 -7q-46 -39 -136 -39h-291v540h140v-207h116zM200 223v-113h122q67 0 77 39q2 9 2 21q0 41 -34 49q-15 4 -45 4h-122z" />
    <glyph glyph-name="uni048E" unicode="&#x48e;" horiz-adv-x="667" 
d="M226 260v-260h-150v729h322q177 0 222 -135l10 -42q3 -23 3 -49q0 -140 -91 -204l-31 -19q-44 -20 -98 -20h-187zM226 385h140q109 0 116 94q1 7 1 15q0 100 -96 109q-10 1 -21 1h-140v-219z" />
    <glyph glyph-name="uni048F" unicode="&#x48f;" horiz-adv-x="611" 
d="M198 540v-80q50 89 150 89q81 0 143 -56q14 -14 25 -29q56 -85 58 -202q0 -139 -79 -222q-62 -64 -147 -64q-100 0 -150 88v-282h-140v758h140zM316 432q-67 0 -99 -72q-19 -42 -19 -98q0 -106 58 -149q27 -20 60 -20q65 0 98 69q20 42 20 98q0 109 -59 153
q-26 19 -59 19z" />
    <glyph glyph-name="afii10050" unicode="&#x490;" horiz-adv-x="611" 
d="M224 0h-150v729l362 -1v136h150v-260h-362v-604z" />
    <glyph glyph-name="afii10098" unicode="&#x491;" horiz-adv-x="454" 
d="M412 666v-239h-208v-427h-140v540h220v126h128z" />
    <glyph glyph-name="uni0492" unicode="&#x492;" horiz-adv-x="611" 
d="M224 0h-150v729h512v-125h-362v-604z" />
    <glyph glyph-name="uni0493" unicode="&#x493;" horiz-adv-x="454" 
d="M408 540v-113h-208v-427h-140v540h348z" />
    <glyph glyph-name="uni0494" unicode="&#x494;" horiz-adv-x="611" 
d="M224 0h-150v729h512v-125h-362v-604z" />
    <glyph glyph-name="uni0495" unicode="&#x495;" horiz-adv-x="454" 
d="M408 540v-113h-208v-427h-140v540h348z" />
    <glyph glyph-name="uni0496" unicode="&#x496;" horiz-adv-x="1093" 
d="M475 285l-274 -285h-179l357 378l-313 351h164l245 -279v279h150v-279l245 279h164l-313 -351l357 -378h-179l-274 285v-285h-150v285z" />
    <glyph glyph-name="uni0497" unicode="&#x497;" horiz-adv-x="809" 
d="M332 198l-137 -198h-179l213 296l-177 244h148l132 -189v189h140v-189l132 189h148l-177 -244l213 -296h-179l-137 198v-198h-140v198z" />
    <glyph glyph-name="uni0498" unicode="&#x498;" horiz-adv-x="672" 
d="M250 428h76q138 0 138 103q0 60 -66 81q-26 9 -60 9q-135 0 -151 -100l-2 -14h-140q0 94 51 151q75 83 235 83q185 0 249 -112q27 -48 27 -112q0 -93 -63 -140q82 -45 88 -143q1 -10 1 -21q0 -141 -123 -201q-72 -35 -176 -35q-215 0 -279 142q-20 43 -23 99h146
q6 -100 117 -118q22 -3 47 -3q108 0 138 60q9 17 9 38q0 83 -79 106q-18 5 -39 6q-9 1 -19 1h-102v120z" />
    <glyph glyph-name="uni0499" unicode="&#x499;" horiz-adv-x="546" 
d="M206 208v110h94q63 0 65 53v18q0 34 -45 46q-16 4 -36 4q-100 0 -101 -73h-135q2 113 105 159q55 24 130 24q139 0 195 -84q21 -32 26 -73q1 -11 1 -23q0 -55 -30 -88l-14 -10q59 -37 59 -111q0 -80 -60 -131l-4 -4q-60 -48 -172 -48q-232 0 -253 157q-2 11 -2 23h137
q8 -36 27 -51q29 -19 83 -19q90 0 102 42q2 5 2 11q0 42 -25 56l-23 9q-14 3 -34 3h-92z" />
    <glyph glyph-name="uni049A" unicode="&#x49a;" 
d="M224 0h-150v729h150v-279l285 279h177l-366 -351l397 -378h-179l-314 285v-285z" />
    <glyph glyph-name="uni049B" unicode="&#x49b;" horiz-adv-x="573" 
d="M199 351l162 189h148l-214 -244l253 -296h-182l-167 198v-198h-140v540h140v-189z" />
    <glyph glyph-name="uni049C" unicode="&#x49c;" 
d="M224 0h-150v729h150v-279l285 279h177l-366 -351l397 -378h-179l-314 285v-285z" />
    <glyph glyph-name="uni049D" unicode="&#x49d;" horiz-adv-x="573" 
d="M199 351l162 189h148l-214 -244l253 -296h-182l-167 198v-198h-140v540h140v-189z" />
    <glyph glyph-name="uni049E" unicode="&#x49e;" 
d="M224 0h-150v729h150v-279l285 279h177l-366 -351l397 -378h-179l-314 285v-285z" />
    <glyph glyph-name="uni049F" unicode="&#x49f;" horiz-adv-x="573" 
d="M199 351l162 189h148l-214 -244l253 -296h-182l-167 198v-198h-140v540h140v-189z" />
    <glyph glyph-name="uni04A0" unicode="&#x4a0;" 
d="M224 0h-150v729h150v-279l285 279h177l-366 -351l397 -378h-179l-314 285v-285z" />
    <glyph glyph-name="uni04A1" unicode="&#x4a1;" horiz-adv-x="573" 
d="M199 351l162 189h148l-214 -244l253 -296h-182l-167 198v-198h-140v540h140v-189z" />
    <glyph glyph-name="uni04A2" unicode="&#x4a2;" 
d="M507 331h-289v-331h-150v729h150v-273h288v273h151v-729h-150v331z" />
    <glyph glyph-name="uni04A3" unicode="&#x4a3;" horiz-adv-x="608" 
d="M60 540h140v-220h203v220h140v-540h-140v207h-203v-207h-140v540z" />
    <glyph glyph-name="uni04A4" unicode="&#x4a4;" 
d="M507 331h-289v-331h-150v729h150v-273h288v273h151v-729h-150v331z" />
    <glyph glyph-name="uni04A5" unicode="&#x4a5;" horiz-adv-x="608" 
d="M60 540h140v-220h203v220h140v-540h-140v207h-203v-207h-140v540z" />
    <glyph glyph-name="uni04A6" unicode="&#x4a6;" 
d="M507 604h-289v-604h-150v729h589v-729h-150v604z" />
    <glyph glyph-name="uni04A7" unicode="&#x4a7;" horiz-adv-x="608" 
d="M60 540h483v-540h-140v427h-203v-427h-140v540z" />
    <glyph glyph-name="uni04A8" unicode="&#x4a8;" 
d="M682 482h-143q-12 52 -33 78q-42 53 -123 53q-115 0 -163 -111q-19 -45 -24 -105q-2 -20 -2 -41q0 -171 94 -229q39 -24 90 -24q111 0 148 90q10 25 13 56h146q-8 -148 -122 -222q-78 -50 -189 -50q-172 0 -261 128q-69 100 -69 253q0 208 120 310q86 73 214 73
q161 0 248 -106l7 -9q42 -55 49 -144z" />
    <glyph glyph-name="uni04A9" unicode="&#x4a9;" horiz-adv-x="556" 
d="M522 338h-134q-17 77 -61 92l-28 6h-11q-62 0 -87 -46q-27 -51 -27 -131q0 -122 66 -157q22 -12 48 -12q60 0 86 55q8 18 14 42h134q-13 -124 -109 -179q-55 -31 -126 -31q-158 0 -220 124q-33 66 -33 158q0 187 119 257q57 33 136 33q138 0 199 -98q19 -33 28 -73
q4 -19 6 -40z" />
    <glyph glyph-name="uni04AA" unicode="&#x4aa;" 
d="M682 482h-143q-12 52 -33 78q-42 53 -123 53q-115 0 -163 -111q-19 -45 -24 -105q-2 -20 -2 -41q0 -171 94 -229q39 -24 90 -24q111 0 148 90q10 25 13 56h146q-8 -148 -122 -222q-78 -50 -189 -50q-172 0 -261 128q-69 100 -69 253q0 208 120 310q86 73 214 73
q161 0 248 -106l7 -9q42 -55 49 -144z" />
    <glyph glyph-name="uni04AB" unicode="&#x4ab;" horiz-adv-x="556" 
d="M522 338h-134q-17 77 -61 92l-28 6h-11q-62 0 -87 -46q-27 -51 -27 -131q0 -122 66 -157q22 -12 48 -12q60 0 86 55q8 18 14 42h134q-13 -124 -109 -179q-55 -31 -126 -31q-158 0 -220 124q-33 66 -33 158q0 187 119 257q57 33 136 33q138 0 199 -98q19 -33 28 -73
q4 -19 6 -40z" />
    <glyph glyph-name="uni04AC" unicode="&#x4ac;" horiz-adv-x="611" 
d="M385 604v-604h-150v604h-221v125h584v-125h-213z" />
    <glyph glyph-name="uni04AD" unicode="&#x4ad;" horiz-adv-x="454" 
d="M431 540v-113h-135v-427h-140v427h-135v113h410z" />
    <glyph glyph-name="uni04AE" unicode="&#x4ae;" horiz-adv-x="667" 
d="M419 270v-270h-150v270l-242 459h167l149 -322l139 322h168z" />
    <glyph glyph-name="uni04AF" unicode="&#x4af;" horiz-adv-x="556" 
d="M350 0h-147l-189 540h148l117 -395l109 395h148z" />
    <glyph glyph-name="uni04B0" unicode="&#x4b0;" horiz-adv-x="667" 
d="M419 270v-270h-150v270l-242 459h167l149 -322l139 322h168z" />
    <glyph glyph-name="uni04B1" unicode="&#x4b1;" horiz-adv-x="556" 
d="M350 0h-147l-189 540h148l117 -395l109 395h148z" />
    <glyph glyph-name="uni04B2" unicode="&#x4b2;" horiz-adv-x="667" 
d="M419 372l234 -372h-178l-140 253l-139 -253h-174l230 367l-222 362h178l128 -240l134 240h174z" />
    <glyph glyph-name="uni04B3" unicode="&#x4b3;" horiz-adv-x="556" 
d="M355 272l180 -272h-168l-91 168l-92 -168h-168l180 272l-176 268h168l88 -163l87 163h168z" />
    <glyph glyph-name="uni04B4" unicode="&#x4b4;" horiz-adv-x="814" 
d="M507 125v604h150v-621h110v-258h-130v150h-569v729h150v-604h289z" />
    <glyph glyph-name="uni04B5" unicode="&#x4b5;" horiz-adv-x="685" 
d="M60 0v540h140v-427h203v427h140v-439h96v-226h-110v125h-469z" />
    <glyph glyph-name="uni04B6" unicode="&#x4b6;" horiz-adv-x="675" 
d="M464 274h-246q-78 1 -122 49q-28 30 -28 69v337h150v-330h245v330h151v-729h-150v274z" />
    <glyph glyph-name="uni04B7" unicode="&#x4b7;" horiz-adv-x="580" 
d="M60 540h140v-262h178v262h140v-540h-140v165h-178q-139 0 -140 114v261z" />
    <glyph glyph-name="uni04B8" unicode="&#x4b8;" horiz-adv-x="675" 
d="M464 274h-246q-78 1 -122 49q-28 30 -28 69v337h150v-330h245v330h151v-729h-150v274z" />
    <glyph glyph-name="uni04B9" unicode="&#x4b9;" horiz-adv-x="580" 
d="M60 540h140v-262h178v262h140v-540h-140v165h-178q-139 0 -140 114v261z" />
    <glyph glyph-name="uni04BA" unicode="&#x4ba;" horiz-adv-x="675" 
d="M218 455h246q78 -1 122 -49l16 -21q12 -23 12 -48v-337h-150v330h-245v-330h-151v729h150v-274z" />
    <glyph glyph-name="uni04BB" unicode="&#x4bb;" horiz-adv-x="580" 
d="M518 0h-140v262h-178v-262h-140v540h140v-165h178q139 0 140 -114v-261z" />
    <glyph glyph-name="uni04BC" unicode="&#x4bc;" 
d="M682 482h-143q-12 52 -33 78q-42 53 -123 53q-115 0 -163 -111q-19 -45 -24 -105q-2 -20 -2 -41q0 -171 94 -229q39 -24 90 -24q111 0 148 90q10 25 13 56h146q-8 -148 -122 -222q-78 -50 -189 -50q-172 0 -261 128q-69 100 -69 253q0 208 120 310q86 73 214 73
q161 0 248 -106l7 -9q42 -55 49 -144z" />
    <glyph glyph-name="uni04BD" unicode="&#x4bd;" horiz-adv-x="556" 
d="M522 338h-134q-17 77 -61 92l-28 6h-11q-62 0 -87 -46q-27 -51 -27 -131q0 -122 66 -157q22 -12 48 -12q60 0 86 55q8 18 14 42h134q-13 -124 -109 -179q-55 -31 -126 -31q-158 0 -220 124q-33 66 -33 158q0 187 119 257q57 33 136 33q138 0 199 -98q19 -33 28 -73
q4 -19 6 -40z" />
    <glyph glyph-name="uni04BE" unicode="&#x4be;" 
d="M682 482h-143q-12 52 -33 78q-42 53 -123 53q-115 0 -163 -111q-19 -45 -24 -105q-2 -20 -2 -41q0 -171 94 -229q39 -24 90 -24q111 0 148 90q10 25 13 56h146q-8 -148 -122 -222q-78 -50 -189 -50q-172 0 -261 128q-69 100 -69 253q0 208 120 310q86 73 214 73
q161 0 248 -106l7 -9q42 -55 49 -144z" />
    <glyph glyph-name="uni04BF" unicode="&#x4bf;" horiz-adv-x="556" 
d="M522 338h-134q-17 77 -61 92l-28 6h-11q-62 0 -87 -46q-27 -51 -27 -131q0 -122 66 -157q22 -12 48 -12q60 0 86 55q8 18 14 42h134q-13 -124 -109 -179q-55 -31 -126 -31q-158 0 -220 124q-33 66 -33 158q0 187 119 257q57 33 136 33q138 0 199 -98q19 -33 28 -73
q4 -19 6 -40z" />
    <glyph glyph-name="uni04C0" unicode="&#x4c0;" horiz-adv-x="278" 
d="M213 729v-729h-150v729h150z" />
    <glyph glyph-name="uni04C1" unicode="&#x4c1;" horiz-adv-x="1093" 
d="M682 922v-11q0 -71 -57 -110q-33 -22 -75 -22q-72 0 -110 57q-22 34 -22 76v10h56q9 -66 77 -66q61 0 74 59q0 3 1 7h56zM475 285l-269 -285h-184l357 378l-313 351h164l245 -279v279h150v-279l245 279h164l-313 -351l357 -378h-184l-269 285v-285h-150v285z" />
    <glyph glyph-name="uni04C2" unicode="&#x4c2;" horiz-adv-x="809" 
d="M534 733v-11q0 -71 -57 -110q-33 -22 -75 -22q-72 0 -110 57q-22 34 -22 76v10h56q9 -66 77 -66q61 0 74 59q0 3 1 7h56zM332 198l-137 -198h-179l213 296l-177 244h148l132 -189v189h140v-189l132 189h148l-177 -244l213 -296h-179l-137 198v-198h-140v198z" />
    <glyph glyph-name="uni04C3" unicode="&#x4c3;" 
d="M224 0h-150v729h150v-279l285 279h177l-366 -351l397 -378h-179l-314 285v-285z" />
    <glyph glyph-name="uni04C4" unicode="&#x4c4;" horiz-adv-x="573" 
d="M199 351l162 189h148l-214 -244l253 -296h-182l-167 198v-198h-140v540h140v-189z" />
    <glyph glyph-name="uni04C7" unicode="&#x4c7;" 
d="M507 331h-289v-331h-150v729h150v-273h288v273h151v-729h-150v331z" />
    <glyph glyph-name="uni04C8" unicode="&#x4c8;" horiz-adv-x="608" 
d="M60 540h140v-220h203v220h140v-540h-140v207h-203v-207h-140v540z" />
    <glyph glyph-name="uni04CB" unicode="&#x4cb;" horiz-adv-x="675" 
d="M464 274h-246q-78 1 -122 49q-28 30 -28 69v337h150v-330h245v330h151v-729h-150v274z" />
    <glyph glyph-name="uni04CC" unicode="&#x4cc;" horiz-adv-x="580" 
d="M60 540h140v-262h178v262h140v-540h-140v165h-178q-139 0 -140 114v261z" />
    <glyph glyph-name="uni04D0" unicode="&#x4d0;" 
d="M501 147h-273l-49 -147h-153l259 729h166l252 -729h-154zM460 272l-95 285l-95 -285h190zM492 927v-11q0 -71 -57 -110q-33 -22 -75 -22q-72 0 -110 57q-22 34 -22 76v10h56q9 -66 77 -66q61 0 74 59q0 3 1 7h56z" />
    <glyph glyph-name="uni04D1" unicode="&#x4d1;" horiz-adv-x="556" 
d="M524 17v-17h-152q-16 24 -16 54q-74 -77 -164 -77q-77 0 -126 51q-38 41 -38 111q0 143 159 170l56 10q68 11 83 18q1 1 5 3q24 13 24 42q0 54 -81 54q-68 0 -87 -32l-9 -24l-3 -18h-135q13 187 231 187q221 0 221 -166v-300q0 -34 26 -60zM355 217v38q-19 -9 -59 -17
l-48 -9q-66 -14 -77 -50l-3 -24q0 -49 49 -62q12 -3 27 -3q87 0 106 83q5 20 5 44zM407 748v-11q0 -71 -57 -110q-33 -22 -75 -22q-72 0 -110 57q-22 34 -22 76v10h56q9 -66 77 -66q61 0 74 59q0 3 1 7h56z" />
    <glyph glyph-name="uni04D2" unicode="&#x4d2;" 
d="M501 147h-273l-49 -147h-153l259 729h166l252 -729h-154zM460 272l-95 285l-95 -285h190zM326 922v-122h-110v122h110zM512 922v-122h-110v122h110z" />
    <glyph glyph-name="uni04D3" unicode="&#x4d3;" horiz-adv-x="556" 
d="M524 17v-17h-152q-16 24 -16 54q-74 -77 -164 -77q-77 0 -126 51q-38 41 -38 111q0 143 159 170l56 10q68 11 83 18q1 1 5 3q24 13 24 42q0 54 -81 54q-68 0 -87 -32l-9 -24l-3 -18h-135q13 187 231 187q221 0 221 -166v-300q0 -34 26 -60zM355 217v38q-19 -9 -59 -17
l-48 -9q-66 -14 -77 -50l-3 -24q0 -49 49 -62q12 -3 27 -3q87 0 106 83q5 20 5 44zM234 743v-122h-110v122h110zM420 743v-122h-110v122h110z" />
    <glyph glyph-name="uni04D4" unicode="&#x4d4;" horiz-adv-x="1000" 
d="M430 152h-223l-53 -152h-153l263 729h682v-125h-366v-165h339v-125h-339v-189h386v-125h-536v152zM430 277v327h-67l-114 -327h181z" />
    <glyph glyph-name="uni04D5" unicode="&#x4d5;" horiz-adv-x="889" 
d="M712 152h138q-30 -103 -129 -149q-55 -26 -121 -26q-136 0 -200 104q-83 -97 -185 -104q-10 -1 -20 -1q-105 0 -147 77q-21 38 -21 88q0 136 141 167l18 4l56 10q68 11 83 18q1 1 5 3q24 13 24 40q0 53 -85 53q-68 0 -86 -39q-6 -14 -9 -35h-131q3 187 228 187
q117 0 175 -50q62 50 155 50q134 0 204 -99l21 -35l10 -23q21 -60 21 -142q0 -12 -1 -24h-362q0 -62 20 -93q32 -49 94 -49q57 0 89 41q11 13 15 27zM354 216v38q-22 -13 -59 -19l-48 -7q-80 -11 -80 -73q0 -51 50 -63q12 -3 26 -3q95 0 109 96q2 15 2 31zM495 319h216
q-11 123 -109 123t-107 -123z" />
    <glyph glyph-name="uni04D6" unicode="&#x4d6;" horiz-adv-x="709" 
d="M474 922v-11q0 -71 -57 -110q-33 -22 -75 -22q-72 0 -110 57q-22 34 -22 76v10h56q9 -66 77 -66q61 0 74 59q0 3 1 7h56zM232 314v-189h395v-125h-545v729h527v-125h-377v-165h349v-125h-349z" />
    <glyph glyph-name="uni04D7" unicode="&#x4d7;" horiz-adv-x="556" 
d="M392 733v-11q0 -71 -57 -110q-33 -22 -75 -22q-72 0 -110 57q-22 34 -22 76v10h56q9 -66 77 -66q61 0 74 59q0 3 1 7h56zM524 226h-362q3 -68 20 -95q31 -47 92 -47q75 0 104 61q2 3 3 7h138q-29 -101 -126 -147q-56 -28 -124 -28q-142 0 -207 110q-40 69 -40 169
q0 173 104 249q60 44 146 44q125 0 195 -90q21 -27 34 -60q2 -4 3 -7q21 -61 21 -142q0 -12 -1 -24zM164 319h215q-4 50 -22 78q-32 45 -87 45q-92 0 -106 -123z" />
    <glyph glyph-name="uni04D8" unicode="&#x4d8;" 
d="M522 249h-332q10 -108 101 -137q27 -9 60 -9q116 0 161 114q6 15 10 32zM535 355v1q0 169 -93 230q-41 27 -96 27q-81 0 -123 -53q-21 -26 -33 -78h-143q7 88 49 144q83 110 241 115h14q176 0 266 -131q68 -99 68 -252q0 -205 -118 -308q-85 -73 -212 -73
q-173 0 -254 134q-57 95 -57 244h491z" />
    <glyph glyph-name="afii10846" unicode="&#x4d9;" horiz-adv-x="556" 
d="M382 266v1q0 122 -66 157q-22 12 -48 12q-60 0 -86 -55l-14 -41v-1h-134q13 124 109 179q55 31 126 31q158 0 220 -124q33 -66 33 -158q0 -187 -119 -257q-36 -20 -80 -28q-26 -5 -56 -5q-138 0 -199 98q-29 48 -34 113v78h348zM369 170h-196q18 -66 66 -77q12 -3 29 -3
q62 0 87 46q8 15 14 34z" />
    <glyph glyph-name="uni04DA" unicode="&#x4da;" 
d="M319 951v-122h-110v122h110zM505 951v-122h-110v122h110zM522 249h-332q10 -108 101 -137q27 -9 60 -9q116 0 161 114q6 15 10 32zM535 355v1q0 169 -93 230q-41 27 -96 27q-81 0 -123 -53q-21 -26 -33 -78h-143q7 88 49 144q83 110 241 115h14q176 0 266 -131
q68 -99 68 -252q0 -205 -118 -308q-85 -73 -212 -73q-173 0 -254 134q-57 95 -57 244h491z" />
    <glyph glyph-name="uni04DB" unicode="&#x4db;" horiz-adv-x="556" 
d="M237 712v-122h-110v122h110zM423 712v-122h-110v122h110zM382 266v1q0 122 -66 157q-22 12 -48 12q-60 0 -86 -55l-14 -41v-1h-134q13 124 109 179q55 31 126 31q158 0 220 -124q33 -66 33 -158q0 -187 -119 -257q-36 -20 -80 -28q-26 -5 -56 -5q-138 0 -199 98
q-29 48 -34 113v78h348zM369 170h-196q18 -66 66 -77q12 -3 29 -3q62 0 87 46q8 15 14 34z" />
    <glyph glyph-name="uni04DC" unicode="&#x4dc;" horiz-adv-x="1093" 
d="M512 901v-122h-110v122h110zM698 901v-122h-110v122h110zM475 285l-269 -285h-184l357 378l-313 351h164l245 -279v279h150v-279l245 279h164l-313 -351l357 -378h-184l-269 285v-285h-150v285z" />
    <glyph glyph-name="uni04DD" unicode="&#x4dd;" horiz-adv-x="809" 
d="M364 712v-122h-110v122h110zM550 712v-122h-110v122h110zM332 198l-137 -198h-179l213 296l-177 244h148l132 -189v189h140v-189l132 189h148l-177 -244l213 -296h-179l-137 198v-198h-140v198z" />
    <glyph glyph-name="uni04DE" unicode="&#x4de;" horiz-adv-x="672" 
d="M216 901v-122h-110v122h110zM402 901v-122h-110v122h110zM250 428h76q138 0 138 103q0 60 -66 81q-26 9 -60 9q-135 0 -151 -100l-2 -14h-140q0 94 51 151q75 83 235 83q185 0 249 -112q27 -48 27 -112q0 -93 -63 -140q82 -45 88 -143q1 -10 1 -21q0 -141 -123 -201
q-72 -35 -176 -35q-215 0 -279 142q-20 43 -23 99h146q6 -100 117 -118q22 -3 47 -3q108 0 138 60q9 17 9 38q0 83 -79 106q-18 5 -39 6q-9 1 -19 1h-102v120z" />
    <glyph glyph-name="uni04DF" unicode="&#x4df;" horiz-adv-x="546" 
d="M236 712v-122h-110v122h110zM422 712v-122h-110v122h110zM206 208v110h94q63 0 65 53v18q0 34 -45 46q-16 4 -36 4q-100 0 -101 -73h-135q2 113 105 159q55 24 130 24q139 0 195 -84q21 -32 26 -73q1 -11 1 -23q0 -55 -30 -88l-14 -10q59 -37 59 -111q0 -80 -60 -131
l-4 -4q-60 -48 -172 -48q-232 0 -253 157q-2 11 -2 23h137q8 -36 27 -51q29 -19 83 -19q90 0 102 42q2 5 2 11q0 42 -25 56l-23 9q-14 3 -34 3h-92z" />
    <glyph glyph-name="uni04E0" unicode="&#x4e0;" horiz-adv-x="672" 
d="M250 428h76q138 0 138 103q0 60 -66 81q-26 9 -60 9q-135 0 -151 -100l-2 -14h-140q0 94 51 151q75 83 235 83q185 0 249 -112q27 -48 27 -112q0 -93 -63 -140q82 -45 88 -143q1 -10 1 -21q0 -141 -123 -201q-72 -35 -176 -35q-215 0 -279 142q-20 43 -23 99h146
q6 -100 117 -118q22 -3 47 -3q108 0 138 60q9 17 9 38q0 83 -79 106q-18 5 -39 6q-9 1 -19 1h-102v120z" />
    <glyph glyph-name="uni04E1" unicode="&#x4e1;" horiz-adv-x="546" 
d="M206 208v110h94q63 0 65 53v18q0 34 -45 46q-16 4 -36 4q-100 0 -101 -73h-135q2 113 105 159q55 24 130 24q139 0 195 -84q21 -32 26 -73q1 -11 1 -23q0 -55 -30 -88l-14 -10q59 -37 59 -111q0 -80 -60 -131l-4 -4q-60 -48 -172 -48q-232 0 -253 157q-2 11 -2 23h137
q8 -36 27 -51q29 -19 83 -19q90 0 102 42q2 5 2 11q0 42 -25 56l-23 9q-14 3 -34 3h-92z" />
    <glyph glyph-name="uni04E2" unicode="&#x4e2;" horiz-adv-x="757" 
d="M514 858v-79h-299v79h299zM232 0h-150v729h150v-496l289 496h154v-729h-150v504z" />
    <glyph glyph-name="uni04E3" unicode="&#x4e3;" horiz-adv-x="615" 
d="M451 669v-79h-299v79h299zM60 540h140v-338l195 338h160v-540h-140v338l-195 -338h-160v540z" />
    <glyph glyph-name="uni04E4" unicode="&#x4e4;" horiz-adv-x="757" 
d="M326 901v-122h-110v122h110zM512 901v-122h-110v122h110zM232 0h-150v729h150v-496l289 496h154v-729h-150v504z" />
    <glyph glyph-name="uni04E5" unicode="&#x4e5;" horiz-adv-x="615" 
d="M263 712v-122h-110v122h110zM449 712v-122h-110v122h110zM60 540h140v-338l195 338h160v-540h-140v338l-195 -338h-160v540z" />
    <glyph glyph-name="uni04E6" unicode="&#x4e6;" horiz-adv-x="778" 
d="M353 922v-122h-110v122h110zM539 922v-122h-110v122h110zM390 741q156 0 250 -101q98 -105 102 -273v-13q0 -133 -71 -237q-14 -21 -31 -39q-94 -101 -249 -101t-249 101q-90 96 -101 247q-1 17 -1 34q0 157 88 265l14 16q93 101 248 101zM391 613q-108 0 -163 -94
l-18 -38q-20 -54 -20 -122q0 -144 82 -213q50 -41 119 -41q105 0 161 92q40 65 40 158q0 154 -87 221q-48 37 -114 37z" />
    <glyph glyph-name="uni04E7" unicode="&#x4e7;" horiz-adv-x="611" 
d="M264 743v-122h-110v122h110zM450 743v-122h-110v122h110zM301 549q165 0 232 -125q36 -68 36 -165q0 -158 -103 -233q-67 -49 -164 -49q-156 0 -225 115q-42 70 -42 171q0 166 107 241q65 45 159 45zM302 436q-73 0 -107 -74q-20 -42 -20 -99q0 -106 61 -152
q29 -21 66 -21q71 0 106 71q21 43 21 100q0 113 -64 156q-33 17 -63 19z" />
    <glyph glyph-name="uni04E8" unicode="&#x4e8;" horiz-adv-x="778" 
d="M390 741q156 0 250 -101q98 -105 102 -273v-13q0 -133 -71 -237q-14 -21 -31 -39q-94 -101 -249 -101t-249 101q-90 96 -101 247q-1 17 -1 34q0 157 88 265l14 16q93 101 248 101zM590 400q-15 138 -106 190q-41 23 -93 23q-108 0 -163 -95q-29 -50 -36 -118h398z
M591 321h-399q12 -132 99 -188q44 -28 100 -28q105 0 161 92q32 52 39 124z" />
    <glyph glyph-name="uni04E9" unicode="&#x4e9;" horiz-adv-x="611" 
d="M301 549q165 0 232 -125q36 -68 36 -165q0 -158 -103 -233q-67 -49 -164 -49q-156 0 -225 115q-42 70 -42 171q0 166 107 241q65 45 159 45zM426 303q-14 97 -80 124q-20 9 -44 9q-73 0 -107 -74q-13 -26 -17 -59h248zM427 224h-249q13 -94 76 -124q22 -10 48 -10
q71 0 106 71q14 28 19 63z" />
    <glyph glyph-name="uni04EA" unicode="&#x4ea;" horiz-adv-x="778" 
d="M353 951v-122h-110v122h110zM539 951v-122h-110v122h110zM390 741q156 0 250 -101q98 -105 102 -273v-13q0 -133 -71 -237q-14 -21 -31 -39q-94 -101 -249 -101t-249 101q-90 96 -101 247q-1 17 -1 34q0 157 88 265l14 16q93 101 248 101zM590 400q-15 138 -106 190
q-41 23 -93 23q-108 0 -163 -95q-29 -50 -36 -118h398zM591 321h-399q12 -132 99 -188q44 -28 100 -28q105 0 161 92q32 52 39 124z" />
    <glyph glyph-name="uni04EB" unicode="&#x4eb;" horiz-adv-x="611" 
d="M264 762v-122h-110v122h110zM450 762v-122h-110v122h110zM301 549q165 0 232 -125q36 -68 36 -165q0 -158 -103 -233q-67 -49 -164 -49q-156 0 -225 115q-42 70 -42 171q0 166 107 241q65 45 159 45zM426 303q-14 97 -80 124q-20 9 -44 9q-73 0 -107 -74q-13 -26 -17 -59
h248zM427 224h-249q13 -94 76 -124q22 -10 48 -10q71 0 106 71q14 28 19 63z" />
    <glyph glyph-name="uni04EC" unicode="&#x4ec;" 
d="M251 901v-122h-110v122h110zM437 901v-122h-110v122h110zM241 311v125h291q-22 126 -116 164q-32 13 -70 13q-81 0 -123 -53q-21 -26 -33 -78h-143q7 88 49 144q83 110 241 115h14q176 0 266 -131q68 -99 68 -252q0 -205 -118 -308q-85 -73 -212 -73q-165 0 -250 105
q-56 68 -61 167h146q10 -108 101 -137q27 -9 60 -9q119 0 163 118q14 40 19 90h-292z" />
    <glyph glyph-name="uni04ED" unicode="&#x4ed;" horiz-adv-x="564" 
d="M223 712v-122h-110v122h110zM409 712v-122h-110v122h110zM203 207v113h174q-8 44 -22 70q-25 46 -87 46q-61 0 -85 -51q-9 -19 -15 -47h-134q10 132 113 185q52 26 120 26q159 0 222 -127q33 -67 33 -163q0 -180 -116 -248q-57 -34 -137 -34q-128 0 -193 92
q-35 49 -42 118h134q20 -78 67 -93q14 -4 33 -4q74 0 101 82q6 16 9 35h-175z" />
    <glyph glyph-name="uni04EE" unicode="&#x4ee;" horiz-adv-x="718" 
d="M505 858v-79h-299v79h299zM328 0h-174l114 226l-253 503h163l172 -345l172 345h174z" />
    <glyph glyph-name="uni04EF" unicode="&#x4ef;" horiz-adv-x="556" 
d="M429 669v-79h-299v79h299zM394 540h144l-222 -639q-25 -69 -55 -90q-10 -7 -24 -13q-41 -17 -101 -17q-22 0 -50 4v105q22 -6 37 -6q51 0 75 44q12 21 12 46v3v1l-201 562h154l119 -393z" />
    <glyph glyph-name="uni04F0" unicode="&#x4f0;" horiz-adv-x="718" 
d="M317 901v-122h-110v122h110zM503 901v-122h-110v122h110zM328 0h-174l114 226l-253 503h163l172 -345l172 345h174z" />
    <glyph glyph-name="uni04F1" unicode="&#x4f1;" horiz-adv-x="556" 
d="M241 712v-122h-110v122h110zM427 712v-122h-110v122h110zM394 540h144l-222 -639q-25 -69 -55 -90q-10 -7 -24 -13q-41 -17 -101 -17q-22 0 -50 4v105q22 -6 37 -6q51 0 75 44q12 21 12 46v3v1l-201 562h154l119 -393z" />
    <glyph glyph-name="uni04F2" unicode="&#x4f2;" horiz-adv-x="718" 
d="M359 926l-126 -147h-70l70 147h126zM547 926l-126 -147h-70l70 147h126zM328 0h-174l114 226l-253 503h163l172 -345l172 345h174z" />
    <glyph glyph-name="uni04F3" unicode="&#x4f3;" horiz-adv-x="556" 
d="M283 737l-126 -147h-70l70 147h126zM471 737l-126 -147h-70l70 147h126zM394 540h144l-222 -639q-25 -69 -55 -90q-10 -7 -24 -13q-41 -17 -101 -17q-22 0 -50 4v105q22 -6 37 -6q51 0 75 44q12 21 12 46v3v1l-201 562h154l119 -393z" />
    <glyph glyph-name="uni04F4" unicode="&#x4f4;" horiz-adv-x="685" 
d="M303 901v-122h-110v122h110zM489 901v-122h-110v122h110zM474 225h-188q-101 0 -167 65q-51 51 -51 116v323h150v-317q0 -48 55 -59q12 -3 25 -3h175v379h151v-729h-150v225z" />
    <glyph glyph-name="uni04F5" unicode="&#x4f5;" horiz-adv-x="578" 
d="M251 712v-122h-110v122h110zM437 712v-122h-110v122h110zM60 540h140v-214q0 -39 29 -46q10 -2 29 -2h120v262h140v-540h-140v165h-118q-155 0 -191 100q-9 27 -9 60v215z" />
    <glyph glyph-name="uni04F8" unicode="&#x4f8;" horiz-adv-x="949" 
d="M438 901v-122h-110v122h110zM624 901v-122h-110v122h110zM884 729v-729h-150v729h150zM218 469h187q124 0 183 -96q37 -61 37 -147q0 -168 -137 -212q-43 -14 -98 -14h-322v729h150v-260zM218 344v-219h140q108 0 116 92q1 8 1 18q0 101 -99 108q-9 1 -18 1h-140z" />
    <glyph glyph-name="uni04F9" unicode="&#x4f9;" horiz-adv-x="811" 
d="M365 712v-122h-110v122h110zM551 712v-122h-110v122h110zM308 359q143 0 198 -92q26 -43 26 -99q0 -60 -34 -108q-9 -13 -19 -21q-46 -39 -136 -39h-283v540h140v-181h108zM200 249v-139h109q78 9 84 70q0 58 -67 68q-10 1 -22 1h-104zM718 540v-540h-140v540h140z" />
    <glyph glyph-name="afii57799" unicode="&#x5b0;" horiz-adv-x="82" 
d="M0 -172h82v-82h-82v82zM0 -60h82v-82h-82v82z" />
    <glyph glyph-name="afii57801" unicode="&#x5b1;" horiz-adv-x="347" 
d="M65 -172h82v-82h-82v82zM0 -60h82v-82h-82v82zM129 -60h83v-82h-83v82zM265 -60h82v-82h-82v82zM265 -172h82v-82h-82v82z" />
    <glyph glyph-name="afii57800" unicode="&#x5b2;" horiz-adv-x="341" 
d="M0 -60h200v-82h-200v82zM259 -60h82v-82h-82v82zM259 -172h82v-82h-82v82z" />
    <glyph glyph-name="afii57802" unicode="&#x5b3;" horiz-adv-x="341" 
d="M259 -172h82v-82h-82v82zM259 -60h82v-82h-82v82zM141 -142v-106h-82v106h-59v82h200v-82h-59z" />
    <glyph glyph-name="afii57793" unicode="&#x5b4;" horiz-adv-x="82" 
d="M0 -60h82v-82h-82v82z" />
    <glyph glyph-name="afii57794" unicode="&#x5b5;" horiz-adv-x="211" 
d="M0 -60h82v-82h-82v82zM129 -60h83v-82h-83v82z" />
    <glyph glyph-name="afii57795" unicode="&#x5b6;" horiz-adv-x="211" 
d="M65 -172h82v-82h-82v82zM0 -60h82v-82h-82v82zM129 -60h83v-82h-83v82z" />
    <glyph glyph-name="afii57798" unicode="&#x5b7;" horiz-adv-x="200" 
d="M0 -60h200v-82h-200v82z" />
    <glyph glyph-name="afii57797" unicode="&#x5b8;" horiz-adv-x="200" 
d="M141 -142v-106h-82v106h-59v82h200v-82h-59z" />
    <glyph glyph-name="afii57806" unicode="&#x5b9;" horiz-adv-x="82" 
d="M0 742h82v-82h-82v82z" />
    <glyph glyph-name="afii57796" unicode="&#x5bb;" horiz-adv-x="341" 
d="M259 -172h82v-82h-82v82zM129 -113h83v-82h-83v82zM0 -60h82v-82h-82v82z" />
    <glyph glyph-name="afii57807" unicode="&#x5bc;" horiz-adv-x="82" 
d="M0 339h82v-82h-82v82z" />
    <glyph glyph-name="afii57839" unicode="&#x5bd;" horiz-adv-x="82" 
d="M82 -60v-188h-82v188h82z" />
    <glyph glyph-name="afii57645" unicode="&#x5be;" horiz-adv-x="516" 
d="M63 485v115h381v-115h-381z" />
    <glyph glyph-name="afii57841" unicode="&#x5bf;" horiz-adv-x="200" 
d="M0 742h200v-82h-200v82z" />
    <glyph glyph-name="afii57842" unicode="&#x5c0;" horiz-adv-x="297" 
d="M79 -100v800h139v-800h-139z" />
    <glyph glyph-name="afii57804" unicode="&#x5c1;" horiz-adv-x="1038" 
d="M650 721h82v-82h-82v82z" />
    <glyph glyph-name="afii57803" unicode="&#x5c2;" horiz-adv-x="1038" 
d="M101 721h82v-82h-82v82z" />
    <glyph glyph-name="afii57658" unicode="&#x5c3;" horiz-adv-x="333" 
d="M263 146v-146h-150v146h150zM263 520v-146h-150v146h150z" />
    <glyph glyph-name="uni05C4" unicode="&#x5c4;" horiz-adv-x="82" 
d="M0 742h82v-82h-82v82z" />
    <glyph glyph-name="afii57664" unicode="&#x5d0;" horiz-adv-x="714" 
d="M286 285q-36 -44 -50 -103l-8 -34v-148h-139v158q17 93 48 145q13 22 33 46q17 21 42 39l-151 212h161l203 -285q36 44 50 99q2 8 7 30v156h139v-167q-16 -89 -54 -146q-11 -18 -27 -37q-18 -21 -42 -38l152 -212h-163z" />
    <glyph glyph-name="afii57665" unicode="&#x5d1;" horiz-adv-x="651" 
d="M380 115v250q-11 49 -21 65l-9 14q-7 9 -12 12q-2 1 -5 3q-27 15 -76 24q-6 1 -10 2h-170v115h182q84 -10 144 -41q3 -1 6 -3q40 -19 61 -54q35 -49 47 -113l2 -15v-259h91v-115h-533v115h303z" />
    <glyph glyph-name="afii57666" unicode="&#x5d2;" horiz-adv-x="557" 
d="M347 138l-127 -138h-173l177 194h117l-19 167q-14 55 -21 69q-4 7 -9 14q-8 10 -13 12q-2 1 -5 3q-27 15 -76 24q-6 1 -10 2h-73v115h85q83 -9 142 -40l8 -4q39 -19 62 -54q28 -40 43 -103l5 -21l43 -378h-140z" />
    <glyph glyph-name="afii57667" unicode="&#x5d3;" horiz-adv-x="638" 
d="M344 485h-281v115h503v-115h-83v-485h-139v485z" />
    <glyph glyph-name="afii57668" unicode="&#x5d4;" horiz-adv-x="682" 
d="M612 374v0v-374h-139v365q-11 49 -21 65q-4 7 -9 14q-8 10 -10 12l-7 3q-27 16 -76 25q-6 1 -10 1h-261v115h273q84 -9 144 -40l6 -4q39 -18 62 -54q35 -49 46 -114q1 -6 2 -14zM79 0v349h139v-349h-139z" />
    <glyph glyph-name="afii57669" unicode="&#x5d5;" horiz-adv-x="297" 
d="M79 0v600h139v-600h-139z" />
    <glyph glyph-name="afii57670" unicode="&#x5d6;" horiz-adv-x="443" 
d="M149 485h-86v115h308v-115h-83v-485h-139v485z" />
    <glyph glyph-name="afii57671" unicode="&#x5d7;" horiz-adv-x="682" 
d="M612 374v-374h-139v365q-11 49 -21 65l-9 14q-8 10 -10 11l-7 4q-27 15 -76 24q-6 1 -10 2h-122v-485h-139v600h273q72 -3 140 -39q5 -2 10 -5q39 -19 62 -54q35 -50 46 -114q1 -6 2 -14z" />
    <glyph glyph-name="afii57672" unicode="&#x5d8;" horiz-adv-x="670" 
d="M340 485v0q-27 0 -46 -12v122q33 5 51 5q75 0 154 -44q38 -18 61 -54q36 -52 47 -116l2 -12v-148q-11 -69 -41 -116l-8 -12q-23 -36 -61 -54q-78 -44 -157 -44q-77 0 -156 44q-37 18 -61 54q-36 52 -47 116l-2 12v374h139v-365q11 -49 21 -65l9 -14q9 -10 13 -13l4 -2
q44 -23 59 -25q7 -1 21 -1q32 1 55 12q2 2 25 14q11 6 14 10q2 2 4 5q18 25 27 65q2 9 3 14v130q-11 49 -20 65q-4 6 -10 14q-8 10 -12 12q-3 1 -6 3q-43 22 -54 24z" />
    <glyph glyph-name="afii57673" unicode="&#x5d9;" horiz-adv-x="284" 
d="M212 333l-139 -57v324h139v-267z" />
    <glyph glyph-name="afii57674" unicode="&#x5da;" horiz-adv-x="590" 
d="M381 -200v565q-11 49 -21 65l-9 14q-8 10 -13 12q-2 1 -5 3q-26 15 -75 24l-10 2h-186v115h197q83 -9 144 -40q3 -2 7 -4q38 -18 61 -54q36 -52 47 -116l2 -12v-574h-139z" />
    <glyph glyph-name="afii57675" unicode="&#x5db;" horiz-adv-x="595" 
d="M273 0v0h-197v115h186q54 10 73 20l12 6q10 6 13 10l5 5q18 25 27 65q2 9 3 14v130q-11 49 -21 65l-9 14q-9 10 -13 12q-3 1 -5 3q-27 15 -75 24l-10 2h-186v115h197q83 -9 143 -40l8 -4q37 -18 61 -54q36 -52 47 -116l2 -12v-148q-11 -69 -42 -116q-3 -6 -7 -12
q-24 -36 -61 -54q-64 -33 -143 -43q-4 -1 -8 -1z" />
    <glyph glyph-name="afii57676" unicode="&#x5dc;" horiz-adv-x="667" 
d="M410 101v-101h-139v107q8 67 12 77q7 25 24 49q29 40 91 77q29 17 35 27q15 22 20 62q2 12 3 20v66h-394v265h139v-150h394v-188q-5 -69 -24 -104q-5 -11 -12 -21q-31 -47 -97 -84q-24 -14 -29 -20q-21 -27 -23 -63v-19z" />
    <glyph glyph-name="afii57677" unicode="&#x5dd;" horiz-adv-x="683" 
d="M613 0h-533v600h266q88 0 157 -44q68 -43 97 -117q13 -34 13 -70v-369zM474 115v254q-3 50 -36 81q-6 6 -12 9q-40 25 -80 26h-127v-370h255z" />
    <glyph glyph-name="afii57678" unicode="&#x5de;" horiz-adv-x="704" 
d="M298 485l-72 -485h-140l72 485h-91v115h300q70 0 123 -25q77 -35 116 -101q27 -43 27 -105v-369h-270v115h131v254q0 32 -12 51q-22 32 -35 41l-26 14q-20 10 -54 10h-69z" />
    <glyph glyph-name="afii57679" unicode="&#x5df;" horiz-adv-x="297" 
d="M79 -200v800h139v-800h-139z" />
    <glyph glyph-name="afii57680" unicode="&#x5e0;" horiz-adv-x="429" 
d="M359 0h-286v115h147v250q-11 49 -21 65l-9 14q-6 8 -20 17q-41 24 -86 24v115q90 0 167 -45q40 -23 59 -53q42 -60 48 -113l1 -15v-374z" />
    <glyph glyph-name="afii57681" unicode="&#x5e1;" horiz-adv-x="670" 
d="M342 0v0l-46 3q-53 9 -110 41q-38 18 -61 54q-42 60 -48 113q-1 7 -1 15v374h272q71 -3 139 -38l12 -6q37 -18 61 -54q35 -52 47 -116l2 -12v-148q-11 -69 -42 -116q-3 -6 -7 -12q-24 -36 -61 -54q-79 -44 -152 -44h-5zM342 115q32 1 54 12q2 2 26 14q10 6 13 10l5 5
q18 25 27 65q1 9 3 14v130q-12 49 -21 65l-9 14q-9 10 -13 12q-3 1 -5 3q-27 15 -76 24l-9 2h-122v-250q11 -49 20 -65l10 -14q8 -10 13 -13l4 -2q43 -23 58 -25q7 -1 22 -1z" />
    <glyph glyph-name="afii57682" unicode="&#x5e2;" horiz-adv-x="653" 
d="M346 136q41 17 56 32l3 3q21 22 29 60l6 31v338h139v-348q-13 -72 -27 -99q-13 -26 -36 -52q-38 -42 -106 -68l-33 -12l-317 -76v120l152 36l-113 499h142z" />
    <glyph glyph-name="afii57683" unicode="&#x5e3;" horiz-adv-x="661" 
d="M451 -200v567q-5 42 -8 47q-1 3 -4 7q-21 32 -35 40l-27 15q-19 10 -166 10v-79q0 -35 11 -43t44 -8h53v-115h-65q-62 8 -66 9q-37 10 -67 34q-49 49 -49 114v203h256q69 -2 119 -25q77 -35 116 -101q21 -34 25 -87q1 -9 2 -15v-573h-139z" />
    <glyph glyph-name="afii57684" unicode="&#x5e4;" horiz-adv-x="660" 
d="M335 0v0h-256v115h248q47 5 52 7q2 1 5 3q34 18 46 32q5 6 16 23q8 10 11 41q1 7 1 13v132q-5 42 -8 47q-1 4 -4 7q-21 32 -35 40l-27 15q-19 10 -166 10v-79q0 -34 11 -42q11 -9 44 -9h53v-115h-65q-61 8 -66 9q-36 10 -67 34q-48 45 -49 109v5v203h256q70 -2 119 -25
q77 -35 116 -101q21 -34 26 -87q1 -9 1 -15v-144l-7 -55q-5 -24 -20 -47q-39 -66 -116 -101q-41 -20 -107 -24z" />
    <glyph glyph-name="afii57685" unicode="&#x5e5;" horiz-adv-x="616" 
d="M337 362q21 2 25 6q7 4 17 14q19 20 26 62v156h139v-167q-10 -57 -45 -105q-2 -3 -5 -7q-25 -37 -64 -54q-32 -13 -63 -18v-449h-139v486l-201 314h158z" />
    <glyph glyph-name="afii57686" unicode="&#x5e6;" horiz-adv-x="671" 
d="M373 362q20 2 24 6q5 3 9 8q2 3 5 6q17 22 29 62v156h139v-167q-10 -57 -45 -105q-2 -3 -5 -7q-30 -45 -89 -63l166 -258h-520v115h288l-313 485h158z" />
    <glyph glyph-name="afii57687" unicode="&#x5e7;" horiz-adv-x="672" 
d="M489 94v0q-66 -37 -123 -43q-14 -1 -31 -2v116l6 -1q41 8 50 13q8 4 21 13q13 10 18 16q19 25 27 66q2 8 3 13v200h-380v115h519v-324q-9 -69 -44 -120q-2 -4 -5 -8q-21 -32 -61 -54zM219 371v-571h-139v571h139z" />
    <glyph glyph-name="afii57688" unicode="&#x5e8;" horiz-adv-x="600" 
d="M530 374v0v-374h-139v365q-11 49 -21 65q-4 7 -9 14q-8 10 -10 12l-7 3q-27 16 -76 25q-6 1 -10 1h-195v115h207q84 -9 144 -40l6 -4q39 -18 62 -54q35 -49 46 -114q1 -6 2 -14z" />
    <glyph glyph-name="afii57689" unicode="&#x5e9;" horiz-adv-x="840" 
d="M215 323h68q31 0 48 17q20 17 20 47v213h139v-213q0 -80 -58 -127q-49 -47 -127 -52h-22h-53l6 -10q25 -35 45 -48q8 -6 29 -17q39 -18 72 -18h79q34 0 71 18q41 22 56 40l18 25q21 34 21 67v335h139v-335l-3 -40q-7 -43 -35 -83q-46 -71 -123 -108q-64 -34 -144 -34h-79
q-80 0 -145 34q-77 37 -123 108q-38 55 -38 123v335h139v-277z" />
    <glyph glyph-name="afii57690" unicode="&#x5ea;" horiz-adv-x="756" 
d="M328 485v-256l-4 -67q-6 -31 -23 -60q-17 -35 -64 -58q-70 -36 -128 -42q-9 -1 -19 -2l-23 3l-5 2v116q1 0 28 -6q27 0 42 7q6 2 16 7q17 8 28 24q10 15 11 49q1 18 2 31v252h-66v115h302q85 -10 150 -43q41 -21 62 -54q35 -50 46 -114q1 -7 2 -15v-374h-139v366
q-11 49 -20 64q-4 7 -10 15q-8 10 -10 11l-7 4q-26 14 -74 23q-7 1 -12 2h-85z" />
    <glyph glyph-name="afii57716" unicode="&#x5f0;" horiz-adv-x="554" 
d="M79 0v600h139v-600h-139zM336 0v600h139v-600h-139z" />
    <glyph glyph-name="afii57717" unicode="&#x5f1;" horiz-adv-x="550" 
d="M212 333l-139 -57v324h139v-267zM332 0v600h139v-600h-139z" />
    <glyph glyph-name="afii57718" unicode="&#x5f2;" horiz-adv-x="542" 
d="M212 333l-139 -57v324h139v-267zM470 333l-139 -57v324h139v-267z" />
    <glyph glyph-name="uni05F3" unicode="&#x5f3;" horiz-adv-x="238" 
d="M188 729v-130l-42 -129h-56l-40 129v130h138z" />
    <glyph glyph-name="uni05F4" unicode="&#x5f4;" horiz-adv-x="474" 
d="M188 729v-130l-42 -129h-56l-40 129v130h138zM424 729v-130l-42 -129h-56l-40 129v130h138z" />
    <glyph glyph-name="uni0617" unicode="&#x617;" horiz-adv-x="556" 
d="M522 273v-116h-74v-157h-140v157h-284v118l259 434h165v-436h74zM308 273v303l-185 -303h185z" />
    <glyph glyph-name="uni0618" unicode="&#x618;" horiz-adv-x="778" 
d="M711 392v-394h-90l-18 96q-68 -100 -174 -114q-22 -3 -46 -3q-149 0 -245 109q-96 108 -96 273q0 183 111 289q96 93 242 93q166 0 254 -101l24 -32q31 -50 38 -112h-141q-17 49 -45 73q-50 44 -129 44q-123 0 -175 -108q-29 -59 -29 -144q0 -133 79 -206q54 -50 129 -50
q87 0 145 65q2 2 4 5q31 36 36 92h-166v125h292z" />
    <glyph glyph-name="uni0619" unicode="&#x619;" horiz-adv-x="944" 
d="M730 0h-135l-122 569l-119 -569h-135l-206 729h159l113 -546l113 546h148l118 -547l109 547h159z" />
    <glyph glyph-name="uni061A" unicode="&#x61a;" horiz-adv-x="611" 
d="M408 540h133v-558q0 -130 -122 -178q-38 -15 -86 -20q-23 -2 -49 -2q-122 0 -186 52q-52 43 -53 101h145q17 -63 99 -63q74 0 105 55q14 24 14 55v73q-56 -63 -110 -74q-19 -4 -43 -4q-115 0 -176 99q-45 74 -45 181q0 141 79 226q61 66 145 66q87 0 146 -86l4 -6v83z
M288 432q-65 0 -96 -73q-18 -43 -18 -100q0 -102 55 -145q26 -20 57 -20q70 0 104 70q20 40 20 95q0 98 -55 147q-30 26 -67 26z" />
    <glyph glyph-name="afii57403" unicode="&#x61b;" horiz-adv-x="278" 
d="M207 729v-729h-140v729h140z" />
    <glyph glyph-name="uni061C" unicode="&#x61c;" horiz-adv-x="889" 
d="M60 540h139v-67q54 65 116 74q15 2 32 2q96 0 140 -68q4 -6 7 -12q66 77 158 80q118 0 157 -88q15 -34 15 -79v-382h-140v360q0 53 -49 67q-12 3 -27 3q-70 0 -90 -64q-6 -19 -6 -42v-324h-140v360q0 53 -49 67q-12 3 -27 3q-70 0 -90 -64q-6 -19 -6 -42v-324h-140v540z
" />
    <glyph glyph-name="afii57409" unicode="&#x621;" horiz-adv-x="844" 
d="M810 324l-398 -101l-22 78l139 33q-9 8 -31 52q-9 27 -9 50q0 52 42 91q37 29 83 29h5l28 -2l31 -6l39 -9l-4 -32l-3 -21l-1 -19l-23 4l-18 3l-15 2l-14 1l-22 -2q-12 -4 -23 -12q-22 -15 -22 -36q0 -24 23 -42t47 -18q19 0 85 18l69 18z" />
    <glyph glyph-name="afii57416" unicode="&#x628;" horiz-adv-x="923" 
d="M509 -201h-114v115h114v-115zM210 0q-81 0 -130 46q-36 42 -36 128v72h113v-54q0 -30 16 -49l7 -4q13 -7 33 -9l19 -1h531q39 0 39 26q0 12 -10 30l-51 99l98 68q31 -52 47 -84q33 -71 36 -100q1 -6 1 -11q0 -108 -75 -143q-28 -14 -65 -14h-573z" />
    <glyph glyph-name="afii57418" unicode="&#x62a;" horiz-adv-x="922" 
d="M575 324h-101v101h101v-101zM438 324h-101v101h101v-101zM210 0q-81 0 -130 46q-36 42 -36 127v72h113v-53q0 -30 16 -49l7 -5l15 -6l18 -2l19 -2h531q39 0 39 27l-1 12l-4 8l-5 9l-51 100l98 67l27 -45l20 -38l17 -37q20 -43 20 -74q0 -71 -34 -112q-36 -45 -106 -45
h-573z" />
    <glyph glyph-name="afii57419" unicode="&#x62b;" horiz-adv-x="922" 
d="M557 409h-101v-103h101v103zM431 409h-100v-103h100v103zM493 530h-103v-102h103v102zM210 0q-81 0 -130 46q-36 42 -36 128v72h113v-53q0 -32 16 -49l7 -5l15 -6l18 -3l19 -1h531q39 0 39 27l-1 12l-4 7l-5 10l-51 99l98 68l27 -45l20 -39l17 -36q20 -45 20 -75
q0 -71 -34 -111q-36 -46 -106 -46h-573z" />
    <glyph glyph-name="afii57421" unicode="&#x62d;" horiz-adv-x="649" 
d="M345 168l-40 -31l-35 -29l-15 -14l-24 -24q-20 -20 -33 -41q-32 -47 -32 -89q0 -66 48 -113q57 -55 149 -55q27 0 62 5q15 2 66 14l84 31l55 -105q-45 -24 -129 -51q-25 -8 -69 -15q-34 -6 -65 -6q-54 0 -75 4l-46 8l-18 7q-90 27 -138 100q-45 69 -45 167q0 87 63 173
l26 29l6 8l24 22l34 30l40 31l56 33q30 18 54 27l-54 2l-84 1l-9 -2q-3 0 -15 -1l-14 -3l-19 -7l-38 -19l-57 94l8 9l16 14l16 12l15 9q33 19 71 19h6l460 -16l-12 -122h-60l-13 -2l-12 -2l-27 -6l-10 -3l-13 -5l-42 -17l-23 -12l-23 -14l-34 -20l-17 -11z" />
    <glyph glyph-name="afii57422" unicode="&#x62e;" horiz-adv-x="704" 
d="M371 479h-113v114h113v-114zM345 168l-40 -30l-35 -30l-15 -14l-24 -23q-21 -23 -33 -42q-32 -46 -32 -89q0 -65 48 -113q56 -54 149 -54q34 0 62 4q21 3 66 15l84 31l55 -105q-45 -24 -129 -51q-23 -8 -69 -16q-34 -6 -65 -6q-48 0 -75 5l-46 8l-18 7q-90 27 -138 99
q-45 69 -45 167q0 87 63 173l26 30l6 7l24 23l34 29l40 31l56 34q26 15 54 26l-54 2l-84 1l-9 -2q-14 0 -15 -1l-14 -3l-19 -7l-38 -19l-57 95l8 9l16 14l16 11l15 9q34 20 72 20h5l460 -17l-12 -122h-60l-13 -1l-12 -3l-27 -6l-10 -2l-13 -6l-42 -17l-23 -12l-23 -14
l-34 -19l-17 -12z" />
    <glyph glyph-name="afii57427" unicode="&#x633;" horiz-adv-x="1221" 
d="M1010 34l-28 2q-54 12 -110 79q-14 -20 -40 -52q-33 -27 -75 -27q-13 0 -38 6l-16 7l-14 9q0 -60 -4 -67l-2 -16l-3 -18q0 -3 -3 -8l-2 -10l-4 -11q-2 -9 -4 -11l-5 -13q-39 -82 -96 -120q-77 -53 -199 -53q-103 0 -182 51q-49 30 -95 117l-10 30l-10 36q-6 36 -6 71v15
q0 11 1 12l1 14l7 22l17 69l4 7l4 7l98 -34l-6 -17l-5 -18l-10 -41l-3 -38l1 -36q9 -62 67 -101q24 -16 57 -23l18 -4l19 -2l17 -2l20 -1q107 -3 159 51q44 46 44 136q0 44 -16 83l-24 63l-13 26l-14 29l-26 47l96 61l47 -86l13 -22l28 -39q33 -44 70 -44q24 0 40 16
q18 22 18 58v120h105v-50l2 -32q3 -52 22 -78q24 -34 68 -34q56 0 56 53q0 24 -31 77l-23 40l97 60l26 -46l12 -24l8 -21l12 -27l10 -28q7 -27 7 -44v-5v-18l-1 -8l-2 -13v-9l-2 -4l-6 -17q-12 -35 -35 -56l-48 -34l-30 -9l-16 -2z" />
    <glyph glyph-name="uni1F00" unicode="&#x1f00;" horiz-adv-x="656" 
d="M212 799h130v-54q0 -60 -17 -83q-7 -10 -18 -18q-3 -2 -5 -4q-37 -25 -92 -31v47q76 14 76 82v1h-74v60zM394 267q0 71 -31 116q-28 41 -87 41q-120 0 -120 -161q0 -157 118 -157q120 0 120 161zM422 27q-60 -41 -146 -41q-251 0 -251 281q0 138 72 208q72 67 179 67
q91 -2 143 -46l4 -4v41h123v-425l34 22l37 -114q-69 -31 -112 -31q-45 0 -77 34q-4 4 -6 8z" />
    <glyph glyph-name="uni1F01" unicode="&#x1f01;" horiz-adv-x="656" 
d="M340 799h-130v-54q0 -60 17 -83q7 -10 18 -18q3 -2 5 -4q37 -25 92 -31v47q-76 14 -76 82v1h74v60zM394 267q0 71 -31 116q-28 41 -87 41q-120 0 -120 -161q0 -157 118 -157q120 0 120 161zM422 27q-60 -41 -146 -41q-251 0 -251 281q0 138 72 208q72 67 179 67
q91 -2 143 -46l4 -4v41h123v-425l34 22l37 -114q-69 -31 -112 -31q-45 0 -77 34q-4 4 -6 8z" />
    <glyph glyph-name="uni1F02" unicode="&#x1f02;" horiz-adv-x="656" 
d="M261 803l130 -166h70l-74 166h-126zM102 799h130v-54q0 -60 -17 -83q-7 -10 -18 -18q-3 -2 -5 -4q-37 -25 -92 -31v47q76 14 76 82v1h-74v60zM394 267q0 71 -31 116q-28 41 -87 41q-120 0 -120 -161q0 -157 118 -157q120 0 120 161zM422 27q-60 -41 -146 -41
q-251 0 -251 281q0 138 72 208q72 67 179 67q91 -2 143 -46l4 -4v41h123v-425l34 22l37 -114q-69 -31 -112 -31q-45 0 -77 34q-4 4 -6 8z" />
    <glyph glyph-name="uni1F03" unicode="&#x1f03;" horiz-adv-x="656" 
d="M256 802l130 -166h70l-74 166h-126zM221 799h-130v-54q0 -60 17 -83q7 -10 18 -18q3 -2 5 -4q37 -25 92 -31v47q-76 14 -76 82v1h74v60zM394 267q0 71 -31 116q-28 41 -87 41q-120 0 -120 -161q0 -157 118 -157q120 0 120 161zM422 27q-60 -41 -146 -41q-251 0 -251 281
q0 138 72 208q72 67 179 67q91 -2 143 -46l4 -4v41h123v-425l34 22l37 -114q-69 -31 -112 -31q-45 0 -77 34q-4 4 -6 8z" />
    <glyph glyph-name="uni1F04" unicode="&#x1f04;" horiz-adv-x="656" 
d="M461 803l-130 -166h-70l74 166h126zM93 799h130v-54q0 -60 -17 -83q-7 -10 -18 -18q-3 -2 -5 -4q-37 -25 -92 -31v47q76 14 76 82v1h-74v60zM394 267q0 71 -31 116q-28 41 -87 41q-120 0 -120 -161q0 -157 118 -157q120 0 120 161zM422 27q-60 -41 -146 -41
q-251 0 -251 281q0 138 72 208q72 67 179 67q91 -2 143 -46l4 -4v41h123v-425l34 22l37 -114q-69 -31 -112 -31q-45 0 -77 34q-4 4 -6 8z" />
    <glyph glyph-name="uni1F05" unicode="&#x1f05;" horiz-adv-x="656" 
d="M437 808l-130 -166h-70l74 166h126zM199 799h-130v-54q0 -60 17 -83q7 -10 18 -18q3 -2 5 -4q37 -25 92 -31v47q-76 14 -76 82v1h74v60zM394 267q0 71 -31 116q-28 41 -87 41q-120 0 -120 -161q0 -157 118 -157q120 0 120 161zM422 27q-60 -41 -146 -41q-251 0 -251 281
q0 138 72 208q72 67 179 67q91 -2 143 -46l4 -4v41h123v-425l34 22l37 -114q-69 -31 -112 -31q-45 0 -77 34q-4 4 -6 8z" />
    <glyph glyph-name="uni1F06" unicode="&#x1f06;" horiz-adv-x="656" 
d="M390 966h63q-6 -127 -95 -127q-24 0 -55 12l-71 26q-18 6 -30 6q-30 0 -38 -35l-2 -10h-63q5 98 66 119q13 5 28 5q20 0 56 -13l71 -25q14 -6 34 -6q32 0 36 48zM226 799h130v-54q0 -60 -17 -83q-7 -10 -18 -18q-3 -2 -5 -4q-37 -25 -92 -31v47q76 14 76 82v1h-74v60z
M394 267q0 71 -31 116q-28 41 -87 41q-120 0 -120 -161q0 -157 118 -157q120 0 120 161zM422 27q-60 -41 -146 -41q-251 0 -251 281q0 138 72 208q72 67 179 67q91 -2 143 -46l4 -4v41h123v-425l34 22l37 -114q-69 -31 -112 -31q-45 0 -77 34q-4 4 -6 8z" />
    </font>
</defs>
</svg>
